SplineFontDB: 3.0
FontName: Astloch-Bold
FullName: Astloch Bold
FamilyName: Astloch
Weight: Bold
Copyright: 
Version: 1.000
ItalicAngle: 0
UnderlinePosition: -265
UnderlineWidth: 43
Ascent: 1696
Descent: 352
LayerCount: 2
Layer: 0 1 "Back"  1
Layer: 1 1 "Fore"  0
NeedsXUIDChange: 1
XUID: [1021 298 1767659720 14637012]
FSType: 0
OS2Version: 3
OS2_WeightWidthSlopeOnly: 0
OS2_UseTypoMetrics: 1
CreationTime: 1290498960
ModificationTime: 1297208293
PfmFamily: 17
TTFWeight: 700
TTFWidth: 5
LineGap: 53
VLineGap: 0
Panose: 2 0 5 5 2 0 0 2 0 4
OS2TypoAscent: 0
OS2TypoAOffset: 1
OS2TypoDescent: 0
OS2TypoDOffset: 1
OS2TypoLinegap: 106
OS2WinAscent: -87
OS2WinAOffset: 1
OS2WinDescent: 64
OS2WinDOffset: 1
HheadAscent: -87
HheadAOffset: 1
HheadDescent: -64
HheadDOffset: 1
OS2SubXSize: 418
OS2SubYSize: 418
OS2SubXOff: 0
OS2SubYOff: 586
OS2SupXSize: 418
OS2SupYSize: 418
OS2SupXOff: 0
OS2SupYOff: 586
OS2StrikeYSize: 209
OS2StrikeYPos: 1049
OS2Vendor: '    '
OS2CodePages: 20000111.40000000
OS2UnicodeRanges: 80000003.00000000.00000000.00000000
Lookup: 258 0 0 "'kern' Horizontal Kerning in Latin lookup 0"  {"'kern' Horizontal Kerning in Latin lookup 0 per glyph data 0"  "'kern' Horizontal Kerning in Latin lookup 0 kerning class 1"  } ['kern' ('latn' <'dflt' > ) ]
DEI: 91125
KernClass2: 69+ 66 "'kern' Horizontal Kerning in Latin lookup 0 kerning class 1" 
 20 quotedbl quotesingle
 9 parenleft
 8 asterisk
 5 comma
 20 hyphen endash emdash
 6 period
 5 slash
 11 bracketleft
 9 backslash
 9 braceleft
 22 quoteleft quotedblleft
 24 quoteright quotedblright
 27 quotesinglbase quotedblbase
 27 guillemotleft guilsinglleft
 29 guillemotright guilsinglright
 12 questiondown
 50 A Agrave Aacute Acircumflex Atilde Adieresis Aring
 1 B
 10 C Ccedilla
 5 D Eth
 43 E AE Egrave Eacute Ecircumflex Edieresis OE
 1 F
 1 G
 1 H
 37 I Igrave Iacute Icircumflex Idieresis
 1 J
 1 K
 1 L
 1 M
 8 N Ntilde
 53 O Q Ograve Oacute Ocircumflex Otilde Odieresis Oslash
 1 P
 1 R
 1 S
 1 T

StartChar: exclam
Encoding: 33 33 2
Width: 470
Flags: W
VStem: 155 171<418 1539>
LayerCount: 2
Fore
SplineSet
326 1539 m 1,0,-1
 326 418 l 1,1,-1
 155 418 l 1,2,-1
 155 1539 l 1,3,-1
 326 1539 l 1,0,-1
296 -68 m 1,4,-1
 126 -57 l 1,5,-1
 155 336 l 1,6,-1
 326 325 l 1,7,-1
 296 -68 l 1,4,-1
EndSplineSet
EndChar

StartChar: quotedbl
Encoding: 34 34 3
Width: 678
Flags: W
HStem: 957 611<104 274 403 574>
VStem: 104 170<957 1568> 403 171<957 1568>
LayerCount: 2
Fore
SplineSet
403 1568 m 1,0,-1
 574 1568 l 1,1,-1
 574 957 l 1,2,-1
 403 957 l 1,3,-1
 403 1568 l 1,0,-1
104 1568 m 1,4,-1
 274 1568 l 1,5,-1
 274 957 l 1,6,-1
 104 957 l 1,7,-1
 104 1568 l 1,4,-1
EndSplineSet
EndChar

StartChar: dollar
Encoding: 36 36 4
Width: 983
Flags: W
VStem: 120 169<299.253 486.582> 463 160<-134 1 300 582 1098 1230 1460.59 1616> 686 170<328.978 637.181> 718 171<1067.87 1264.07>
LayerCount: 2
Fore
SplineSet
307 452 m 1,0,1
 289 427 289 427 289 402 c 128,-1,2
 289 377 289 377 298.5 353.5 c 128,-1,3
 308 330 308 330 324 310 c 128,-1,4
 340 290 340 290 362 272 c 2,5,-1
 463 190 l 1,6,-1
 463 582 l 1,7,-1
 362 506 l 1,8,-1
 56 882 l 1,9,-1
 394 1183 l 1,10,-1
 463 1098 l 1,11,-1
 463 1230 l 1,12,-1
 280 1230 l 1,13,14
 296 1305 296 1305 345 1362.5 c 128,-1,15
 394 1420 394 1420 463 1449 c 1,16,-1
 463 1616 l 1,17,-1
 623 1616 l 1,18,-1
 623 1470 l 1,19,20
 735 1454 735 1454 812 1367.5 c 128,-1,21
 889 1281 889 1281 889 1165 c 0,22,23
 890 1006 890 1006 760 914 c 0,24,25
 720 886 720 886 673 871 c 1,26,27
 800 750 800 750 842 594 c 0,28,29
 856 542 856 542 856 487 c 128,-1,30
 856 432 856 432 842 374 c 128,-1,31
 828 316 828 316 800 262 c 0,32,33
 740 148 740 148 623 74 c 1,34,-1
 623 -134 l 1,35,-1
 463 -134 l 1,36,-1
 463 1 l 1,37,-1
 282 132 l 2,38,39
 120 249 120 249 120 400 c 0,40,41
 120 488 120 488 197 578 c 1,42,-1
 307 452 l 1,0,1
554 858 m 1,43,44
 449 868 449 868 371 939 c 1,45,-1
 288 871 l 1,46,-1
 390 736 l 1,47,-1
 554 858 l 1,43,44
691.5 1084 m 128,-1,49
 718 1119 718 1119 718 1164.5 c 128,-1,50
 718 1210 718 1210 691.5 1245.5 c 128,-1,51
 665 1281 665 1281 623 1294 c 1,52,-1
 623 1036 l 1,53,48
 665 1049 665 1049 691.5 1084 c 128,-1,49
623 300 m 1,54,55
 686 391 686 391 686 491 c 0,56,57
 686 581 686 581 623 663 c 1,58,-1
 623 300 l 1,54,55
EndSplineSet
EndChar

StartChar: percent
Encoding: 37 37 5
Width: 1602
Flags: W
VStem: 90 170<644 1078.81> 486 169<776.754 1181.07> 966 171<215 650.422> 1362 170<349.318 752.657>
LayerCount: 2
Fore
SplineSet
1250 1271 m 1,0,-1
 413 -48 l 1,1,-1
 275 46 l 1,2,-1
 1115 1372 l 1,3,-1
 1250 1271 l 1,0,-1
1313 969 m 1,4,5
 1532 825 1532 825 1532 653 c 2,6,-1
 1532 448 l 2,7,8
 1532 301 1532 301 1409 208 c 1,9,-1
 1084 -34 l 1,10,-1
 966 24 l 1,11,-1
 966 533 l 2,12,13
 966 704 966 704 1089 798 c 2,14,-1
 1313 969 l 1,4,5
1190 661 m 2,15,16
 1137 619 1137 619 1137 533 c 2,17,-1
 1137 215 l 1,18,-1
 1308 340 l 2,19,20
 1362 379 1362 379 1362 448 c 2,21,-1
 1362 653 l 2,22,23
 1362 709 1362 709 1314 757 c 1,24,-1
 1190 661 l 2,15,16
437 1397 m 1,25,26
 655 1254 655 1254 655 1081 c 2,27,-1
 655 876 l 2,28,29
 655 802 655 802 636 762 c 0,30,31
 602 690 602 690 532 637 c 2,32,-1
 207 394 l 1,33,-1
 90 452 l 1,34,-1
 90 962 l 2,35,36
 90 1132 90 1132 213 1226 c 2,37,-1
 437 1397 l 1,25,26
314 1089 m 2,38,39
 260 1046 260 1046 260 962 c 2,40,-1
 260 644 l 1,41,-1
 432 769 l 2,42,43
 486 808 486 808 486 876 c 2,44,-1
 486 1081 l 2,45,46
 486 1137 486 1137 438 1185 c 1,47,-1
 314 1089 l 2,38,39
EndSplineSet
EndChar

StartChar: ampersand
Encoding: 38 38 6
Width: 1033
Flags: W
HStem: 0 171<841.252 965> 1548 20G<503.854 578.5>
VStem: 80 171<199.471 593.016> 140 171<861.484 1216.36> 578 171<997.984 1353> 796 170<603.842 912>
LayerCount: 2
Fore
SplineSet
140 1098 m 2,0,1
 140 1271 140 1271 263 1363 c 1,2,-1
 262 1363 l 1,3,-1
 530 1568 l 1,4,5
 627 1503 627 1503 666 1454 c 0,6,7
 749 1353 749 1353 749 1252 c 2,8,-1
 749 1114 l 2,9,10
 749 943 749 943 640 859 c 2,11,-1
 455 718 l 1,12,-1
 636 475 l 1,13,14
 786 602 786 602 794 721 c 0,15,16
 796 758 796 758 796 800 c 2,17,-1
 796 912 l 1,18,-1
 966 912 l 1,19,-1
 966 825 l 2,20,21
 966 758 966 758 962 699 c 128,-1,22
 958 640 958 640 936 582 c 0,23,24
 889 459 889 459 739 336 c 1,25,-1
 768 298 l 1,26,27
 818 230 818 230 846 209 c 0,28,29
 897 171 897 171 965 171 c 1,30,-1
 965 0 l 1,31,32
 808 0 808 0 700 117 c 0,33,34
 666 153 666 153 631 197 c 2,35,-1
 606 229 l 1,36,-1
 299 -15 l 1,37,38
 80 123 80 123 80 302 c 2,39,-1
 80 475 l 2,40,41
 80 644 80 644 217 751 c 1,42,43
 140 872 140 872 140 977 c 2,44,-1
 140 1098 l 2,0,1
578 1252 m 2,45,46
 578 1311 578 1311 533 1356 c 1,47,-1
 365 1226 l 2,48,49
 311 1183 311 1183 311 1098 c 2,50,-1
 311 977 l 2,51,52
 312 941 312 941 328 912 c 2,53,-1
 357 859 l 1,54,-1
 525 987 l 1,55,56
 578 1029 578 1029 578 1114 c 2,57,-1
 578 1252 l 2,45,46
319 615 m 1,58,59
 251 559 251 559 251 475 c 2,60,-1
 251 302 l 2,61,62
 251 245 251 245 296 198 c 1,63,-1
 505 366 l 1,64,-1
 319 615 l 1,58,59
EndSplineSet
EndChar

StartChar: quotesingle
Encoding: 39 39 7
Width: 379
Flags: W
HStem: 956 611<104 275>
VStem: 104 171<956 1567>
LayerCount: 2
Fore
SplineSet
104 1567 m 1,0,-1
 275 1567 l 1,1,-1
 275 956 l 1,2,-1
 104 956 l 1,3,-1
 104 1567 l 1,0,-1
EndSplineSet
EndChar

StartChar: parenleft
Encoding: 40 40 8
Width: 565
Flags: W
HStem: 1546 20G<415.5 484.969>
VStem: 61 171<335.003 943.671>
LayerCount: 2
Fore
SplineSet
464 -290 m 1,0,1
 272 -111 272 -111 164 144 c 0,2,3
 61 388 61 388 61 646 c 0,4,5
 62 1041 62 1041 288 1364 c 0,6,7
 364 1473 364 1473 467 1566 c 1,8,-1
 582 1438 l 1,9,10
 324 1205 324 1205 254 859 c 0,11,12
 232 752 232 752 232 644 c 128,-1,13
 232 536 232 536 254.5 425.5 c 0,14,15
 276 315 276 315 320 210 c 0,16,17
 411 -9 411 -9 580 -166 c 1,18,-1
 464 -290 l 1,0,1
EndSplineSet
EndChar

StartChar: parenright
Encoding: 41 41 9
Width: 565
Flags: W
HStem: 1546 20G<80.0312 248>
VStem: 332.5 171.5<339.547 943.734>
LayerCount: 2
Fore
SplineSet
-15 -165 m 1,0,1
 238 73 238 73 310 426 c 0,2,3
 332 536 332 536 332.5 644 c 128,-1,4
 333 752 333 752 311.5 859 c 128,-1,5
 290 966 290 966 246 1068 c 0,6,7
 154 1284 154 1284 -17 1438 c 1,8,-1
 98 1566 l 1,9,10
 398 1296 398 1296 479 894 c 0,11,12
 504 770 504 770 504 644.5 c 128,-1,13
 504 519 504 519 478 391.5 c 128,-1,14
 452 264 452 264 402 144 c 0,15,16
 295 -110 295 -110 102 -290 c 1,17,-1
 -15 -165 l 1,0,1
EndSplineSet
EndChar

StartChar: asterisk
Encoding: 42 42 10
Width: 841
Flags: W
HStem: 620 33<363.485 477.194> 721 43<159.497 280.47 569.751 681.219> 814 161<192.125 258.898> 1015 161<578.575 650.811> 1222 37<159.358 272.49 557.674 684.318> 1339 24<370.365 469.701>
VStem: 76.5 37.5<809.726 933.258 1049.75 1177.54> 160 152<1071.74 1232.21> 362 116<720.533 761 1230 1271.47> 528 153.5<827.281 911.836> 731 32<820.321 930.981 1065.67 1173.04>
LayerCount: 2
Fore
SplineSet
150 990 m 1,0,1
 77 1030 77 1030 77 1115 c 0,2,3
 76 1174 76 1174 118 1216 c 128,-1,4
 160 1258 160 1258 220 1259 c 0,5,6
 243 1259 243 1259 277 1247 c 1,7,8
 287 1297 287 1297 325.5 1330 c 128,-1,9
 364 1363 364 1363 403.5 1363 c 128,-1,10
 443 1363 443 1363 466.5 1354 c 128,-1,11
 490 1345 490 1345 509 1329 c 0,12,13
 548 1296 548 1296 558 1245 c 1,14,15
 588 1259 588 1259 618.5 1259 c 128,-1,16
 649 1259 649 1259 675 1247.5 c 0,17,18
 700 1236 700 1236 720 1216 c 0,19,20
 762 1174 762 1174 763 1115 c 0,21,22
 763 1030 763 1030 688 990 c 1,23,24
 763 947 763 947 763 864 c 0,25,26
 762 804 762 804 720 762 c 128,-1,27
 678 720 678 720 632.5 720.5 c 128,-1,28
 587 721 587 721 558 734 c 1,29,30
 548 685 548 685 518 661 c 0,31,32
 468 620 468 620 416.5 620 c 128,-1,33
 365 620 365 620 326.5 652 c 128,-1,34
 288 684 288 684 277 732 c 1,35,36
 249 721 249 721 219.5 721 c 128,-1,37
 190 721 190 721 164 732 c 0,38,39
 138 742 138 742 118 762 c 0,40,41
 76 804 76 804 76.5 876 c 128,-1,42
 77 948 77 948 150 990 c 1,0,1
381 1022 m 1,43,44
 195 1038 195 1038 168 1086 c 0,45,46
 160 1100 160 1100 160 1119.5 c 128,-1,47
 160 1139 160 1139 177.5 1155.5 c 128,-1,48
 195 1172 195 1172 213.5 1172 c 128,-1,49
 232 1172 232 1172 249 1163 c 1,50,-1
 273 1207 l 1,51,52
 247 1222 247 1222 221 1222 c 128,-1,53
 195 1222 195 1222 175.5 1213 c 128,-1,54
 156 1204 156 1204 142 1189 c 0,55,56
 110 1156 110 1156 110 1121 c 0,57,58
 110 1013 110 1013 256 991 c 0,59,60
 314 982 314 982 381 975 c 1,61,62
 278 814 278 814 221 814 c 0,63,64
 196 814 196 814 180 831.5 c 128,-1,65
 164 849 164 849 164 877.5 c 128,-1,66
 164 906 164 906 192 922 c 1,67,-1
 166 964 l 1,68,69
 114 932 114 932 114 872 c 0,70,71
 114 827 114 827 137 804 c 0,72,73
 177 764 177 764 221 764 c 0,74,75
 254 764 254 764 288 787 c 0,76,77
 343 824 343 824 418 949 c 1,78,79
 478 824 478 824 478 761 c 0,80,81
 478 737 478 737 461 720 c 128,-1,82
 444 703 444 703 420 703 c 256,83,84
 396 703 396 703 379 720 c 128,-1,85
 362 737 362 737 362 761 c 1,86,-1
 312 761 l 1,87,88
 312 716 312 716 335 693 c 0,89,90
 375 653 375 653 408.5 653 c 128,-1,91
 442 653 442 653 462 661.5 c 128,-1,92
 482 670 482 670 496 684 c 0,93,94
 528 716 528 716 528 768 c 128,-1,95
 528 820 528 820 458 968 c 1,96,97
 650 949 650 949 674 904 c 0,98,99
 682 890 682 890 681.5 870.5 c 128,-1,100
 681 851 681 851 664 834.5 c 128,-1,101
 647 818 647 818 628 818 c 128,-1,102
 609 818 609 818 593 827 c 1,103,-1
 569 783 l 1,104,105
 593 768 593 768 619.5 768 c 128,-1,106
 646 768 646 768 666 777 c 128,-1,107
 686 786 686 786 700 801 c 0,108,109
 731 834 731 834 731 869 c 0,110,111
 731 939 731 939 686 965 c 0,112,113
 623 1000 623 1000 457 1015 c 1,114,115
 554 1176 554 1176 621 1176 c 0,116,117
 646 1176 646 1176 662.5 1159 c 128,-1,118
 679 1142 679 1142 679 1114 c 128,-1,119
 679 1086 679 1086 652 1069 c 1,120,-1
 678 1027 l 1,121,122
 729 1060 729 1060 729 1119 c 0,123,124
 729 1163 729 1163 705 1186 c 0,125,126
 663 1226 663 1226 628 1226 c 128,-1,127
 593 1226 593 1226 561 1207 c 0,128,129
 513 1179 513 1179 424 1041 c 1,130,131
 362 1170 362 1170 362 1230 c 0,132,133
 362 1255 362 1255 379 1272 c 128,-1,134
 396 1289 396 1289 420 1289 c 256,135,136
 444 1289 444 1289 461 1272 c 128,-1,137
 478 1255 478 1255 478 1230 c 1,138,-1
 528 1230 l 1,139,140
 528 1276 528 1276 505 1299 c 0,141,142
 465 1339 465 1339 431 1339 c 128,-1,143
 397 1339 397 1339 377.5 1330.5 c 128,-1,144
 358 1322 358 1322 344 1308 c 0,145,146
 312 1276 312 1276 312 1215.5 c 128,-1,147
 312 1155 312 1155 381 1022 c 1,43,44
EndSplineSet
EndChar

StartChar: plus
Encoding: 43 43 11
Width: 1028
Flags: W
HStem: 609 170<65 428 599 963>
VStem: 428 171<247 609 779 1142>
LayerCount: 2
Fore
SplineSet
428 779 m 1,0,-1
 428 1142 l 1,1,-1
 599 1142 l 1,2,-1
 599 779 l 1,3,-1
 963 779 l 1,4,-1
 963 609 l 1,5,-1
 599 609 l 1,6,-1
 599 247 l 1,7,-1
 428 247 l 1,8,-1
 428 609 l 1,9,-1
 65 609 l 1,10,-1
 65 779 l 1,11,-1
 428 779 l 1,0,-1
EndSplineSet
EndChar

StartChar: comma
Encoding: 44 44 12
Width: 395
Flags: W
HStem: 94 164<97 158.885>
VStem: 179 153<-106.157 80.3007>
LayerCount: 2
Fore
SplineSet
80 -199 m 1,0,1
 179 -43 179 -43 179 23 c 0,2,3
 179 52 179 52 159.5 73 c 128,-1,4
 140 94 140 94 97 94 c 1,5,-1
 97 258 l 1,6,7
 273 258 273 258 318 128 c 0,8,9
 332 88 332 88 332 31 c 0,10,11
 332 -90 332 -90 214 -275 c 1,12,-1
 80 -199 l 1,0,1
EndSplineSet
EndChar

StartChar: hyphen
Encoding: 45 45 13
Width: 777
Flags: W
HStem: 481 317
VStem: 107 564<448 481>
LayerCount: 2
Fore
SplineSet
107 656 m 1,0,-1
 671 798 l 1,1,-1
 671 623 l 1,2,-1
 107 481 l 1,3,-1
 107 656 l 1,0,-1
EndSplineSet
EndChar

StartChar: period
Encoding: 46 46 14
Width: 383
Flags: W
HStem: -68 404
VStem: 88 200
LayerCount: 2
Fore
SplineSet
258 -68 m 1,0,-1
 88 -57 l 1,1,-1
 117 336 l 1,2,-1
 288 325 l 1,3,-1
 258 -68 l 1,0,-1
EndSplineSet
EndChar

StartChar: slash
Encoding: 47 47 15
Width: 914
Flags: W
LayerCount: 2
Fore
SplineSet
850 1502 m 1,0,-1
 204 -201 l 1,1,-1
 39 -158 l 1,2,-1
 692 1563 l 1,3,-1
 850 1502 l 1,0,-1
EndSplineSet
EndChar

StartChar: zero
Encoding: 48 48 16
Width: 826
Flags: W
HStem: 1210 20G<488.568 624.5> 1210 20G<488.568 624.5>
VStem: 92 171<182.44 854.953> 563 171<343.578 1013.66>
LayerCount: 2
Fore
SplineSet
515 1230 m 1,0,1
 734 1086 734 1086 734 914 c 2,2,-1
 734 461 l 2,3,4
 734 290 734 290 611 196 c 1,5,-1
 310 -30 l 1,6,7
 208 36 208 36 168 85 c 0,8,9
 92 179 92 179 92 285 c 2,10,-1
 92 738 l 2,11,12
 92 908 92 908 215 1003 c 1,13,-1
 515 1230 l 1,0,1
563 914 m 2,14,15
 563 971 563 971 517 1019 c 1,16,-1
 317 866 l 2,17,18
 263 825 263 825 263 738 c 2,19,-1
 263 285 l 2,20,21
 263 227 263 227 309 181 c 1,22,-1
 509 333 l 1,23,24
 563 376 563 376 563 461 c 2,25,-1
 563 914 l 2,14,15
EndSplineSet
EndChar

StartChar: one
Encoding: 49 49 17
Width: 608
Flags: W
HStem: 1210 20G<344.253 409.868> 1210 20G<344.253 409.868>
VStem: 6 172<779 896.455> 303 171<110.536 969>
LayerCount: 2
Fore
SplineSet
234 43 m 1,0,1
 303 200 303 200 303 448 c 2,2,-1
 303 969 l 1,3,-1
 258 934 l 1,4,5
 194 882 194 882 178 779 c 1,6,-1
 6 778 l 1,7,8
 23 934 23 934 98 1016 c 0,9,10
 122 1042 122 1042 149 1064 c 2,11,-1
 371 1230 l 1,12,-1
 474 1177 l 1,13,-1
 474 448 l 2,14,15
 474 249 474 249 447 145 c 128,-1,16
 420 41 420 41 390 -30 c 1,17,-1
 234 43 l 1,0,1
EndSplineSet
EndChar

StartChar: two
Encoding: 50 50 18
Width: 998
Flags: W
HStem: 0 170<408.764 747.338> 55 170<273 588.502> 1059 170<330.659 667.6>
VStem: 74 333<775.733 1002.25> 729 170<778.898 1002.58> 757 172<178.227 267.125>
LayerCount: 2
Fore
SplineSet
326 1031 m 1,0,1
 407 983 407 983 407 889 c 0,2,3
 407 820 407 820 358 771 c 128,-1,4
 309 722 309 722 240 722 c 0,5,6
 170 722 170 722 122 771 c 0,7,8
 74 821 74 821 74 891.5 c 128,-1,9
 74 962 74 962 103.5 1024 c 0,10,11
 132 1086 132 1086 188 1132 c 0,12,13
 307 1230 307 1230 501 1229 c 0,14,15
 670 1230 670 1230 778 1148 c 0,16,17
 899 1057 899 1057 899 896 c 0,18,19
 899 725 899 725 722 597 c 0,20,21
 670 560 670 560 616 526 c 2,22,-1
 507 459 l 1,23,24
 382 384 382 384 334.5 329 c 128,-1,25
 287 274 287 274 271 225 c 1,26,27
 349 225 349 225 443 206 c 0,28,29
 621 170 621 170 703 170 c 0,30,31
 725 170 725 170 741 184.5 c 128,-1,32
 757 199 757 199 757 221.5 c 128,-1,33
 757 244 757 244 741 260 c 128,-1,34
 725 276 725 276 703 276 c 1,35,-1
 704 446 l 1,36,37
 796 446 796 446 863 380 c 0,38,39
 929 315 929 315 929 222 c 0,40,41
 929 128 929 128 863 64 c 128,-1,42
 797 0 797 0 704 0 c 256,43,44
 650 0 650 0 558 19 c 0,45,46
 385 55 385 55 273 55 c 1,47,-1
 295 0 l 1,48,-1
 111 0 l 1,49,50
 82 90 82 90 82 159 c 128,-1,51
 82 228 82 228 110 292 c 128,-1,52
 138 356 138 356 183.5 407.5 c 128,-1,53
 229 459 229 459 287 500.5 c 0,54,55
 346 542 346 542 406 578 c 2,56,-1
 524 650 l 2,57,58
 651 726 651 726 701 800 c 0,59,60
 729 842 729 842 729 894 c 128,-1,61
 729 946 729 946 707 977.5 c 0,62,63
 684 1009 684 1009 650 1027 c 0,64,65
 589 1059 589 1059 515 1059 c 0,66,67
 374 1059 374 1059 326 1031 c 1,0,1
EndSplineSet
EndChar

StartChar: three
Encoding: 51 51 19
Width: 911
Flags: W
HStem: -353 21G<124.152 207> 1058 170<269.971 579.178>
VStem: 9 331<775.74 1000.72> 674 170<132.783 363.643 721.74 968.769>
LayerCount: 2
Fore
SplineSet
268 1025 m 1,0,1
 340 973 340 973 340 889 c 0,2,3
 340 820 340 820 291 771 c 128,-1,4
 242 722 242 722 173 722 c 128,-1,5
 104 722 104 722 56 771 c 0,6,7
 8 821 8 821 9 895 c 128,-1,8
 10 969 10 969 43 1032 c 0,9,10
 76 1094 76 1094 132 1138 c 0,11,12
 246 1228 246 1228 420 1228 c 0,13,14
 618 1228 618 1228 736 1108 c 0,15,16
 844 998 844 998 844 847 c 0,17,18
 844 653 844 653 693 533 c 1,19,20
 844 457 844 457 844 253 c 0,21,22
 844 -24 844 -24 412 -233 c 0,23,24
 282 -296 282 -296 132 -353 c 1,25,-1
 70 -195 l 1,26,27
 360 -83 360 -83 500 11 c 0,28,29
 674 129 674 129 674 253 c 0,30,31
 674 378 674 378 545 404 c 0,32,33
 505 412 505 412 457 414 c 1,34,35
 434 406 434 406 398 396 c 2,36,-1
 314 373 l 1,37,-1
 271 537 l 1,38,39
 572 620 572 620 646 744 c 0,40,41
 674 790 674 790 674 838 c 128,-1,42
 674 886 674 886 657.5 924 c 128,-1,43
 641 962 641 962 609 992 c 0,44,45
 537 1058 537 1058 420 1058 c 0,46,47
 328 1058 328 1058 268 1025 c 1,0,1
EndSplineSet
EndChar

StartChar: four
Encoding: 52 52 20
Width: 901
Flags: W
HStem: -334 165<335.264 389.727> 197 170<197 533 706 888>
VStem: 535 171<-10.3684 197 367 1007.72>
LayerCount: 2
Fore
SplineSet
16 304 m 2,0,1
 16 391 16 391 62 491 c 1,2,-1
 443 1247 l 1,3,4
 628 1170 628 1170 686 1034 c 0,5,6
 706 986 706 986 706 927 c 2,7,-1
 706 367 l 1,8,-1
 888 367 l 1,9,-1
 888 197 l 1,10,-1
 703 197 l 1,11,12
 692 4 692 4 628 -114 c 0,13,14
 540 -274 540 -274 339 -334 c 1,15,-1
 296 -169 l 1,16,17
 484 -114 484 -114 520 82 c 0,18,19
 530 138 530 138 533 197 c 1,20,-1
 16 197 l 1,21,-1
 16 304 l 2,0,1
514 1009 m 1,22,23
 205 394 205 394 197 367 c 1,24,-1
 535 367 l 1,25,-1
 535 927 l 2,26,27
 535 977 535 977 514 1009 c 1,22,23
EndSplineSet
EndChar

StartChar: five
Encoding: 53 53 21
Width: 855
Flags: W
HStem: -352 21G<21 212> 555 170<236 564.213> 1060 170<283 727>
VStem: 646 171<216.573 484.291>
LayerCount: 2
Fore
SplineSet
386 725 m 2,0,1
 693 725 693 725 784 534 c 0,2,3
 817 465 817 465 817 357 c 128,-1,4
 817 249 817 249 759 147 c 0,5,6
 700 45 700 45 596 -44 c 0,7,8
 395 -215 395 -215 29 -352 c 1,9,-1
 -35 -192 l 1,10,11
 270 -89 270 -89 454 57 c 0,12,13
 646 210 646 210 646 365 c 0,14,15
 646 462 646 462 568 512 c 0,16,17
 499 556 499 556 386 555 c 2,18,-1
 43 555 l 1,19,-1
 131 1230 l 1,20,-1
 727 1230 l 1,21,-1
 727 1060 l 1,22,-1
 283 1060 l 1,23,-1
 236 725 l 1,24,-1
 386 725 l 2,0,1
EndSplineSet
EndChar

StartChar: six
Encoding: 54 54 22
Width: 807
Flags: W
HStem: 0 21G<210.5 346.091> 1547 20G<440 553.275>
VStem: 102 170<214.178 754.43 936 1141.84> 569 171<366.172 907.75>
LayerCount: 2
Fore
SplineSet
319 0 m 1,0,1
 102 140 102 140 102 315 c 2,2,-1
 102 992 l 2,3,4
 102 1150 102 1150 220 1304 c 0,5,6
 338 1459 338 1459 542 1567 c 1,7,-1
 626 1418 l 1,8,9
 374 1283 374 1283 296 1103 c 0,10,11
 272 1046 272 1046 272 992 c 2,12,-1
 272 936 l 1,13,-1
 521 1122 l 1,14,15
 620 1055 620 1055 658 1008 c 0,16,17
 740 908 740 908 740 807 c 2,18,-1
 740 485 l 2,19,20
 740 311 740 311 617 220 c 2,21,-1
 319 0 l 1,0,1
327 764 m 2,22,23
 272 722 272 722 272 648 c 2,24,-1
 272 315 l 2,25,26
 272 258 272 258 319 211 c 1,27,-1
 515 358 l 2,28,29
 569 399 569 399 569 485 c 2,30,-1
 569 807 l 2,31,32
 569 863 569 863 521 911 c 1,33,-1
 327 764 l 2,22,23
EndSplineSet
EndChar

StartChar: seven
Encoding: 55 55 23
Width: 835
Flags: W
HStem: -352 21G<232 402> 1060 170<182.203 640>
VStem: 226 170<-352 182.224> 640 175<874.195 1060>
LayerCount: 2
Fore
SplineSet
-28 1048 m 1,0,1
 42 1138 42 1138 102 1171 c 0,2,3
 208 1230 208 1230 319 1230 c 2,4,-1
 815 1230 l 1,5,6
 820 909 820 909 687 660 c 0,7,8
 648 589 648 589 608 522 c 1,9,-1
 530 387 l 1,10,11
 445 237 445 237 419 108 c 128,-1,12
 393 -21 393 -21 393 -101.5 c 128,-1,13
 393 -182 393 -182 396 -240 c 2,14,-1
 402 -352 l 1,15,-1
 232 -352 l 1,16,17
 232 -338 232 -338 230 -314 c 2,18,-1
 226 -264 l 2,19,20
 222 -204 222 -204 222.5 -130 c 128,-1,21
 223 -56 223 -56 240.5 47 c 128,-1,22
 258 150 258 150 287 237 c 128,-1,23
 316 324 316 324 352.5 398.5 c 0,24,25
 389 474 389 474 428 540 c 2,26,-1
 504 668 l 2,27,28
 588 809 588 809 613 897.5 c 128,-1,29
 638 986 638 986 640 1060 c 1,30,-1
 319 1060 l 2,31,32
 251 1060 251 1060 203.5 1031.5 c 128,-1,33
 156 1003 156 1003 114 952 c 1,34,-1
 -28 1048 l 1,0,1
EndSplineSet
EndChar

StartChar: eight
Encoding: 56 56 24
Width: 879
Flags: W
HStem: 1546 20G<514.568 588>
VStem: 90 171<183.41 595.072> 118 170<836.606 1190.48> 588 171<995.508 1352.25> 621 171<389.578 796.927>
LayerCount: 2
Fore
SplineSet
700 915 m 1,0,1
 792 823 792 823 792 696 c 2,2,-1
 792 507 l 2,3,4
 792 336 792 336 669 242 c 2,5,-1
 310 -29 l 1,6,7
 208 33 208 33 167 85 c 0,8,9
 90 181 90 181 90 286 c 2,10,-1
 90 475 l 2,11,12
 90 637 90 637 199 729 c 1,13,14
 118 820 118 820 118 938 c 2,15,-1
 118 1074 l 2,16,17
 118 1243 118 1243 241 1339 c 1,18,-1
 541 1566 l 1,19,20
 635 1502 635 1502 676 1453 c 0,21,22
 759 1353 759 1353 759 1250 c 2,23,-1
 759 1114 l 2,24,25
 759 995 759 995 700 915 c 1,0,1
621 696 m 2,26,27
 621 755 621 755 576 800 c 1,28,-1
 314 602 l 1,29,30
 261 564 261 564 261 475 c 2,31,-1
 261 286 l 2,32,33
 261 227 261 227 306 182 c 1,34,-1
 568 379 l 2,35,36
 621 419 621 419 621 507 c 2,37,-1
 621 696 l 2,26,27
588 1250 m 2,38,39
 588 1310 588 1310 542 1354 c 1,40,-1
 342 1202 l 2,41,42
 288 1161 288 1161 288 1074 c 2,43,-1
 288 938 l 2,44,45
 288 880 288 880 334 834 c 1,46,-1
 534 987 l 2,47,48
 588 1028 588 1028 588 1114 c 2,49,-1
 588 1250 l 2,38,39
EndSplineSet
EndChar

StartChar: nine
Encoding: 57 57 25
Width: 813
Flags: W
HStem: -352 21G<273.725 387> 1210 20G<480.909 555> 1210 20G<480.909 555>
VStem: 87 171<326.522 863.828> 555 170<75.0361 294 475.57 1014.58>
LayerCount: 2
Fore
SplineSet
306 108 m 1,0,1
 87 246 87 246 87 423 c 2,2,-1
 87 745 l 2,3,4
 87 919 87 919 210 1010 c 2,5,-1
 508 1230 l 1,6,7
 602 1167 602 1167 642 1118 c 0,8,9
 725 1019 725 1019 725 915 c 2,10,-1
 725 223 l 2,11,12
 725 64 725 64 607 -90 c 0,13,14
 489 -245 489 -245 285 -352 c 1,15,-1
 201 -203 l 1,16,17
 362 -118 362 -118 460 0 c 0,18,19
 555 115 555 115 555 223 c 2,20,-1
 555 294 l 1,21,-1
 306 108 l 1,0,1
500 466 m 2,22,23
 555 508 555 508 555 582 c 2,24,-1
 555 915 l 2,25,26
 555 972 555 972 508 1019 c 1,27,-1
 312 872 l 2,28,29
 258 831 258 831 258 745 c 2,30,-1
 258 423 l 2,31,32
 258 367 258 367 306 319 c 1,33,-1
 500 466 l 2,22,23
EndSplineSet
EndChar

StartChar: colon
Encoding: 58 58 26
Width: 496
Flags: W
VStem: 97 296
LayerCount: 2
Fore
SplineSet
255 -27 m 1,0,-1
 97 25 l 1,1,-1
 216 308 l 1,2,-1
 393 236 l 1,3,-1
 255 -27 l 1,0,-1
254 642 m 1,4,-1
 96 694 l 1,5,-1
 215 977 l 1,6,-1
 392 905 l 1,7,-1
 254 642 l 1,4,-1
EndSplineSet
EndChar

StartChar: semicolon
Encoding: 59 59 27
Width: 491
Flags: W
HStem: 157 164<121 182.885>
VStem: 203 153<-43.1575 142.903>
LayerCount: 2
Fore
SplineSet
267 642 m 1,0,-1
 109 694 l 1,1,-1
 227 977 l 1,2,-1
 404 905 l 1,3,-1
 267 642 l 1,0,-1
104 -136 m 1,4,5
 203 20 203 20 203 86 c 0,6,7
 203 115 203 115 183.5 136 c 128,-1,8
 164 157 164 157 121 157 c 1,9,-1
 121 321 l 1,10,11
 297 320 297 320 342 190 c 0,12,13
 356 150 356 150 356 94 c 0,14,15
 356 -27 356 -27 238 -212 c 1,16,-1
 104 -136 l 1,4,5
EndSplineSet
EndChar

StartChar: less
Encoding: 60 60 28
Width: 849
Flags: W
LayerCount: 2
Fore
SplineSet
648 -251 m 1,0,-1
 45 663 l 1,1,-1
 651 1558 l 1,2,-1
 794 1464 l 1,3,-1
 249 662 l 1,4,-1
 790 -158 l 1,5,-1
 648 -251 l 1,0,-1
EndSplineSet
EndChar

StartChar: equal
Encoding: 61 61 29
Width: 1128
Flags: W
HStem: 447 160<115 1013> 740 160<115 1013>
LayerCount: 2
Fore
SplineSet
115 447 m 1,0,-1
 115 607 l 1,1,-1
 1013 607 l 1,2,-1
 1013 447 l 1,3,-1
 115 447 l 1,0,-1
115 740 m 1,4,-1
 115 900 l 1,5,-1
 1013 900 l 1,6,-1
 1013 740 l 1,7,-1
 115 740 l 1,4,-1
EndSplineSet
EndChar

StartChar: greater
Encoding: 62 62 30
Width: 850
Flags: W
LayerCount: 2
Fore
SplineSet
58 -159 m 1,0,1
 358 296 l 1,2,-1
 358 295 l 1,3,-1
 601 662 l 1,4,-1
 56 1464 l 1,5,-1
 199 1558 l 1,6,-1
 805 663 l 1,7,-1
 200 -252 l 1,8,-1
 58 -159 l 1,0,1
EndSplineSet
EndChar

StartChar: question
Encoding: 63 63 31
Width: 886
Flags: W
HStem: 383 169<366.577 531.618> 985 170<247.562 332> 1396 171<294.271 577.167>
VStem: 64 171<1164.89 1340.51> 174 171<573.108 751.298> 565 166<577.251 662> 647 170<1104.93 1327.28>
LayerCount: 2
Fore
SplineSet
520 -68 m 1,0,-1
 349 -57 l 1,1,-1
 379 336 l 1,2,-1
 550 325 l 1,3,-1
 520 -68 l 1,0,-1
235 1245 m 0,4,5
 235 1155 235 1155 332 1155 c 1,6,-1
 332 985 l 1,7,8
 148 986 148 986 85 1130 c 0,9,10
 64 1178 64 1178 64 1242 c 128,-1,11
 64 1306 64 1306 91.5 1364.5 c 0,12,13
 118 1423 118 1423 168 1468 c 0,14,15
 277 1567 277 1567 440 1567 c 256,16,17
 605 1567 605 1567 712 1464 c 0,18,19
 817 1363 817 1363 817 1214 c 0,20,21
 817 1022 817 1022 632 902 c 0,22,23
 580 868 580 868 536 844 c 2,24,-1
 459 801 l 1,25,26
 387 760 387 760 366 726 c 128,-1,27
 345 692 345 692 345 665.5 c 128,-1,28
 345 639 345 639 353.5 619 c 128,-1,29
 362 599 362 599 377 584 c 0,30,31
 409 552 409 552 455 552 c 256,32,33
 500 552 500 552 524 576 c 0,34,35
 564 616 564 616 565 662 c 1,36,-1
 731 662 l 1,37,38
 731 547 731 547 649 465 c 128,-1,39
 567 383 567 383 452 383 c 256,40,41
 337 383 337 383 255.5 464.5 c 128,-1,42
 174 546 174 546 174 661 c 0,43,44
 174 828 174 828 348 934 c 0,45,46
 396 964 396 964 440 986.5 c 128,-1,47
 484 1009 484 1009 520 1032.5 c 128,-1,48
 556 1056 556 1056 584 1084 c 0,49,50
 647 1146 647 1146 647 1214 c 0,51,52
 647 1288 647 1288 590 1341 c 0,53,54
 531 1396 531 1396 440 1396 c 256,55,56
 350 1396 350 1396 290 1349 c 0,57,58
 234 1305 234 1305 235 1245 c 0,4,5
EndSplineSet
EndChar

StartChar: at
Encoding: 64 64 32
Width: 1558
Flags: W
HStem: 71 170<560.006 981.784> 1322 167<565.974 872.938>
VStem: 70 169<564.478 997.026> 449 170<531.451 925.562> 845 170<675 1078> 1320 168<565.588 994.289>
LayerCount: 2
Fore
SplineSet
1029 117 m 1,0,1
 906 71 906 71 793.5 71 c 128,-1,2
 681 71 681 71 590.5 96.5 c 128,-1,3
 500 122 500 122 421.5 168 c 128,-1,4
 343 214 343 214 278 279 c 128,-1,5
 213 344 213 344 167 422 c 0,6,7
 70 588 70 588 70 780 c 256,8,9
 70 972 70 972 167 1138 c 0,10,11
 312 1386 312 1386 590 1464 c 0,12,13
 680 1490 680 1490 779 1489 c 256,14,15
 970 1489 970 1489 1136 1392 c 0,16,17
 1384 1246 1384 1246 1462 968 c 0,18,19
 1488 878 1488 878 1488 790 c 128,-1,20
 1488 702 1488 702 1471.5 629 c 128,-1,21
 1455 556 1455 556 1425 489 c 0,22,23
 1366 358 1366 358 1256 256 c 1,24,25
 1123 283 1123 283 1062 322 c 128,-1,26
 1001 361 1001 361 963.5 400 c 128,-1,27
 926 439 926 439 892 494 c 1,28,-1
 690 343 l 1,29,30
 529 372 529 372 470 489 c 0,31,32
 449 531 449 531 449 587 c 2,33,-1
 449 787 l 2,34,35
 449 989 449 989 596 1099 c 1,36,-1
 878 1313 l 1,37,38
 830 1322 830 1322 748.5 1322 c 128,-1,39
 667 1322 667 1322 569 1279.5 c 0,40,41
 472 1238 472 1238 398 1164 c 0,42,43
 240 1006 240 1006 239 781 c 256,44,45
 239 558 239 558 397.5 399.5 c 128,-1,46
 556 241 556 241 779 241 c 0,47,48
 877 241 877 241 968 275 c 1,49,-1
 1029 117 l 1,0,1
1203 446 m 1,50,51
 1320 593 1320 593 1320 781 c 0,52,53
 1320 938 1320 938 1235 1072 c 0,54,55
 1154 1200 1154 1200 1015 1268 c 1,56,-1
 1015 714 l 2,57,58
 1016 537 1016 537 1136 472 c 0,59,60
 1170 454 1170 454 1203 446 c 1,50,51
619 587 m 2,61,62
 619 548 619 548 651 530 c 1,63,-1
 845 675 l 1,64,-1
 845 1078 l 1,65,-1
 705 969 l 2,66,67
 619 902 619 902 619 787 c 2,68,-1
 619 587 l 2,61,62
EndSplineSet
EndChar

StartChar: A
Encoding: 65 65 33
Width: 1554
Flags: W
HStem: 566 170<319.984 409.652> 1393 174<366.182 747.716 1332.97 1480>
VStem: 141 170<745.321 834.377 1162.79 1340.68> 419 170<751.986 827.498> 874 168.5<937.069 1283.61> 1073 170<266.481 496 697 1293.93>
LayerCount: 2
Fore
SplineSet
552 1393 m 0,0,1
 322 1393 322 1393 322 1259 c 0,2,3
 322 1191 322 1191 392 1118 c 0,4,5
 422 1087 422 1087 456 1055.5 c 128,-1,6
 490 1024 490 1024 520 986 c 0,7,8
 590 896 590 896 589 792 c 0,9,10
 589 697 589 697 523.5 631.5 c 128,-1,11
 458 566 458 566 363 566 c 0,12,13
 270 566 270 566 206 632 c 0,14,15
 141 698 141 698 141 792 c 0,16,17
 141 902 141 902 230 970 c 0,18,19
 257 990 257 990 290 1002 c 1,20,21
 222 1052 222 1052 197 1089 c 0,22,23
 147 1163 147 1163 147 1244.5 c 128,-1,24
 147 1326 147 1326 170 1382.5 c 0,25,26
 194 1439 194 1439 242 1480 c 0,27,28
 345 1567 345 1567 552 1567 c 0,29,30
 886 1566 886 1566 1002 1340 c 0,31,32
 1042 1260 1042 1260 1042.5 1168 c 128,-1,33
 1043 1076 1043 1076 1028 1010.5 c 128,-1,34
 1013 945 1013 945 988 884.5 c 128,-1,35
 963 824 963 824 931 768 c 1,36,-1
 866 659 l 1,37,-1
 928 596 l 1,38,-1
 1073 697 l 1,39,-1
 1073 1167 l 2,40,41
 1074 1341 1074 1341 1194 1456 c 0,42,43
 1310 1567 1310 1567 1480 1567 c 1,44,-1
 1480 1394 l 1,45,46
 1354 1394 1354 1394 1294 1306 c 0,47,48
 1242 1230 1242 1230 1243 1101 c 2,49,-1
 1243 398 l 2,50,51
 1242 279 1242 279 1374 176 c 0,52,53
 1414 145 1414 145 1460 114 c 1,54,-1
 1360 -30 l 1,55,56
 1220 65 1220 65 1170 130 c 0,57,58
 1073 255 1073 255 1073 393 c 2,59,-1
 1073 496 l 1,60,-1
 915 380 l 1,61,-1
 763 519 l 1,62,63
 568 274 568 274 334 76 c 0,64,65
 260 14 260 14 196 -30 c 1,66,-1
 68 89 l 1,67,68
 384 316 384 316 610 588 c 0,69,70
 874 906 874 906 874 1143 c 0,71,72
 874 1316 874 1316 692 1374 c 0,73,74
 632 1394 632 1394 552 1393 c 0,0,1
326.5 828 m 128,-1,76
 311 812 311 812 311 789.5 c 128,-1,77
 311 767 311 767 326.5 751.5 c 128,-1,78
 342 736 342 736 364.5 736 c 128,-1,79
 387 736 387 736 403 751.5 c 128,-1,80
 419 767 419 767 419 789.5 c 128,-1,81
 419 812 419 812 403 828 c 128,-1,82
 387 844 387 844 364.5 844 c 128,-1,75
 342 844 342 844 326.5 828 c 128,-1,76
EndSplineSet
EndChar

StartChar: B
Encoding: 66 66 34
Width: 1719
Flags: W
HStem: 0 172<257.118 346.338 908.533 1226.33> 280 187<263.986 339.498> 566 170<344.984 434.652> 1393 174<386.394 633.509 1005.44 1135.38>
VStem: 80 168<181.388 270.743> 166 170<745.321 834.377 1162.13 1346.94> 356 171<180.403 271.171> 444 170<745.09 835.312> 776 174<1009.07 1223.01> 1399 174<341.943 691.255> 1492 170<1240.52 1317.54>
LayerCount: 2
Fore
SplineSet
513 296 m 1,0,1
 527 263 527 263 527 219.5 c 128,-1,2
 527 176 527 176 509.5 135.5 c 128,-1,3
 492 95 492 95 462 65 c 0,4,5
 396 0 396 0 303 0 c 128,-1,6
 210 0 210 0 145 65 c 128,-1,7
 80 130 80 130 80 212.5 c 128,-1,8
 80 295 80 295 111 342.5 c 128,-1,9
 142 390 142 390 196 418 c 0,10,11
 293 468 293 468 480 467 c 1,12,13
 618 558 618 558 698 712 c 0,14,15
 776 862 776 862 776 1030 c 0,16,17
 776 1166 776 1166 700 1276 c 0,18,19
 620 1392 620 1392 513 1393 c 0,20,21
 430 1393 430 1393 388.5 1355.5 c 128,-1,22
 347 1318 347 1318 347 1267 c 128,-1,23
 347 1216 347 1216 367 1182.5 c 128,-1,24
 387 1149 387 1149 416.5 1118 c 128,-1,25
 446 1087 446 1087 480.5 1055.5 c 0,26,27
 514 1024 514 1024 544 986 c 0,28,29
 614 896 614 896 614 792 c 0,30,31
 614 697 614 697 548.5 631.5 c 128,-1,32
 483 566 483 566 388 566 c 0,33,34
 295 566 295 566 231 632 c 0,35,36
 166 698 166 698 166 792 c 0,37,38
 166 902 166 902 255 970 c 0,39,40
 282 990 282 990 315 1002 c 1,41,42
 247 1052 247 1052 222 1089 c 0,43,44
 172 1163 172 1163 172 1244.5 c 128,-1,45
 172 1326 172 1326 194 1382.5 c 128,-1,46
 216 1439 216 1439 258 1480 c 0,47,48
 348 1567 348 1567 513 1567 c 0,49,50
 610 1567 610 1567 691.5 1517 c 128,-1,51
 773 1467 773 1467 832 1386 c 1,52,53
 909 1567 909 1567 1089 1567 c 0,54,55
 1219 1568 1219 1568 1294 1426 c 0,56,57
 1316 1386 1316 1386 1330 1355 c 2,58,-1
 1354 1302 l 2,59,60
 1391 1226 1391 1226 1419 1226 c 0,61,62
 1444 1226 1444 1226 1457 1254 c 0,63,64
 1476 1295 1476 1295 1492 1356 c 1,65,-1
 1662 1314 l 1,66,67
 1620 1119 1620 1119 1496 1063 c 2,68,-1
 1335 990 l 1,69,70
 1573 781 1573 781 1573 514 c 0,71,72
 1573 305 1573 305 1439 159 c 0,73,74
 1293 0 1293 0 1047 0 c 0,75,76
 851 0 851 0 726 129 c 2,77,-1
 660 196 l 2,78,79
 581 276 581 276 513 296 c 1,0,1
1156 907 m 1,80,-1
 910 794 l 1,81,82
 858 640 858 640 713 492 c 0,83,84
 669 447 669 447 623 411 c 1,85,86
 664 396 664 396 722 351 c 2,87,-1
 816 278 l 2,88,89
 950 174 950 174 1043.5 174 c 128,-1,90
 1137 174 1137 174 1201.5 203 c 128,-1,91
 1266 232 1266 232 1310 280 c 0,92,93
 1399 376 1399 376 1399 514 c 0,94,95
 1399 642 1399 642 1312 758 c 0,96,97
 1251 840 1251 840 1156 907 c 1,80,-1
1072 1393 m 0,98,99
 1050 1393 1050 1393 1029 1375.5 c 128,-1,100
 1008 1358 1008 1358 994 1328.5 c 128,-1,101
 980 1299 980 1299 971.5 1260 c 0,102,103
 963 1222 963 1222 958 1178 c 0,104,105
 950 1108 950 1108 950 1005 c 1,106,-1
 1246 1142 l 1,107,108
 1223 1171 1223 1171 1208 1204 c 2,109,-1
 1154 1316 l 2,110,111
 1118 1393 1118 1393 1072 1393 c 0,98,99
263.5 264 m 128,-1,113
 248 248 248 248 248 225.5 c 128,-1,114
 248 203 248 203 263.5 187.5 c 128,-1,115
 279 172 279 172 301.5 172 c 128,-1,116
 324 172 324 172 340 187.5 c 128,-1,117
 356 203 356 203 356 225.5 c 128,-1,118
 356 248 356 248 340 264 c 128,-1,119
 324 280 324 280 301.5 280 c 128,-1,112
 279 280 279 280 263.5 264 c 128,-1,113
351.5 828 m 128,-1,121
 336 812 336 812 336 789.5 c 128,-1,122
 336 767 336 767 351.5 751.5 c 128,-1,123
 367 736 367 736 389.5 736 c 128,-1,124
 412 736 412 736 428 751.5 c 128,-1,125
 444 767 444 767 444 789.5 c 128,-1,126
 444 812 444 812 428 828 c 128,-1,127
 412 844 412 844 389.5 844 c 128,-1,120
 367 844 367 844 351.5 828 c 128,-1,121
EndSplineSet
EndChar

StartChar: C
Encoding: 67 67 35
Width: 1566
Flags: W
HStem: 0 175<567.183 1020.71> 383 174<700.102 876> 1138 175<1124.91 1279.06> 1392 175<599.543 888.271>
VStem: 91 175<490.066 1013.08> 466 175<613.126 827.332> 1331 171<1372.41 1461.77>
LayerCount: 2
Fore
SplineSet
1204 1138 m 0,0,1
 1112 1138 1112 1138 1055 1213 c 1,2,3
 1042 1114 1042 1114 934 1026 c 0,4,5
 888 988 888 988 836.5 954.5 c 0,6,7
 786 921 786 921 742 885 c 0,8,9
 642 802 642 802 641 711 c 0,10,11
 641 610 641 610 765 571 c 0,12,13
 810 557 810 557 876 557 c 1,14,-1
 876 383 l 1,15,16
 664 383 664 383 556 489 c 0,17,18
 466 577 466 577 466 711 c 0,19,20
 466 875 466 875 600 994 c 0,21,22
 638 1028 638 1028 678 1058 c 2,23,-1
 756 1114 l 1,24,25
 890 1207 890 1207 891 1291 c 2,26,-1
 891 1383 l 1,27,28
 865 1388 865 1388 834 1390 c 2,29,-1
 781 1392 l 1,30,31
 580 1386 580 1386 430 1218 c 0,32,33
 329 1106 329 1106 287 938 c 0,34,35
 266 854 266 854 266 738.5 c 128,-1,36
 266 623 266 623 301.5 515 c 0,37,38
 337 408 337 408 405 332 c 0,39,40
 546 176 546 176 803 175 c 0,41,42
 1066 174 1066 174 1244 392 c 0,43,44
 1309 471 1309 471 1339 548 c 1,45,-1
 1501 484 l 1,46,47
 1434 316 1434 316 1278 178 c 0,48,49
 1076 0 1076 0 803 0 c 0,50,51
 444 0 444 0 257 224 c 0,52,53
 91 424 91 424 91 758 c 0,54,55
 91 1123 91 1123 303 1351 c 0,56,57
 504 1567 504 1567 781 1567 c 0,58,59
 898 1567 898 1567 1004 1526 c 0,60,61
 1042 1511 1042 1511 1069 1489 c 1,62,63
 1113 1313 1113 1313 1202.5 1313 c 128,-1,64
 1292 1313 1292 1313 1331 1492 c 1,65,-1
 1502 1459 l 1,66,67
 1448 1210 1448 1210 1296 1154 c 0,68,69
 1250 1138 1250 1138 1204 1138 c 0,0,1
EndSplineSet
EndChar

StartChar: D
Encoding: 68 68 36
Width: 1724
Flags: W
HStem: 0 172<293.618 384.169 945.784 1235.4> 280 192.5<300.986 376.498> 511 169<639.618 730.081> 788 780<543 828>
VStem: 89 175<991.153 1236.16> 116 169<180.936 270.898> 393 170<180.916 271.286> 462 169<688.952 778.78> 739 170<689.461 777.759> 1471 174<451.516 895.375>
LayerCount: 2
Fore
SplineSet
542 317 m 1,0,1
 563 273 563 273 563 224.5 c 128,-1,2
 563 176 563 176 545.5 135.5 c 128,-1,3
 528 95 528 95 498 65 c 0,4,5
 432 0 432 0 339 0 c 128,-1,6
 246 0 246 0 181 65 c 128,-1,7
 116 130 116 130 116 207 c 128,-1,8
 116 284 116 284 144 330.5 c 0,9,10
 172 376 172 376 218 408 c 0,11,12
 311 472 311 472 416 472.5 c 128,-1,13
 521 473 521 473 585.5 451 c 128,-1,14
 650 429 650 429 703.5 396 c 128,-1,15
 757 363 757 363 802.5 324 c 128,-1,16
 848 285 848 285 892 252 c 0,17,18
 995 175 995 175 1081.5 175 c 128,-1,19
 1168 175 1168 175 1239.5 217.5 c 0,20,21
 1310 260 1310 260 1362 331 c 0,22,23
 1470 481 1470 481 1471 688 c 0,24,25
 1470 901 1470 901 1296 1103 c 0,26,27
 1188 1230 1188 1230 1034 1310 c 0,28,29
 958 1350 958 1350 876 1371 c 1,30,-1
 588 1095 l 1,31,32
 622 1045 622 1045 686 1004 c 2,33,-1
 785 942 l 2,34,35
 909 862 909 862 909 734 c 0,36,37
 908 639 908 639 842 574 c 0,38,39
 778 511 778 511 685 511 c 128,-1,40
 592 511 592 511 527 576 c 128,-1,41
 462 641 462 641 462 741 c 128,-1,42
 462 841 462 841 544 908 c 1,43,44
 466 958 466 958 438 993 c 0,45,46
 385 1060 385 1060 385 1141 c 1,47,-1
 645 1391 l 1,48,49
 470 1377 470 1377 365 1294 c 0,50,51
 264 1214 264 1214 264 1101 c 0,52,53
 264 1053 264 1053 292.5 1011 c 128,-1,54
 321 969 321 969 381 947 c 1,55,-1
 381 762 l 1,56,57
 238 791 238 791 157 902 c 0,58,59
 89 995 89 995 89 1096.5 c 128,-1,60
 89 1198 89 1198 131.5 1284 c 128,-1,61
 174 1370 174 1370 254 1433 c 0,62,63
 424 1568 424 1568 702 1568 c 0,64,65
 949 1568 949 1568 1176 1432 c 0,66,67
 1385 1307 1385 1307 1515 1101.5 c 128,-1,68
 1645 896 1645 896 1645 688 c 0,69,70
 1646 406 1646 406 1488 208 c 0,71,72
 1323 1 1323 1 1070 1 c 0,73,74
 907 2 907 2 766 130 c 1,75,-1
 690 200 l 1,76,77
 596 289 596 289 542 317 c 1,0,1
646.5 772 m 128,-1,79
 631 756 631 756 631 733.5 c 128,-1,80
 631 711 631 711 646.5 695.5 c 128,-1,81
 662 680 662 680 684.5 680 c 128,-1,82
 707 680 707 680 723 695.5 c 128,-1,83
 739 711 739 711 739 733.5 c 128,-1,84
 739 756 739 756 723 772 c 128,-1,85
 707 788 707 788 684.5 788 c 128,-1,78
 662 788 662 788 646.5 772 c 128,-1,79
300.5 264 m 128,-1,87
 285 248 285 248 285 225.5 c 128,-1,88
 285 203 285 203 300.5 187.5 c 128,-1,89
 316 172 316 172 338.5 172 c 128,-1,90
 361 172 361 172 377 187.5 c 128,-1,91
 393 203 393 203 393 225.5 c 128,-1,92
 393 248 393 248 377 264 c 128,-1,93
 361 280 361 280 338.5 280 c 128,-1,86
 316 280 316 280 300.5 264 c 128,-1,87
EndSplineSet
EndChar

StartChar: E
Encoding: 69 69 37
Width: 1530
Flags: W
HStem: -1 174<570.163 979.39> 299 173<678.558 875.599> 843 288<1262.4 1383.22> 907 174<1072.83 1212.62> 1139 175<933.807 1096.29> 1393 174<426.365 574.724>
VStem: 97 175<502.452 1141.7> 473 172<507.139 694.826 1049.62 1195.8> 912 174<506.148 715.639> 1144 174<1364.04 1537> 1262 170<1024.01 1131>
LayerCount: 2
Fore
SplineSet
1038 785 m 1,0,1
 1086 706 1086 706 1086 624 c 128,-1,2
 1086 542 1086 542 1062 486 c 128,-1,3
 1038 430 1038 430 996 388 c 0,4,5
 905 298 905 298 779 299 c 256,6,7
 652 299 652 299 562.5 388.5 c 128,-1,8
 473 478 473 478 473 605 c 0,9,10
 473 698 473 698 525 775 c 1,11,-1
 663 673 l 1,12,13
 645 643 645 643 645 610 c 128,-1,14
 645 577 645 577 655.5 553 c 128,-1,15
 666 529 666 529 684 511 c 0,16,17
 723 472 723 472 778 472 c 256,18,19
 834 472 834 472 873 511 c 128,-1,20
 912 550 912 550 912 597.5 c 128,-1,21
 912 645 912 645 894 677.5 c 128,-1,22
 876 710 876 710 847 737 c 128,-1,23
 818 764 818 764 782 786 c 2,24,-1
 713 828 l 1,25,26
 600 890 600 890 559 932 c 0,27,28
 477 1016 477 1016 477 1118 c 0,29,30
 477 1216 477 1216 548 1298 c 0,31,32
 575 1330 575 1330 575 1354 c 0,33,34
 575 1393 575 1393 527.5 1393 c 128,-1,35
 480 1393 480 1393 434.5 1355.5 c 128,-1,36
 389 1318 389 1318 353 1242 c 0,37,38
 272 1070 272 1070 272 776 c 256,39,40
 272 482 272 482 429 318 c 0,41,42
 568 173 568 173 781 173 c 0,43,44
 972 172 972 172 1117 314 c 0,45,46
 1228 422 1228 422 1299 607 c 1,47,-1
 1461 543 l 1,48,49
 1378 321 1378 321 1226 177 c 0,50,51
 1040 -1 1040 -1 781 -1 c 0,52,53
 500 0 500 0 310 186 c 0,54,55
 98 395 98 395 97 776 c 0,56,57
 97 1153 97 1153 234 1373 c 0,58,59
 295 1471 295 1471 371.5 1519 c 128,-1,60
 448 1567 448 1567 526 1567 c 0,61,62
 643 1567 643 1567 703 1491 c 1,63,-1
 805 1617 l 1,64,65
 869 1414 869 1414 950 1341 c 0,66,67
 980 1314 980 1314 1012 1314 c 128,-1,68
 1044 1314 1044 1314 1068 1330.5 c 0,69,70
 1092 1346 1092 1346 1109 1376 c 0,71,72
 1144 1437 1144 1437 1144 1537 c 1,73,-1
 1318 1537 l 1,74,75
 1318 1360 1318 1360 1238 1252 c 0,76,77
 1154 1139 1154 1139 1003 1139 c 128,-1,78
 852 1139 852 1139 754 1275 c 1,79,-1
 682 1187 l 2,80,81
 652 1149 652 1149 652 1123 c 128,-1,82
 652 1097 652 1097 664 1078.5 c 128,-1,83
 676 1060 676 1060 696.5 1043.5 c 0,84,85
 717 1028 717 1028 743 1012 c 2,86,-1
 850 951 l 2,87,88
 876 936 876 936 902 918 c 1,89,90
 938 995 938 995 974 1026 c 0,91,92
 1039 1081 1039 1081 1119 1081 c 0,93,94
 1194 1081 1194 1081 1262 1024 c 1,95,-1
 1262 1131 l 1,96,-1
 1432 1131 l 1,97,98
 1432 993 1432 993 1413.5 943 c 128,-1,99
 1395 893 1395 893 1364.5 868 c 128,-1,100
 1334 843 1334 843 1290.5 843 c 128,-1,101
 1247 843 1247 843 1228 853 c 0,102,103
 1210 863 1210 863 1196 875 c 2,104,-1
 1170 897 l 2,105,106
 1158 907 1158 907 1139 907 c 128,-1,107
 1120 907 1120 907 1104.5 896.5 c 128,-1,108
 1089 886 1089 886 1077 869 c 0,109,110
 1058 842 1058 842 1038 785 c 1,0,1
EndSplineSet
EndChar

StartChar: F
Encoding: 70 70 38
Width: 1573
Flags: W
HStem: -219 173<571.592 904.832> 712 174<1061.82 1235.87> 1392 175<329.12 579.554 1255.99 1331.5>
VStem: 71 175<1055.32 1308.88> 212 170<568.33 658.782> 293 173<52.2099 304.216> 490 170<575.986 651.498> 664 174<1056.38 1164> 740 160<693.414 889.153> 1017 173<61.3149 325.531> 1071 169<1297.73 1388.2> 1348 170<1297.39 1387.23>
LayerCount: 2
Fore
SplineSet
293 194 m 0,0,1
 293 298 293 298 383 396 c 1,2,3
 266 424 266 424 225 539 c 0,4,5
 212 575 212 575 212 629 c 128,-1,6
 212 683 212 683 247 736.5 c 128,-1,7
 282 790 282 790 339 817 c 1,8,9
 220 853 220 853 146 954 c 0,10,11
 70 1056 70 1056 71 1183 c 0,12,13
 71 1342 71 1342 183.5 1454.5 c 128,-1,14
 296 1567 296 1567 455 1567 c 0,15,16
 602 1568 602 1568 780 1422 c 1,17,-1
 880 1344 l 1,18,19
 1005 1251 1005 1251 1102 1227 c 1,20,21
 1071 1280 1071 1280 1071 1334.5 c 128,-1,22
 1071 1389 1071 1389 1088.5 1430 c 0,23,24
 1106 1472 1106 1472 1136 1502 c 0,25,26
 1200 1568 1200 1568 1294 1567 c 0,27,28
 1387 1567 1387 1567 1452.5 1501.5 c 128,-1,29
 1518 1436 1518 1436 1518 1354 c 128,-1,30
 1518 1272 1518 1272 1484.5 1218 c 128,-1,31
 1451 1164 1451 1164 1397 1126 c 0,32,33
 1288 1050 1288 1050 1139 1051 c 2,34,-1
 1118 1051 l 2,35,36
 1108 1051 1108 1051 1099 1053 c 1,37,38
 966 962 966 962 916 828 c 0,39,40
 900 786 900 786 900 752 c 128,-1,41
 900 718 900 718 909 693 c 1,42,43
 993 886 993 886 1104 886 c 0,44,45
 1147 886 1147 886 1188 865.5 c 128,-1,46
 1229 845 1229 845 1250 833.5 c 128,-1,47
 1271 822 1271 822 1288 816 c 1,48,-1
 1192 922 l 1,49,-1
 1310 1048 l 1,50,-1
 1374 988 l 1,51,52
 1433 930 1433 930 1447 890.5 c 128,-1,53
 1461 851 1461 851 1461 814.5 c 128,-1,54
 1461 778 1461 778 1447.5 748.5 c 128,-1,55
 1434 719 1434 719 1412 699 c 0,56,57
 1367 658 1367 658 1316.5 658 c 128,-1,58
 1266 658 1266 658 1240 666.5 c 128,-1,59
 1214 675 1214 675 1194 685 c 2,60,-1
 1158 704 l 2,61,62
 1142 712 1142 712 1124.5 712 c 128,-1,63
 1107 712 1107 712 1089.5 699 c 128,-1,64
 1072 686 1072 686 1057 662 c 0,65,66
 1022 607 1022 607 1015 532 c 1,67,-1
 1086 453 l 1,68,69
 1155 373 1155 373 1172.5 315 c 128,-1,70
 1190 257 1190 257 1190 187.5 c 128,-1,71
 1190 118 1190 118 1160 40.5 c 128,-1,72
 1130 -37 1130 -37 1072 -95 c 0,73,74
 949 -219 949 -219 735 -219 c 0,75,76
 553 -220 553 -220 426 -110 c 0,77,78
 293 4 293 4 293 194 c 0,0,1
740 743 m 0,79,80
 740 959 740 959 923 1110 c 1,81,82
 901 1122 901 1122 880 1136 c 128,-1,83
 859 1150 859 1150 838 1164 c 1,84,85
 832 1034 832 1034 750 936 c 0,86,87
 669 839 669 839 545 809 c 1,88,89
 597 780 597 780 628.5 729.5 c 128,-1,90
 660 679 660 679 660 616 c 2,91,-1
 660 606 l 2,92,93
 660 484 660 484 558 366 c 0,94,95
 501 299 501 299 483.5 258.5 c 128,-1,96
 466 218 466 218 466 173.5 c 128,-1,97
 466 129 466 129 487.5 87.5 c 0,98,99
 510 46 510 46 546 16 c 0,100,101
 621 -46 621 -46 735 -46 c 0,102,103
 868 -46 868 -46 944 28 c 0,104,105
 1016 98 1016 98 1017 207 c 0,106,107
 1017 279 1017 279 945 360 c 0,108,109
 914 395 914 395 878.5 431.5 c 128,-1,110
 843 468 843 468 812 513 c 0,111,112
 740 618 740 618 740 743 c 0,79,80
246 1183 m 256,113,114
 246 1097 246 1097 307.5 1035.5 c 128,-1,115
 369 974 369 974 455 974 c 256,116,117
 541 974 541 974 602.5 1035.5 c 128,-1,118
 664 1097 664 1097 664 1183 c 256,119,120
 664 1269 664 1269 602.5 1330.5 c 128,-1,121
 541 1392 541 1392 455 1392 c 256,122,123
 369 1392 369 1392 307.5 1330.5 c 128,-1,124
 246 1269 246 1269 246 1183 c 256,113,114
397.5 652 m 128,-1,126
 382 636 382 636 382 613.5 c 128,-1,127
 382 591 382 591 397.5 575.5 c 128,-1,128
 413 560 413 560 435.5 560 c 128,-1,129
 458 560 458 560 474 575.5 c 128,-1,130
 490 591 490 591 490 613.5 c 128,-1,131
 490 636 490 636 474 652 c 128,-1,132
 458 668 458 668 435.5 668 c 128,-1,125
 413 668 413 668 397.5 652 c 128,-1,126
1255.5 1381 m 128,-1,134
 1240 1365 1240 1365 1240 1342.5 c 128,-1,135
 1240 1320 1240 1320 1255.5 1304.5 c 128,-1,136
 1271 1289 1271 1289 1293.5 1289 c 128,-1,137
 1316 1289 1316 1289 1332 1304.5 c 128,-1,138
 1348 1320 1348 1320 1348 1342.5 c 128,-1,139
 1348 1365 1348 1365 1332 1381 c 128,-1,140
 1316 1397 1316 1397 1293.5 1397 c 128,-1,133
 1271 1397 1271 1397 1255.5 1381 c 128,-1,134
EndSplineSet
EndChar

StartChar: G
Encoding: 71 71 39
Width: 1702
Flags: W
HStem: 0 174<620.16 1117.32> 281 170<901.986 977.498> 1393 174<538.443 761.075 1050 1199>
VStem: 89 174<530.996 1048.38> 684 175<1025.17 1283.64> 716 170<460.068 549.564> 929 174<1083 1283.23> 994 170<460.09 549.288> 1399 174<434.391 844.887>
LayerCount: 2
Fore
SplineSet
458 1503 m 0,0,1
 573 1567 573 1567 702.5 1567 c 128,-1,2
 832 1567 832 1567 919 1515 c 1,3,4
 1041 1567 1041 1567 1199 1567 c 1,5,-1
 1199 1393 l 1,6,7
 1093 1393 1093 1393 1047 1380 c 1,8,9
 1103 1266 1103 1266 1103 1083 c 1,10,-1
 929 1083 l 1,11,12
 929 1229 929 1229 902 1285 c 1,13,14
 859 1229 859 1229 859 1181.5 c 128,-1,15
 859 1134 859 1134 868 1104 c 128,-1,16
 877 1074 877 1074 892 1046 c 0,17,18
 906 1018 906 1018 926 991 c 2,19,-1
 967 937 l 1,20,-1
 1536 1380 l 1,21,-1
 1640 1241 l 1,22,-1
 1419 1069 l 1,23,24
 1573 879 1573 879 1573 632 c 0,25,26
 1573 360 1573 360 1390 184 c 0,27,28
 1198 0 1198 0 876 0 c 0,29,30
 488 0 488 0 277 241 c 0,31,32
 89 455 89 455 89 769 c 0,33,34
 89 1100 89 1100 261 1330 c 0,35,36
 343 1440 343 1440 458 1503 c 0,0,1
1070 800 m 1,37,38
 1161 649 1161 649 1164 507 c 1,39,40
 1164 412 1164 412 1098.5 346.5 c 128,-1,41
 1033 281 1033 281 938 281 c 0,42,43
 845 280 845 280 781 346 c 0,44,45
 716 412 716 412 716 507 c 0,46,47
 716 594 716 594 774.5 658 c 128,-1,48
 833 722 833 722 920 728 c 1,49,50
 884 775 884 775 842.5 821.5 c 0,51,52
 802 868 802 868 766 920 c 0,53,54
 684 1041 684 1041 684 1163 c 128,-1,55
 684 1285 684 1285 762 1389 c 1,56,57
 739 1393 739 1393 713 1393 c 0,58,59
 516 1393 516 1393 387 1207 c 0,60,61
 263 1028 263 1028 263 770 c 0,62,63
 264 534 264 534 410 364 c 0,64,65
 511 246 511 246 682 198 c 0,66,67
 769 174 769 174 884.5 174 c 128,-1,68
 1000 174 1000 174 1097.5 210.5 c 0,69,70
 1195 248 1195 248 1262 310 c 0,71,72
 1399 438 1399 438 1399 632 c 0,73,74
 1399 821 1399 821 1281 965 c 1,75,-1
 1070 800 l 1,37,38
901.5 543 m 128,-1,77
 886 527 886 527 886 504.5 c 128,-1,78
 886 482 886 482 901.5 466.5 c 128,-1,79
 917 451 917 451 939.5 451 c 128,-1,80
 962 451 962 451 978 466.5 c 128,-1,81
 994 482 994 482 994 504.5 c 128,-1,82
 994 527 994 527 978 543 c 128,-1,83
 962 559 962 559 939.5 559 c 128,-1,76
 917 559 917 559 901.5 543 c 128,-1,77
EndSplineSet
EndChar

StartChar: H
Encoding: 72 72 40
Width: 1433
Flags: W
HStem: -301 166<383.252 469> 92 278<388.629 550.156> 1548 20G<1019.5 1090.97>
VStem: 34 178<450.484 578> 190 169<-93.2449 62.2731> 202 175<1105.89 1323.41> 628 173<446.999 710.739> 811 175<1201.78 1356.24> 1181 174<388.359 774.984>
LayerCount: 2
Fore
SplineSet
1128 1399 m 1,0,1
 1068 1382 l 2,2,3
 1014 1367 1014 1367 1000 1346 c 128,-1,4
 986 1325 986 1325 986 1303.5 c 128,-1,5
 986 1282 986 1282 995.5 1260.5 c 128,-1,6
 1005 1239 1005 1239 1020.5 1216 c 128,-1,7
 1036 1193 1036 1193 1056 1169 c 2,8,9
 1186 1020 l 1,10,11
 1354 822 1354 822 1355 585 c 0,12,13
 1356 349 1356 349 1214 196 c 0,14,15
 1091 63 1091 63 859 -5 c 1,16,17
 688 76 688 76 591 88 c 0,18,19
 553 92 553 92 511.5 92 c 128,-1,20
 470 92 470 92 442 82.5 c 0,21,22
 414 72 414 72 396 56 c 0,23,24
 360 23 360 23 359 -25 c 256,25,26
 358 -70 358 -70 382 -94 c 0,27,28
 422 -134 422 -134 469 -135 c 1,29,-1
 469 -301 l 1,30,31
 354 -301 354 -301 272 -219 c 128,-1,32
 190 -137 190 -137 190 -22 c 0,33,34
 190 51 190 51 223.5 111.5 c 128,-1,35
 257 172 257 172 314 210 c 1,36,37
 193 242 193 242 113.5 344.5 c 128,-1,38
 34 447 34 447 34 578 c 1,39,-1
 212 578 l 1,40,41
 212 492 212 492 273 431 c 128,-1,42
 334 370 334 370 420 370 c 0,43,44
 504 370 504 370 566 428 c 0,45,46
 628 487 628 487 628 569 c 0,47,48
 628 694 628 694 504 800 c 0,49,50
 470 830 470 830 430 861 c 128,-1,51
 390 892 390 892 348 928 c 128,-1,52
 306 964 306 964 274 1007 c 0,53,54
 202 1102 202 1102 202 1226 c 0,55,56
 202 1442 202 1442 507 1574 c 1,57,-1
 579 1423 l 1,58,59
 467 1367 467 1367 436 1339 c 0,60,61
 377 1286 377 1286 377 1237.5 c 128,-1,62
 377 1189 377 1189 391 1157.5 c 0,63,64
 404 1126 404 1126 428 1098 c 0,65,66
 464 1055 464 1055 521 1010 c 2,67,-1
 618 932 l 2,68,69
 658 898 658 898 688 867 c 1,70,-1
 925 1050 l 1,71,-1
 881 1108 l 1,72,73
 811 1203 811 1203 811 1306.5 c 128,-1,74
 811 1410 811 1410 882 1472 c 128,-1,75
 953 1534 953 1534 1086 1568 c 1,76,-1
 1128 1399 l 1,0,1
779 716 m 1,77,78
 802 642 802 642 801 558.5 c 128,-1,79
 800 475 800 475 753.5 392.5 c 128,-1,80
 707 310 707 310 629 259 c 1,81,82
 735 245 735 245 869 180 c 1,83,84
 1181 287 1181 287 1181 585 c 0,85,86
 1181 755 1181 755 1046 921 c 1,87,-1
 779 716 l 1,77,78
EndSplineSet
EndChar

StartChar: I
Encoding: 73 73 41
Width: 1643
Flags: W
HStem: -1 176<285.955 323 1073.49 1282.64> 315 174<294.934 586.143> 591 175<1153 1283.22> 800 174<358 536> 1051 238<1122.75 1374.45> 1393 174<362.457 617.25 1292.99 1368.5>
VStem: 96 174.5<185.987 288.048 1054 1301.06> 945 174<262.674 532.208> 1108 169<1297.73 1388.2> 1364 173<254.841 508.96> 1385 170<1297.39 1387.23>
LayerCount: 2
Fore
SplineSet
1312.5 1070 m 128,-1,1
 1245 1051 1245 1051 1163.5 1051 c 128,-1,2
 1082 1051 1082 1051 985 1092 c 1,3,-1
 828 968 l 1,4,5
 851 916 851 916 882 870 c 2,6,-1
 1009 686 l 1,7,8
 1119 521 1119 521 1119 356 c 0,9,10
 1119 258 1119 258 1072 180 c 1,11,12
 1085 176 1085 176 1105 175 c 2,13,-1
 1136 174 l 2,14,15
 1148 174 1148 174 1173 173.5 c 128,-1,16
 1198 173 1198 173 1236 189.5 c 128,-1,17
 1274 206 1274 206 1302 234 c 0,18,19
 1364 296 1364 296 1364 382 c 256,20,21
 1364 468 1364 468 1302 530 c 128,-1,22
 1240 592 1240 592 1153 591 c 1,23,-1
 1153 766 l 1,24,25
 1312 766 1312 766 1424.5 653.5 c 128,-1,26
 1537 541 1537 541 1537 382 c 0,27,28
 1536 222 1536 222 1424 111 c 0,29,30
 1311 -1 1311 -1 1153 -1 c 0,31,32
 958 -1 958 -1 756 157 c 0,33,34
 632 254 632 254 558 284.5 c 128,-1,35
 484 315 484 315 430 315 c 128,-1,36
 376 315 376 315 348.5 305 c 0,37,38
 322 294 322 294 304 280 c 0,39,40
 272 253 272 253 271.5 227 c 128,-1,41
 271 201 271 201 285.5 185.5 c 128,-1,42
 300 170 300 170 323 170 c 1,43,-1
 323 0 l 1,44,45
 230 0 230 0 166 66 c 0,46,47
 101 132 101 132 101 226 c 0,48,49
 100 330 100 330 176 404 c 0,50,51
 264 490 264 490 415 489 c 0,52,53
 621 488 621 488 812 340 c 1,54,-1
 917 261 l 1,55,56
 945 304 945 304 945 365.5 c 128,-1,57
 945 427 945 427 923 482.5 c 128,-1,58
 901 538 901 538 868 587 c 128,-1,59
 835 636 835 636 796 682 c 128,-1,60
 757 728 757 728 724 781 c 0,61,62
 647 905 647 905 647 1047 c 1,63,-1
 824 1187 l 1,64,65
 792 1210 792 1210 752.5 1245 c 0,66,67
 714 1280 714 1280 670 1313 c 0,68,69
 565 1393 565 1393 503 1393 c 128,-1,70
 441 1393 441 1393 400 1372.5 c 0,71,72
 358 1352 358 1352 330 1320 c 0,73,74
 270 1254 270 1254 270.5 1191 c 128,-1,75
 271 1128 271 1128 290.5 1090 c 128,-1,76
 310 1052 310 1052 346 1026 c 0,77,78
 417 974 417 974 536 974 c 1,79,-1
 536 800 l 1,80,81
 338 800 338 800 220 896 c 0,82,83
 96 997 96 997 96 1178 c 0,84,85
 96 1319 96 1319 204 1437 c 0,86,87
 322 1567 322 1567 492 1567 c 0,88,89
 656 1568 656 1568 836 1408 c 0,90,91
 950 1307 950 1307 1015.5 1270.5 c 128,-1,92
 1081 1234 1081 1234 1139 1227 c 1,93,94
 1108 1280 1108 1280 1108 1334.5 c 128,-1,95
 1108 1389 1108 1389 1125.5 1430 c 0,96,97
 1143 1472 1143 1472 1173 1502 c 0,98,99
 1237 1568 1237 1568 1331 1567 c 0,100,101
 1424 1567 1424 1567 1489.5 1501.5 c 128,-1,102
 1555 1436 1555 1436 1555 1354 c 128,-1,103
 1555 1272 1555 1272 1521.5 1218 c 128,-1,104
 1488 1164 1488 1164 1434 1126.5 c 128,-1,0
 1380 1089 1380 1089 1312.5 1070 c 128,-1,1
1292.5 1381 m 128,-1,106
 1277 1365 1277 1365 1277 1342.5 c 128,-1,107
 1277 1320 1277 1320 1292.5 1304.5 c 128,-1,108
 1308 1289 1308 1289 1330.5 1289 c 128,-1,109
 1353 1289 1353 1289 1369 1304.5 c 128,-1,110
 1385 1320 1385 1320 1385 1342.5 c 128,-1,111
 1385 1365 1385 1365 1369 1381 c 128,-1,112
 1353 1397 1353 1397 1330.5 1397 c 128,-1,105
 1308 1397 1308 1397 1292.5 1381 c 128,-1,106
EndSplineSet
EndChar

StartChar: J
Encoding: 74 74 42
Width: 1688
Flags: W
HStem: -255 174<840.342 1107.87> 0 170<202.984 292.456> 278 184<202.749 393.5> 800 174<487.75 665> 1393 174<490.81 740.941 1421.99 1497.5>
VStem: 24 170<185.986 261.498> 225 175<1053.5 1301.06> 755 174<789.043 1053.61> 1170 175<-20.3578 266.022> 1215 174<851.102 1051.94> 1237 169<1297.73 1388.2> 1514 170<1297.43 1387.33>
LayerCount: 2
Fore
SplineSet
1125 802 m 1,0,1
 1215 888 1215 888 1215 950 c 0,2,3
 1214 1010 1214 1010 1172 1052 c 128,-1,4
 1130 1094 1130 1094 1071 1093 c 256,5,6
 1012 1093 1012 1093 970.5 1051.5 c 128,-1,7
 929 1010 929 1010 929 956 c 128,-1,8
 929 902 929 902 944.5 856.5 c 128,-1,9
 960 811 960 811 986 766.5 c 128,-1,10
 1012 722 1012 722 1045 679 c 2,11,-1
 1113 592 l 1,12,-1
 1112 592 l 1,13,-1
 1196 484 l 1,14,15
 1344 287 1344 287 1345 94 c 0,16,17
 1345 -52 1345 -52 1248 -149 c 0,18,19
 1142 -255 1142 -255 970 -255 c 0,20,21
 768 -256 768 -256 644 -94 c 0,22,23
 585 -17 585 -17 540.5 67 c 128,-1,24
 496 151 496 151 469 192 c 1,25,26
 456 108 456 108 394 54 c 0,27,28
 331 0 331 0 246 0 c 0,29,30
 153 0 153 0 89 66 c 0,31,32
 24 132 24 132 24 226 c 2,33,-1
 24 244 l 1,34,35
 30 335 30 335 101 396 c 0,36,37
 178 462 178 462 300 462 c 0,38,39
 487 462 487 462 603 290 c 0,40,41
 636 240 636 240 666 190 c 2,42,-1
 726 91 l 2,43,44
 830 -81 830 -81 973 -81 c 0,45,46
 1062 -82 1062 -82 1118 -28 c 0,47,48
 1170 21 1170 21 1170 85.5 c 128,-1,49
 1170 150 1170 150 1153 201 c 128,-1,50
 1136 252 1136 252 1108.5 300.5 c 128,-1,51
 1081 349 1081 349 1046 395 c 2,52,-1
 894 590 l 1,53,54
 807 705 807 705 781 792 c 128,-1,55
 755 879 755 879 755 959 c 128,-1,56
 755 1039 755 1039 795 1110 c 128,-1,57
 835 1181 835 1181 907 1223 c 1,58,-1
 841 1278 l 2,59,60
 705 1392 705 1392 621 1393 c 0,61,62
 526 1392 526 1392 460 1320 c 0,63,64
 400 1254 400 1254 400 1191 c 128,-1,65
 400 1128 400 1128 419.5 1090 c 0,66,67
 438 1052 438 1052 474 1026 c 0,68,69
 545 974 545 974 665 974 c 1,70,-1
 665 800 l 1,71,72
 468 800 468 800 350 896 c 0,73,74
 226 997 226 997 225 1178 c 0,75,76
 224 1319 224 1319 332 1437 c 0,77,78
 450 1567 450 1567 621 1567 c 0,79,80
 785 1568 785 1568 965 1408 c 0,81,82
 1079 1307 1079 1307 1144.5 1270.5 c 128,-1,83
 1210 1234 1210 1234 1268 1227 c 1,84,85
 1237 1280 1237 1280 1237 1334.5 c 128,-1,86
 1237 1389 1237 1389 1254.5 1430 c 0,87,88
 1272 1472 1272 1472 1302 1502 c 0,89,90
 1366 1568 1366 1568 1460 1567 c 0,91,92
 1553 1567 1553 1567 1618.5 1501.5 c 128,-1,93
 1684 1436 1684 1436 1684 1358.5 c 128,-1,94
 1684 1281 1684 1281 1657.5 1231 c 0,95,96
 1632 1181 1632 1181 1588 1145 c 0,97,98
 1500 1072 1500 1072 1371 1055 c 1,99,100
 1389 997 1389 997 1389 939 c 128,-1,101
 1389 881 1389 881 1350 810.5 c 128,-1,102
 1311 740 1311 740 1243 676 c 1,103,-1
 1125 802 l 1,0,1
209.5 262 m 128,-1,105
 194 246 194 246 194 223.5 c 128,-1,106
 194 201 194 201 209.5 185.5 c 128,-1,107
 225 170 225 170 247.5 170 c 128,-1,108
 270 170 270 170 286 185.5 c 128,-1,109
 302 201 302 201 302 223.5 c 128,-1,110
 302 246 302 246 286 262 c 128,-1,111
 270 278 270 278 247.5 278 c 128,-1,104
 225 278 225 278 209.5 262 c 128,-1,105
1421.5 1381 m 128,-1,113
 1406 1365 1406 1365 1406 1342.5 c 128,-1,114
 1406 1320 1406 1320 1421.5 1304.5 c 128,-1,115
 1437 1289 1437 1289 1459.5 1289 c 128,-1,116
 1482 1289 1482 1289 1498 1304.5 c 128,-1,117
 1514 1320 1514 1320 1514 1342.5 c 128,-1,118
 1514 1365 1514 1365 1498 1381 c 128,-1,119
 1482 1397 1482 1397 1459.5 1397 c 128,-1,112
 1437 1397 1437 1397 1421.5 1381 c 128,-1,113
EndSplineSet
EndChar

StartChar: K
Encoding: 75 75 43
Width: 1450
Flags: W
HStem: 0 174<279.872 543.562> 456 175<223.874 303.333> 1393 174<553.587 842.88>
VStem: 34 175<245.565 441.565> 310 174<356 454.906 976.5 1324.57> 631 174<261.956 576.442> 881 174<1154.95 1354.1> 1128 175<1170.48 1404.94>
LayerCount: 2
Fore
SplineSet
737 670 m 1,0,1
 805 548 805 548 805 437.5 c 128,-1,2
 805 327 805 327 778.5 249.5 c 128,-1,3
 752 172 752 172 701 116 c 0,4,5
 594 -1 594 -1 401 0 c 0,6,7
 265 0 265 0 158 89 c 0,8,9
 34 192 34 192 34 369 c 0,10,11
 34 494 34 494 114 567 c 0,12,13
 184 631 184 631 274 631 c 0,14,15
 360 630 360 630 422 550 c 0,16,17
 484 469 484 469 484 356 c 1,18,-1
 310 356 l 1,19,20
 310 397 310 397 299 426.5 c 128,-1,21
 288 456 288 456 274 456 c 0,22,23
 251 456 251 456 230 435 c 128,-1,24
 209 414 209 414 209 366.5 c 128,-1,25
 209 319 209 319 228 282.5 c 0,26,27
 248 246 248 246 276 222 c 0,28,29
 333 174 333 174 394 174 c 128,-1,30
 455 174 455 174 497.5 192 c 128,-1,31
 540 210 540 210 570 242 c 0,32,33
 632 310 632 310 631 420 c 0,34,35
 630 526 630 526 538 656 c 2,36,-1
 485 731 l 1,37,-1
 486 731 l 1,38,-1
 418 826 l 1,39,40
 300 998 300 998 299 1170 c 0,41,42
 298 1367 298 1367 414 1471 c 0,43,44
 521 1567 521 1567 708 1567 c 0,45,46
 854 1567 854 1567 952 1486 c 0,47,48
 1055 1401 1055 1401 1055 1261 c 0,49,50
 1055 1191 1055 1191 1015 1115 c 1,51,-1
 1075 1163 l 2,52,53
 1128 1207 1128 1207 1128 1267 c 0,54,55
 1128 1297 1128 1297 1088 1390 c 1,56,-1
 1249 1456 l 1,57,58
 1303 1333 1303 1333 1303 1279 c 128,-1,59
 1303 1225 1303 1225 1291.5 1188 c 128,-1,60
 1280 1151 1280 1151 1262 1120 c 0,61,62
 1231 1065 1231 1065 1199 1038 c 0,63,64
 1168 1011 1168 1011 1148 996 c 2,65,-1
 1108 966 l 1,66,67
 1139 920 1139 920 1150 849 c 2,68,-1
 1235 294 l 2,69,70
 1252 181 1252 181 1393 114 c 1,71,-1
 1318 -44 l 1,72,73
 1099 56 1099 56 1062 268 c 1,74,-1
 978 823 l 2,75,76
 975 844 975 844 971 856 c 1,77,-1
 737 670 l 1,0,1
638 815 m 1,78,-1
 777 925 l 1,79,-1
 700 1025 l 1,80,-1
 758 1074 l 1,81,82
 880 1177 880 1177 881 1263 c 0,83,84
 882 1353 882 1353 774 1384 c 0,85,86
 742 1393 742 1393 698.5 1393 c 128,-1,87
 655 1393 655 1393 611.5 1378.5 c 128,-1,88
 568 1364 568 1364 537 1336 c 0,89,90
 473 1277 473 1277 473 1167 c 0,91,92
 472 1045 472 1045 570 907 c 1,93,-1
 626 831 l 2,94,95
 631 823 631 823 633 823 c 1,96,-1
 638 815 l 1,78,-1
971 856 m 1,97,-1
 970 856 l 1,98,-1
 971 856 l 1,97,-1
EndSplineSet
EndChar

StartChar: L
Encoding: 76 76 44
Width: 1513
Flags: W
HStem: -1 174<237.955 275 929.199 1234.66> 591 175<1105 1235.22> 1394 174<573.435 872.646>
VStem: 53 170.5<185.987 286.062> 212 170<551.138 641.359> 298 174<997.794 1297.67> 490 170<551.161 640.274> 973 175<1105 1284.72> 1316 173<255.019 508.96>
LayerCount: 2
Fore
SplineSet
248 473 m 1,0,1
 212 528 212 528 212 585 c 128,-1,2
 212 642 212 642 228 681 c 128,-1,3
 244 720 244 720 272 750 c 0,4,5
 331 813 331 813 420 819 c 1,6,-1
 377 891 l 1,7,8
 298 1020 298 1020 298 1166 c 0,9,10
 298 1340 298 1340 420 1453 c 0,11,12
 545 1568 545 1568 743 1568 c 0,13,14
 936 1568 936 1568 1048 1424 c 0,15,16
 1148 1295 1148 1295 1148 1105 c 1,17,-1
 973 1105 l 1,18,19
 974 1222 974 1222 916 1304 c 0,20,21
 852 1394 852 1394 743 1394 c 0,22,23
 622 1394 622 1394 546 1330 c 0,24,25
 472 1266 472 1266 472 1166 c 0,26,27
 472 1084 472 1084 521 988 c 0,28,29
 542 946 542 946 566 904 c 128,-1,30
 590 862 590 862 611 816 c 0,31,32
 660 708 660 708 660 605 c 128,-1,33
 660 502 660 502 593 437 c 1,34,35
 663 403 663 403 733 351 c 2,36,-1
 841 271 l 1,37,38
 977 173 977 173 1107 173 c 0,39,40
 1193 173 1193 173 1254.5 234.5 c 128,-1,41
 1316 296 1316 296 1316 382 c 256,42,43
 1316 468 1316 468 1254 530 c 128,-1,44
 1192 592 1192 592 1105 591 c 1,45,-1
 1105 766 l 1,46,47
 1264 766 1264 766 1376.5 653.5 c 128,-1,48
 1489 541 1489 541 1489 382 c 0,49,50
 1488 222 1488 222 1376 111 c 0,51,52
 1263 -1 1263 -1 1105 -1 c 0,53,54
 893 -1 893 -1 696 157 c 0,55,56
 575 254 575 254 504.5 284.5 c 128,-1,57
 434 315 434 315 381 315 c 128,-1,58
 328 315 328 315 300.5 305 c 0,59,60
 274 294 274 294 256 280 c 0,61,62
 224 253 224 253 223.5 227 c 128,-1,63
 223 201 223 201 237.5 185.5 c 128,-1,64
 252 170 252 170 275 170 c 1,65,-1
 275 0 l 1,66,67
 182 0 182 0 118 66 c 0,68,69
 53 132 53 132 53 226 c 0,70,71
 53 352 53 352 161 431 c 0,72,73
 198 458 198 458 248 473 c 1,0,1
397.5 634 m 128,-1,75
 382 618 382 618 382 595.5 c 128,-1,76
 382 573 382 573 397.5 557.5 c 128,-1,77
 413 542 413 542 435.5 542 c 128,-1,78
 458 542 458 542 474 557.5 c 128,-1,79
 490 573 490 573 490 595.5 c 128,-1,80
 490 618 490 618 474 634 c 128,-1,81
 458 650 458 650 435.5 650 c 128,-1,74
 413 650 413 650 397.5 634 c 128,-1,75
EndSplineSet
EndChar

StartChar: M
Encoding: 77 77 45
Width: 2329
Flags: W
HStem: 0 174<2031.58 2180> 143 175<291.714 422.771 939.61 1079.33> 566 170<345.984 435.652> 1392 175<390.807 636.279 1116.84 1345.78 1650.06 1813.68>
VStem: 167 170<745.321 834.377 1162.13 1346.94> 445 170<751.986 827.498> 797 174<674.722 1183.01> 1408 174<657.304 1289.84> 1715 175<330.434 781> 2118 175<1205.46 1327>
LayerCount: 2
Fore
SplineSet
1031 143 m 0,0,1
 953 143 953 143 821 -33 c 1,2,-1
 696 62 l 1,3,4
 784 200 784 200 886 267 c 0,5,6
 962 318 962 318 1031 318 c 0,7,8
 1151 318 1151 318 1182 220 c 1,9,10
 1344 486 1344 486 1394 808 c 0,11,12
 1408 902 1408 902 1408 994.5 c 128,-1,13
 1408 1087 1408 1087 1401 1164 c 0,14,15
 1394 1242 1394 1242 1376 1292 c 0,16,17
 1341 1392 1341 1392 1255 1392 c 0,18,19
 1134 1392 1134 1392 1006 1254 c 0,20,21
 970 1216 970 1216 940 1179 c 1,22,23
 971 1076 971 1076 971 990.5 c 128,-1,24
 971 905 971 905 964.5 844 c 128,-1,25
 958 783 958 783 941 713.5 c 128,-1,26
 924 644 924 644 894.5 565 c 128,-1,27
 865 486 865 486 819 394 c 0,28,29
 722 201 722 201 557 -28 c 1,30,-1
 438 18 l 1,31,32
 438 85 438 85 419.5 114 c 128,-1,33
 401 143 401 143 375 143 c 0,34,35
 307 143 307 143 167 -40 c 1,36,-1
 29 65 l 1,37,38
 220 318 220 318 377 318 c 0,39,40
 492 318 492 318 529 223 c 1,41,42
 797 623 797 623 797 960 c 0,43,44
 797 1142 797 1142 707 1272 c 0,45,46
 622 1394 622 1394 514 1393 c 0,47,48
 431 1393 431 1393 389.5 1355.5 c 128,-1,49
 348 1318 348 1318 348 1267 c 128,-1,50
 348 1216 348 1216 368 1182.5 c 128,-1,51
 388 1149 388 1149 417.5 1118 c 128,-1,52
 447 1087 447 1087 481.5 1055.5 c 128,-1,53
 516 1024 516 1024 546 986 c 0,54,55
 616 896 616 896 615 792 c 0,56,57
 615 697 615 697 549.5 631.5 c 128,-1,58
 484 566 484 566 389 566 c 0,59,60
 296 566 296 566 232 632 c 0,61,62
 167 698 167 698 167 792 c 0,63,64
 167 902 167 902 256 970 c 0,65,66
 283 990 283 990 316 1002 c 1,67,68
 248 1052 248 1052 223 1089 c 0,69,70
 173 1163 173 1163 173 1244.5 c 128,-1,71
 173 1326 173 1326 195 1382.5 c 0,72,73
 218 1439 218 1439 260 1480 c 0,74,75
 350 1567 350 1567 514 1567 c 0,76,77
 612 1567 612 1567 702 1516 c 128,-1,78
 792 1465 792 1465 858 1371 c 1,79,80
 1039 1567 1039 1567 1255 1567 c 0,81,82
 1348 1567 1348 1567 1404 1537 c 128,-1,83
 1460 1507 1460 1507 1499 1442 c 1,84,85
 1568 1503 1568 1503 1610 1525 c 0,86,87
 1693 1567 1693 1567 1782 1567 c 128,-1,88
 1871 1567 1871 1567 1927.5 1514 c 128,-1,89
 1984 1461 1984 1461 1999 1369 c 1,90,91
 2014 1267 2014 1267 2034.5 1238 c 128,-1,92
 2055 1209 2055 1209 2077 1203 c 1,93,94
 2118 1239 2118 1239 2118 1327 c 1,95,-1
 2293 1327 l 1,96,97
 2292 1156 2292 1156 2178 1064 c 1,98,-1
 2101 1004 l 1,99,100
 1960 899 1960 899 1908 698 c 0,101,102
 1890 626 1890 626 1890 532.5 c 128,-1,103
 1890 439 1890 439 1917 369 c 0,104,105
 1944 300 1944 300 1986 256 c 0,106,107
 2066 174 2066 174 2180 174 c 1,108,-1
 2180 0 l 1,109,110
 1999 0 1999 0 1870 123 c 0,111,112
 1715 271 1715 271 1715 549 c 0,113,114
 1715 880 1715 880 1938 1093 c 1,115,116
 1890 1125 1890 1125 1872 1171 c 128,-1,117
 1854 1217 1854 1217 1848 1247 c 2,118,-1
 1835 1304 l 2,119,120
 1824 1355 1824 1355 1806 1373.5 c 128,-1,121
 1788 1392 1788 1392 1750 1392 c 0,122,123
 1677 1392 1677 1392 1560 1263 c 1,124,125
 1582 1131 1582 1131 1582 1003 c 128,-1,126
 1582 875 1582 875 1563.5 756.5 c 0,127,128
 1546 638 1546 638 1502 508 c 0,129,130
 1406 221 1406 221 1209 -28 c 1,131,-1
 1089 17 l 1,132,133
 1089 143 1089 143 1031 143 c 0,0,1
352.5 828 m 128,-1,135
 337 812 337 812 337 789.5 c 128,-1,136
 337 767 337 767 352.5 751.5 c 128,-1,137
 368 736 368 736 390.5 736 c 128,-1,138
 413 736 413 736 429 751.5 c 128,-1,139
 445 767 445 767 445 789.5 c 128,-1,140
 445 812 445 812 429 828 c 128,-1,141
 413 844 413 844 390.5 844 c 128,-1,134
 368 844 368 844 352.5 828 c 128,-1,135
EndSplineSet
EndChar

StartChar: N
Encoding: 78 78 46
Width: 1729
Flags: W
HStem: 0 174<1455.58 1597> 143 175<294.624 425.957> 566 170<338.984 428.652> 1393 174<379.907 641.124>
VStem: 160 170<745.321 834.377 1162.13 1348.55> 438 170<745.09 835.312> 1536 174<1397.88 1568>
LayerCount: 2
Fore
SplineSet
384 318 m 0,0,1
 490 318 490 318 539 232 c 1,2,3
 804 628 804 628 804 960 c 0,4,5
 804 1147 804 1147 716 1272 c 0,6,7
 630 1393 630 1393 504 1393 c 0,8,9
 423 1393 423 1393 382 1355.5 c 128,-1,10
 341 1318 341 1318 341 1267 c 128,-1,11
 341 1216 341 1216 361 1182.5 c 128,-1,12
 381 1149 381 1149 410.5 1118 c 128,-1,13
 440 1087 440 1087 474.5 1055.5 c 0,14,15
 508 1024 508 1024 538 986 c 0,16,17
 608 896 608 896 608 792 c 0,18,19
 608 697 608 697 542.5 631.5 c 128,-1,20
 477 566 477 566 382 566 c 0,21,22
 289 566 289 566 225 632 c 0,23,24
 160 698 160 698 160 792 c 0,25,26
 160 902 160 902 249 970 c 0,27,28
 276 990 276 990 309 1002 c 1,29,30
 241 1052 241 1052 216 1089 c 0,31,32
 166 1163 166 1163 166 1244.5 c 128,-1,33
 166 1326 166 1326 187.5 1382.5 c 128,-1,34
 209 1439 209 1439 252 1480 c 0,35,36
 343 1567 343 1567 504 1567 c 0,37,38
 776 1567 776 1567 921 1254 c 1,39,-1
 1145 763 l 1,40,41
 1183 997 1183 997 1366 1220 c 0,42,43
 1474 1351 1474 1351 1505 1425 c 128,-1,44
 1536 1499 1536 1499 1536 1568 c 1,45,-1
 1710 1568 l 1,46,47
 1710 1386 1710 1386 1582 1225 c 2,48,-1
 1508 1132 l 2,49,50
 1409 1007 1409 1007 1376 931 c 0,51,52
 1307 777 1307 777 1307 628 c 128,-1,53
 1307 479 1307 479 1334 396.5 c 0,54,55
 1362 314 1362 314 1404 264 c 0,56,57
 1482 174 1482 174 1597 174 c 1,58,-1
 1597 0 l 1,59,60
 1394 0 1394 0 1268 136 c 0,61,62
 1222 185 1222 185 1189 256 c 2,63,-1
 959 757 l 1,64,65
 898 432 898 432 564 -28 c 1,66,-1
 445 18 l 1,67,68
 446 113 446 113 416 134 c 0,69,70
 404 143 404 143 382 143 c 0,71,72
 309 143 309 143 178 -29 c 1,73,-1
 39 77 l 1,74,75
 192 279 192 279 314 309 c 0,76,77
 350 318 350 318 384 318 c 0,0,1
345.5 828 m 128,-1,79
 330 812 330 812 330 789.5 c 128,-1,80
 330 767 330 767 345.5 751.5 c 128,-1,81
 361 736 361 736 383.5 736 c 128,-1,82
 406 736 406 736 422 751.5 c 128,-1,83
 438 767 438 767 438 789.5 c 128,-1,84
 438 812 438 812 422 828 c 128,-1,85
 406 844 406 844 383.5 844 c 128,-1,78
 361 844 361 844 345.5 828 c 128,-1,79
EndSplineSet
EndChar

StartChar: O
Encoding: 79 79 47
Width: 1657
Flags: W
HStem: 0 174<574.36 1016.56> 450 174<214.548 355.424> 1394 174<492.053 1021>
VStem: 24 170<650.815 714> 184 174<1037.9 1288.02> 375 173<644.335 851.874> 1402 174<556.386 1011.78>
LayerCount: 2
Fore
SplineSet
194 714 m 1,0,1
 194 676 194 676 220 650 c 128,-1,2
 246 624 246 624 284 624 c 256,3,4
 322 624 322 624 348.5 650 c 128,-1,5
 375 676 375 676 375 717.5 c 128,-1,6
 375 759 375 759 361 793.5 c 128,-1,7
 347 828 347 828 325.5 859.5 c 128,-1,8
 304 891 304 891 279.5 921.5 c 0,9,10
 256 952 256 952 234 988 c 0,11,12
 184 1070 184 1070 184 1169 c 128,-1,13
 184 1268 184 1268 227 1342.5 c 128,-1,14
 270 1417 270 1417 349 1467 c 0,15,16
 509 1568 509 1568 787 1568 c 0,17,18
 1002 1568 1002 1568 1185 1462 c 0,19,20
 1364 1358 1364 1358 1468 1182 c 0,21,22
 1576 1000 1576 1000 1576 786 c 256,23,24
 1576 572 1576 572 1469 389 c 0,25,26
 1365 211 1365 211 1187 107 c 0,27,28
 1004 0 1004 0 790 0 c 0,29,30
 526 0 526 0 308 176 c 0,31,32
 238 232 238 232 181 301 c 1,33,-1
 318 412 l 1,34,35
 411 302 411 302 532 238 c 128,-1,36
 653 174 653 174 763.5 174 c 128,-1,37
 874 174 874 174 952 196 c 128,-1,38
 1030 218 1030 218 1098 257.5 c 128,-1,39
 1166 297 1166 297 1222 353 c 128,-1,40
 1278 409 1278 409 1318 477 c 0,41,42
 1402 620 1402 620 1402 766.5 c 128,-1,43
 1402 913 1402 913 1353.5 1023.5 c 0,44,45
 1306 1134 1306 1134 1222 1216 c 0,46,47
 1042 1394 1042 1394 787 1394 c 0,48,49
 478 1394 478 1394 389 1273 c 0,50,51
 358 1231 358 1231 358 1180 c 128,-1,52
 358 1129 358 1129 372 1095 c 128,-1,53
 386 1061 386 1061 407 1031 c 128,-1,54
 428 1001 428 1001 453 971 c 128,-1,55
 478 941 478 941 499 904 c 0,56,57
 548 818 548 818 548 712 c 0,58,59
 548 603 548 603 471.5 526.5 c 128,-1,60
 395 450 395 450 286 450 c 256,61,62
 176 450 176 450 100 528 c 128,-1,63
 24 606 24 606 24 714 c 1,64,-1
 194 714 l 1,0,1
EndSplineSet
EndChar

StartChar: P
Encoding: 80 80 48
Width: 1594
Flags: W
HStem: -352 170<516.986 592.498> -74 170<510.186 598.772> 282 180<586.469 731 906 1018.34> 566 170<271.984 361.652> 1393 174<316.811 587.946>
VStem: 93 170<745.321 834.377 1162.13 1346.94> 331 170<-172.679 -83.4437> 371 170<751.986 827.498> 731 175<-6.26245 282 455.278 1077> 1322 174<633.362 1110.46>
LayerCount: 2
Fore
SplineSet
731 282 m 1,0,1
 575 266 575 266 426 117 c 1,2,-1
 300 236 l 1,3,4
 408 340 408 340 481 379 c 0,5,6
 606 447 606 447 731 462 c 1,7,-1
 731 1073 l 2,8,9
 732 1217 732 1217 638 1309 c 0,10,11
 553 1393 553 1393 455 1393 c 128,-1,12
 357 1393 357 1393 315.5 1355.5 c 128,-1,13
 274 1318 274 1318 274 1267 c 128,-1,14
 274 1216 274 1216 294 1182.5 c 128,-1,15
 314 1149 314 1149 343.5 1118 c 128,-1,16
 373 1087 373 1087 407.5 1055.5 c 128,-1,17
 442 1024 442 1024 472 986 c 0,18,19
 542 896 542 896 541 792 c 0,20,21
 541 697 541 697 475.5 631.5 c 128,-1,22
 410 566 410 566 315 566 c 0,23,24
 222 566 222 566 158 632 c 0,25,26
 93 698 93 698 93 792 c 0,27,28
 93 902 93 902 182 970 c 0,29,30
 209 990 209 990 242 1002 c 1,31,32
 174 1052 174 1052 149 1089 c 0,33,34
 99 1163 99 1163 99 1244.5 c 128,-1,35
 99 1326 99 1326 121 1382.5 c 0,36,37
 144 1439 144 1439 186 1480 c 0,38,39
 276 1567 276 1567 440 1567 c 0,40,41
 572 1568 572 1568 690 1488 c 0,42,43
 815 1403 815 1403 865 1267 c 1,44,-1
 1245 1566 l 1,45,-1
 1350 1360 l 1,46,47
 1449 1169 1449 1169 1472.5 1058 c 128,-1,48
 1496 947 1496 947 1496 854 c 128,-1,49
 1496 761 1496 761 1483.5 697 c 128,-1,50
 1471 633 1471 633 1450 582 c 0,51,52
 1419 507 1419 507 1373.5 446.5 c 128,-1,53
 1328 386 1328 386 1311 361 c 128,-1,54
 1294 336 1294 336 1274 302 c 0,55,56
 1228 223 1228 223 1184 119 c 1,57,58
 1106 182 1106 182 1038 226 c 128,-1,59
 970 270 970 270 906 282 c 1,60,-1
 906 128 l 2,61,62
 906 -229 906 -229 690 -325 c 0,63,64
 630 -352 630 -352 562 -352 c 2,65,-1
 553 -352 l 2,66,67
 460 -352 460 -352 396 -286 c 0,68,69
 331 -220 331 -220 331 -126 c 0,70,71
 331 -34 331 -34 396 31 c 128,-1,72
 461 96 461 96 553 96 c 0,73,74
 672 96 672 96 723 -8 c 1,75,76
 731 20 731 20 731 82 c 2,77,-1
 731 282 l 1,0,1
906 459 m 1,78,79
 1017 446 1017 446 1120 386 c 1,80,-1
 1155 440 l 1,81,-1
 1240 565 l 1,82,83
 1322 691 1322 691 1322 847 c 0,84,85
 1322 982 1322 982 1295.5 1060.5 c 0,86,87
 1269 1138 1269 1138 1244 1188 c 2,88,-1
 1188 1300 l 1,89,-1
 906 1077 l 1,90,-1
 906 459 l 1,78,79
516.5 -90 m 128,-1,92
 501 -106 501 -106 501 -128.5 c 128,-1,93
 501 -151 501 -151 516.5 -166.5 c 128,-1,94
 532 -182 532 -182 554.5 -182 c 128,-1,95
 577 -182 577 -182 593 -166.5 c 128,-1,96
 609 -151 609 -151 609 -128.5 c 128,-1,97
 609 -106 609 -106 593 -90 c 128,-1,98
 577 -74 577 -74 554.5 -74 c 128,-1,91
 532 -74 532 -74 516.5 -90 c 128,-1,92
278.5 828 m 128,-1,100
 263 812 263 812 263 789.5 c 128,-1,101
 263 767 263 767 278.5 751.5 c 128,-1,102
 294 736 294 736 316.5 736 c 128,-1,103
 339 736 339 736 355 751.5 c 128,-1,104
 371 767 371 767 371 789.5 c 128,-1,105
 371 812 371 812 355 828 c 128,-1,106
 339 844 339 844 316.5 844 c 128,-1,99
 294 844 294 844 278.5 828 c 128,-1,100
EndSplineSet
EndChar

StartChar: Q
Encoding: 81 81 49
Width: 1658
Flags: W
HStem: -352 174<1620.47 1847.63> 0 174<575.715 1017.07> 450 174<214.347 356.424> 1394 174<493.053 1021.62>
VStem: 25 170<650.815 714> 184.5 174.5<1038.19 1287.65> 376 173<644.335 851.874> 1403 174<555.371 1012.76>
LayerCount: 2
Fore
SplineSet
1249 380 m 1,0,1
 1403 553 1403 553 1403 786 c 0,2,3
 1402 1038 1402 1038 1222 1216 c 128,-1,4
 1042 1394 1042 1394 788 1394 c 0,5,6
 479 1394 479 1394 390 1273 c 0,7,8
 359 1231 359 1231 359 1180 c 128,-1,9
 359 1129 359 1129 373 1095 c 128,-1,10
 387 1061 387 1061 408 1031 c 128,-1,11
 429 1001 429 1001 454 971 c 128,-1,12
 479 941 479 941 500 904 c 0,13,14
 549 818 549 818 549 712 c 0,15,16
 549 603 549 603 472.5 526.5 c 128,-1,17
 396 450 396 450 287 450 c 256,18,19
 178 450 178 450 102 528 c 128,-1,20
 26 606 26 606 25 714 c 1,21,-1
 195 714 l 1,22,23
 195 676 195 676 221 650 c 128,-1,24
 247 624 247 624 285 624 c 256,25,26
 323 624 323 624 349.5 650 c 128,-1,27
 376 676 376 676 376 717.5 c 128,-1,28
 376 759 376 759 362 793.5 c 128,-1,29
 348 828 348 828 326.5 859.5 c 128,-1,30
 305 891 305 891 280.5 921.5 c 128,-1,31
 256 952 256 952 234 988 c 0,32,33
 184 1070 184 1070 184.5 1169 c 128,-1,34
 185 1268 185 1268 228 1342.5 c 128,-1,35
 271 1417 271 1417 350 1467 c 0,36,37
 510 1568 510 1568 788 1568 c 0,38,39
 1003 1568 1003 1568 1186 1462 c 0,40,41
 1366 1358 1366 1358 1470 1182 c 0,42,43
 1578 1000 1578 1000 1577 786 c 0,44,45
 1577 469 1577 469 1359 242 c 1,46,47
 1408 170 1408 170 1451.5 95 c 0,48,49
 1496 20 1496 20 1538 -40 c 0,50,51
 1635 -178 1635 -178 1722 -178 c 128,-1,52
 1809 -178 1809 -178 1892 -97 c 1,53,-1
 2032 -204 l 1,54,55
 1892 -352 1892 -352 1715 -352 c 0,56,57
 1560 -352 1560 -352 1424 -190 c 0,58,59
 1354 -106 1354 -106 1301 -16 c 1,60,-1
 1215 124 l 1,61,62
 1025 0 1025 0 791 0 c 0,63,64
 528 0 528 0 310 176 c 0,65,66
 240 232 240 232 182 301 c 1,67,-1
 319 412 l 1,68,69
 412 302 412 302 533 238 c 128,-1,70
 654 174 654 174 766 174 c 0,71,72
 965 174 965 174 1112 265 c 1,73,74
 992 393 992 393 851 271 c 1,75,-1
 728 396 l 1,76,77
 849 506 849 506 988 506 c 128,-1,78
 1127 506 1127 506 1249 380 c 1,0,1
EndSplineSet
EndChar

StartChar: R
Encoding: 82 82 50
Width: 1693
Flags: W
HStem: -20.5 169.5<286.986 362.498> 257 170<286.986 362.498> 566 170<310.984 400.652> 1393 174<352.394 599.509 971.438 1101.38>
VStem: 103 168<157.45 248.045> 132 170<745.321 834.377 1162.13 1346.94> 410 170<745.09 835.312> 742 174<1005 1222.81> 1458 170<1240.52 1317.54>
LayerCount: 2
Fore
SplineSet
798 1386 m 1,0,1
 875 1567 875 1567 1055 1567 c 0,2,3
 1185 1568 1185 1568 1260 1426 c 0,4,5
 1282 1386 1282 1386 1296 1355 c 2,6,-1
 1320 1302 l 2,7,8
 1357 1226 1357 1226 1385 1226 c 0,9,10
 1410 1226 1410 1226 1423 1254 c 0,11,12
 1442 1295 1442 1295 1458 1356 c 1,13,-1
 1628 1314 l 1,14,15
 1586 1119 1586 1119 1462 1063 c 2,16,-1
 1312 995 l 1,17,18
 1352 965 1352 965 1365 886 c 1,19,-1
 1451 308 l 2,20,21
 1468 195 1468 195 1609 128 c 1,22,-1
 1534 -30 l 1,23,24
 1309 73 1309 73 1278 281 c 2,25,-1
 1195 848 l 2,26,27
 1186 908 1186 908 1151 921 c 1,28,-1
 913 813 l 1,29,30
 896 504 896 504 770 270 c 0,31,32
 675 92 675 92 514 18 c 0,33,34
 431 -20 431 -20 355 -20.5 c 128,-1,35
 279 -21 279 -21 238.5 -3.5 c 128,-1,36
 198 14 198 14 168 44 c 0,37,38
 103 110 103 110 103 202.5 c 0,39,40
 103 296 103 296 168 362 c 0,41,42
 232 428 232 428 326 427 c 0,43,44
 444 427 444 427 512 328 c 0,45,46
 532 298 532 298 542 262 c 1,47,48
 693 436 693 436 731 818 c 0,49,50
 742 928 742 928 742 1011.5 c 128,-1,51
 742 1095 742 1095 722 1160 c 0,52,53
 702 1224 702 1224 666 1276 c 0,54,55
 586 1392 586 1392 479 1393 c 0,56,57
 396 1393 396 1393 354.5 1355.5 c 128,-1,58
 313 1318 313 1318 313 1267 c 128,-1,59
 313 1216 313 1216 333 1182.5 c 128,-1,60
 353 1149 353 1149 382.5 1118 c 128,-1,61
 412 1087 412 1087 446.5 1055.5 c 0,62,63
 480 1024 480 1024 510 986 c 0,64,65
 580 896 580 896 580 792 c 0,66,67
 580 697 580 697 514.5 631.5 c 128,-1,68
 449 566 449 566 354 566 c 0,69,70
 261 566 261 566 197 632 c 0,71,72
 132 698 132 698 132 792 c 0,73,74
 132 902 132 902 221 970 c 0,75,76
 248 990 248 990 281 1002 c 1,77,78
 213 1052 213 1052 188 1089 c 0,79,80
 138 1163 138 1163 138 1244.5 c 128,-1,81
 138 1326 138 1326 160 1382.5 c 128,-1,82
 182 1439 182 1439 224 1480 c 0,83,84
 314 1567 314 1567 479 1567 c 0,85,86
 576 1567 576 1567 657.5 1517 c 128,-1,87
 739 1467 739 1467 798 1386 c 1,0,1
1038 1393 m 0,88,89
 1016 1393 1016 1393 995 1375.5 c 128,-1,90
 974 1358 974 1358 960 1328.5 c 128,-1,91
 946 1299 946 1299 937.5 1260 c 0,92,93
 929 1222 929 1222 924 1178 c 0,94,95
 916 1108 916 1108 916 1005 c 1,96,-1
 1212 1142 l 1,97,98
 1189 1171 1189 1171 1174 1204 c 2,99,-1
 1120 1316 l 2,100,101
 1084 1393 1084 1393 1038 1393 c 0,88,89
286.5 241 m 128,-1,103
 271 225 271 225 271 202.5 c 128,-1,104
 271 180 271 180 286.5 164.5 c 128,-1,105
 302 149 302 149 324.5 149 c 128,-1,106
 347 149 347 149 363 164.5 c 128,-1,107
 379 180 379 180 379 202.5 c 128,-1,108
 379 225 379 225 363 241 c 128,-1,109
 347 257 347 257 324.5 257 c 128,-1,102
 302 257 302 257 286.5 241 c 128,-1,103
317.5 828 m 128,-1,111
 302 812 302 812 302 789.5 c 128,-1,112
 302 767 302 767 317.5 751.5 c 128,-1,113
 333 736 333 736 355.5 736 c 128,-1,114
 378 736 378 736 394 751.5 c 128,-1,115
 410 767 410 767 410 789.5 c 128,-1,116
 410 812 410 812 394 828 c 128,-1,117
 378 844 378 844 355.5 844 c 128,-1,110
 333 844 333 844 317.5 828 c 128,-1,111
EndSplineSet
EndChar

StartChar: S
Encoding: 83 83 51
Width: 1756
Flags: W
HStem: 0 175<673.601 1189.32> 536.5 174.5<467.541 844.184> 813 175<1180.11 1424.71> 1099 183<1270.68 1469.12> 1393 175<461.857 850.464 1380.24 1469.85>
VStem: 119 175<881.599 1239.11> 1212 159<1305.15 1373.5> 1488 174<413.829 746.815 1297.99 1373.5>
LayerCount: 2
Fore
SplineSet
209 599 m 1,0,1
 515 175 515 175 916 175 c 0,2,3
 1168 175 1168 175 1330 293 c 0,4,5
 1488 408 1488 408 1488 581 c 0,6,7
 1488 700 1488 700 1432 762 c 0,8,9
 1386 813 1386 813 1328.5 813 c 128,-1,10
 1271 813 1271 813 1226 792.5 c 128,-1,11
 1181 772 1181 772 1137.5 741.5 c 128,-1,12
 1094 711 1094 711 1047.5 675 c 0,13,14
 1000 638 1000 638 944 608 c 0,15,16
 812 536 812 536 681.5 536.5 c 128,-1,17
 551 537 551 537 453.5 569 c 128,-1,18
 356 601 356 601 282 667 c 0,19,20
 119 812 119 812 119 1072 c 0,21,22
 120 1270 120 1270 246 1408 c 0,23,24
 392 1568 392 1568 667 1568 c 0,25,26
 847 1568 847 1568 994 1470 c 0,27,28
 1035 1442 1035 1442 1072 1412 c 2,29,-1
 1143 1355 l 2,30,31
 1177 1327 1177 1327 1212 1305 c 1,32,33
 1212 1478 1212 1478 1331 1538 c 0,34,35
 1371 1558 1371 1558 1421 1558 c 128,-1,36
 1471 1558 1471 1558 1512 1540.5 c 0,37,38
 1554 1522 1554 1522 1584 1492 c 0,39,40
 1650 1426 1650 1426 1649.5 1349 c 128,-1,41
 1649 1272 1649 1272 1626.5 1228 c 128,-1,42
 1604 1184 1604 1184 1565 1155 c 0,43,44
 1490 1099 1490 1099 1358 1099 c 0,45,46
 1204 1099 1204 1099 1011 1246 c 0,47,48
 894 1335 894 1335 816 1364 c 128,-1,49
 738 1393 738 1393 652.5 1393 c 128,-1,50
 567 1393 567 1393 496.5 1365 c 0,51,52
 426 1338 426 1338 381 1292 c 0,53,54
 294 1204 294 1204 294 1073 c 0,55,56
 294 897 294 897 404 799 c 0,57,58
 503 711 503 711 656 711 c 0,59,60
 778 711 778 711 896 783 c 0,61,62
 946 814 946 814 992.5 849.5 c 128,-1,63
 1039 885 1039 885 1089 916 c 0,64,65
 1205 988 1205 988 1325 988 c 0,66,67
 1453 988 1453 988 1546 900 c 0,68,69
 1662 790 1662 790 1662 584 c 0,70,71
 1662 463 1662 463 1608 356.5 c 128,-1,72
 1554 250 1554 250 1456 171 c 0,73,74
 1243 0 1243 0 916 0 c 0,75,76
 549 0 549 0 257 277 c 0,77,78
 162 367 162 367 70 495 c 1,79,-1
 209 599 l 1,0,1
1386.5 1374 m 128,-1,81
 1371 1358 1371 1358 1371 1335.5 c 128,-1,82
 1371 1313 1371 1313 1386.5 1297.5 c 128,-1,83
 1402 1282 1402 1282 1424.5 1282 c 128,-1,84
 1447 1282 1447 1282 1463 1297.5 c 128,-1,85
 1479 1313 1479 1313 1479 1335.5 c 128,-1,86
 1479 1358 1479 1358 1463 1374 c 128,-1,87
 1447 1390 1447 1390 1424.5 1390 c 128,-1,80
 1402 1390 1402 1390 1386.5 1374 c 128,-1,81
EndSplineSet
EndChar

StartChar: T
Encoding: 84 84 52
Width: 1481
Flags: W
HStem: 0 174<570.275 806.797> 800 174<290 468> 1051 238<1054.75 1306.45> 1393 174<294.457 549.25 1224.99 1300.5>
VStem: 28 174.5<1054 1301.06> 335 172<236.275 476.227> 870 174<237.491 522.78> 1040 169<1297.73 1388.2> 1317 170<1297.39 1387.23>
LayerCount: 2
Fore
SplineSet
1244.5 1070 m 128,-1,1
 1177 1051 1177 1051 1095.5 1051 c 128,-1,2
 1014 1051 1014 1051 917 1092 c 1,3,-1
 760 968 l 1,4,5
 788 898 788 898 845 819 c 2,6,-1
 932 694 l 1,7,8
 1044 530 1044 530 1044 354 c 0,9,10
 1044 207 1044 207 940 103 c 0,11,12
 837 0 837 0 689 0 c 128,-1,13
 541 0 541 0 438 103 c 128,-1,14
 335 206 335 206 335 354 c 0,15,16
 335 449 335 449 380 528 c 128,-1,17
 425 607 425 607 500 656 c 1,18,-1
 591 509 l 1,19,20
 507 456 507 456 507 355 c 0,21,22
 507 280 507 280 560 227 c 128,-1,23
 613 174 613 174 688 174 c 0,24,25
 764 174 764 174 816 227 c 0,26,27
 870 282 870 282 870 342.5 c 128,-1,28
 870 403 870 403 856.5 447 c 128,-1,29
 843 491 843 491 821.5 531.5 c 128,-1,30
 800 572 800 572 774 609 c 2,31,-1
 720 682 l 1,32,33
 652 768 652 768 627 827 c 0,34,35
 579 939 579 939 579 1047 c 1,36,-1
 756 1187 l 1,37,38
 724 1210 724 1210 684.5 1245 c 0,39,40
 646 1280 646 1280 602 1313 c 0,41,42
 497 1393 497 1393 435 1393 c 128,-1,43
 373 1393 373 1393 332 1372.5 c 0,44,45
 290 1352 290 1352 262 1320 c 0,46,47
 202 1254 202 1254 202.5 1191 c 128,-1,48
 203 1128 203 1128 222.5 1090 c 128,-1,49
 242 1052 242 1052 278 1026 c 0,50,51
 349 974 349 974 468 974 c 1,52,-1
 468 800 l 1,53,54
 270 800 270 800 152 896 c 0,55,56
 28 997 28 997 28 1178 c 0,57,58
 28 1319 28 1319 136 1437 c 0,59,60
 254 1567 254 1567 424 1567 c 0,61,62
 588 1568 588 1568 768 1408 c 0,63,64
 882 1307 882 1307 947.5 1270.5 c 128,-1,65
 1013 1234 1013 1234 1071 1227 c 1,66,67
 1040 1280 1040 1280 1040 1334.5 c 128,-1,68
 1040 1389 1040 1389 1057.5 1430 c 0,69,70
 1075 1472 1075 1472 1105 1502 c 0,71,72
 1169 1568 1169 1568 1263 1567 c 0,73,74
 1356 1567 1356 1567 1421.5 1501.5 c 128,-1,75
 1487 1436 1487 1436 1487 1354 c 128,-1,76
 1487 1272 1487 1272 1453.5 1218 c 128,-1,77
 1420 1164 1420 1164 1366 1126.5 c 128,-1,0
 1312 1089 1312 1089 1244.5 1070 c 128,-1,1
1224.5 1381 m 128,-1,79
 1209 1365 1209 1365 1209 1342.5 c 128,-1,80
 1209 1320 1209 1320 1224.5 1304.5 c 128,-1,81
 1240 1289 1240 1289 1262.5 1289 c 128,-1,82
 1285 1289 1285 1289 1301 1304.5 c 128,-1,83
 1317 1320 1317 1320 1317 1342.5 c 128,-1,84
 1317 1365 1317 1365 1301 1381 c 128,-1,85
 1285 1397 1285 1397 1262.5 1397 c 128,-1,78
 1240 1397 1240 1397 1224.5 1381 c 128,-1,79
EndSplineSet
EndChar

StartChar: U
Encoding: 85 85 53
Width: 1229
Flags: W
HStem: 1547 20G<182.783 283>
VStem: 143 174<306.231 824.569> 240 174.5<865.703 1327.1> 841 174<191.016 300 522 1537>
LayerCount: 2
Fore
SplineSet
1048 -30 m 1,0,1
 845 95 845 95 841 300 c 1,2,-1
 395 -30 l 1,3,-1
 307 73 l 1,4,5
 143 270 143 270 143 489 c 0,6,7
 143 605 143 605 176.5 770 c 128,-1,8
 210 935 210 935 225 1024 c 128,-1,9
 240 1113 240 1113 240 1188 c 128,-1,10
 240 1263 240 1263 203.5 1316.5 c 128,-1,11
 167 1370 167 1370 93 1429 c 1,12,-1
 198 1567 l 1,13,14
 368 1436 368 1436 402 1302 c 0,15,16
 414 1254 414 1254 414.5 1178 c 128,-1,17
 415 1102 415 1102 399.5 1016 c 128,-1,18
 384 930 384 930 366 846 c 0,19,20
 317 616 317 616 317 489 c 0,21,22
 317 346 317 346 419 210 c 1,23,-1
 841 522 l 1,24,-1
 841 1537 l 1,25,-1
 1015 1537 l 1,26,-1
 1015 341 l 2,27,28
 1015 264 1015 264 1045 211 c 128,-1,29
 1075 158 1075 158 1145 109 c 1,30,-1
 1048 -30 l 1,0,1
EndSplineSet
EndChar

StartChar: V
Encoding: 86 86 54
Width: 1622
Flags: W
HStem: 0 170<365.984 455.674 931.19 1216.73> 278 198<365.388 506.75> 566 170<281.984 371.652> 1393 174<323.736 576.255 1358.8 1514>
VStem: 103 170<745.321 834.377 1162.13 1346.94> 187 170<179.321 268.825> 381 170<751.986 827.498> 465 170<178.494 263.904> 732 175<668.355 1198.09> 1133 174<1019.07 1345.06> 1334 174<296.275 718.571>
LayerCount: 2
Fore
SplineSet
631 267 m 1,0,1
 635 245 635 245 635 212 c 128,-1,2
 635 179 635 179 617.5 137.5 c 128,-1,3
 600 96 600 96 570 66 c 0,4,5
 504 0 504 0 409 0 c 0,6,7
 316 0 316 0 252 66 c 0,8,9
 187 132 187 132 187 226 c 1,10,11
 190 395 190 395 344 455 c 0,12,13
 398 476 398 476 470.5 476 c 128,-1,14
 543 476 543 476 601 457 c 1,15,16
 732 708 732 708 732 960 c 0,17,18
 732 1148 732 1148 647 1272 c 0,19,20
 564 1393 564 1393 450 1393 c 0,21,22
 367 1393 367 1393 325.5 1355.5 c 128,-1,23
 284 1318 284 1318 284 1267 c 128,-1,24
 284 1216 284 1216 304 1182.5 c 128,-1,25
 324 1149 324 1149 353.5 1118 c 128,-1,26
 383 1087 383 1087 417.5 1055.5 c 128,-1,27
 452 1024 452 1024 482 986 c 0,28,29
 552 896 552 896 551 792 c 0,30,31
 551 697 551 697 485.5 631.5 c 128,-1,32
 420 566 420 566 325 566 c 0,33,34
 232 566 232 566 168 632 c 0,35,36
 103 698 103 698 103 792 c 0,37,38
 103 902 103 902 192 970 c 0,39,40
 219 990 219 990 252 1002 c 1,41,42
 184 1052 184 1052 159 1089 c 0,43,44
 109 1163 109 1163 109 1244.5 c 128,-1,45
 109 1326 109 1326 131 1382.5 c 0,46,47
 154 1439 154 1439 196 1480 c 0,48,49
 286 1567 286 1567 450 1567 c 0,50,51
 537 1567 537 1567 619 1522.5 c 128,-1,52
 701 1478 701 1478 765 1398 c 0,53,54
 907 1219 907 1219 907 960 c 256,55,56
 907 673 907 673 746 365 c 1,57,58
 786 332 786 332 820.5 298.5 c 0,59,60
 854 266 854 266 892 238 c 0,61,62
 977 176 977 176 1062.5 175.5 c 128,-1,63
 1148 175 1148 175 1195.5 201.5 c 0,64,65
 1244 228 1244 228 1274 270 c 0,66,67
 1334 354 1334 354 1334 476 c 0,68,69
 1334 623 1334 623 1272 764 c 1,70,-1
 1198 929 l 1,71,72
 1132 1081 1132 1081 1133 1231 c 0,73,74
 1133 1398 1133 1398 1244 1486 c 0,75,76
 1347 1568 1347 1568 1514 1569 c 1,77,-1
 1514 1394 l 1,78,79
 1368 1394 1368 1394 1323 1307 c 0,80,81
 1307 1276 1307 1276 1307 1231 c 128,-1,82
 1307 1186 1307 1186 1314.5 1145.5 c 128,-1,83
 1322 1105 1322 1105 1334.5 1066.5 c 128,-1,84
 1347 1028 1347 1028 1363 992 c 2,85,-1
 1437 828 l 1,86,87
 1508 663 1508 663 1508 476 c 0,88,89
 1508 275 1508 275 1406 146 c 0,90,91
 1291 0 1291 0 1087 0 c 0,92,93
 908 0 908 0 804 90 c 0,94,95
 750 136 750 136 706 187 c 128,-1,96
 662 238 662 238 631 267 c 1,0,1
372.5 262 m 128,-1,98
 357 246 357 246 357 223.5 c 128,-1,99
 357 201 357 201 372.5 185.5 c 128,-1,100
 388 170 388 170 410.5 170 c 128,-1,101
 433 170 433 170 449 185.5 c 128,-1,102
 465 201 465 201 465 223.5 c 128,-1,103
 465 246 465 246 449 262 c 128,-1,104
 433 278 433 278 410.5 278 c 128,-1,97
 388 278 388 278 372.5 262 c 128,-1,98
288.5 828 m 128,-1,106
 273 812 273 812 273 789.5 c 128,-1,107
 273 767 273 767 288.5 751.5 c 128,-1,108
 304 736 304 736 326.5 736 c 128,-1,109
 349 736 349 736 365 751.5 c 128,-1,110
 381 767 381 767 381 789.5 c 128,-1,111
 381 812 381 812 365 828 c 128,-1,112
 349 844 349 844 326.5 844 c 128,-1,105
 304 844 304 844 288.5 828 c 128,-1,106
EndSplineSet
EndChar

StartChar: W
Encoding: 87 87 55
Width: 2119
Flags: W
HStem: 0 170<365.984 455.674 931.19 1215 1443.88 1713.73> 278 198<365.388 506.75> 566 170<281.984 371.652> 1393 174<323.736 576.255 1358.8 1514 1854.8 2010>
VStem: 103 170<745.321 834.377 1162.13 1346.94> 187 170<179.321 268.825> 381 170<751.986 827.498> 465 170<178.494 263.904> 732 175<668.355 1198.09> 1133 174<1019.07 1345.06> 1334 174<293.782 718.571> 1629 175<1019.26 1345.1> 1830 175<292.577 723.113>
LayerCount: 2
Fore
SplineSet
631 267 m 1,0,1
 635 245 635 245 635 212 c 128,-1,2
 635 179 635 179 617.5 137.5 c 128,-1,3
 600 96 600 96 570 66 c 0,4,5
 504 0 504 0 409 0 c 0,6,7
 316 0 316 0 252 66 c 0,8,9
 187 132 187 132 187 226 c 1,10,11
 190 395 190 395 344 455 c 0,12,13
 398 476 398 476 470.5 476 c 128,-1,14
 543 476 543 476 601 457 c 1,15,16
 732 708 732 708 732 960 c 0,17,18
 732 1148 732 1148 647 1272 c 0,19,20
 564 1393 564 1393 450 1393 c 0,21,22
 367 1393 367 1393 325.5 1355.5 c 128,-1,23
 284 1318 284 1318 284 1267 c 128,-1,24
 284 1216 284 1216 304 1182.5 c 128,-1,25
 324 1149 324 1149 353.5 1118 c 128,-1,26
 383 1087 383 1087 417.5 1055.5 c 128,-1,27
 452 1024 452 1024 482 986 c 0,28,29
 552 896 552 896 551 792 c 0,30,31
 551 697 551 697 485.5 631.5 c 128,-1,32
 420 566 420 566 325 566 c 0,33,34
 232 566 232 566 168 632 c 0,35,36
 103 698 103 698 103 792 c 0,37,38
 103 902 103 902 192 970 c 0,39,40
 219 990 219 990 252 1002 c 1,41,42
 184 1052 184 1052 159 1089 c 0,43,44
 109 1163 109 1163 109 1244.5 c 128,-1,45
 109 1326 109 1326 131 1382.5 c 0,46,47
 154 1439 154 1439 196 1480 c 0,48,49
 286 1567 286 1567 450 1567 c 0,50,51
 537 1567 537 1567 619 1522.5 c 128,-1,52
 701 1478 701 1478 765 1398 c 0,53,54
 907 1219 907 1219 907 960 c 256,55,56
 907 673 907 673 746 365 c 1,57,58
 786 332 786 332 820.5 298.5 c 0,59,60
 854 266 854 266 892 238 c 0,61,62
 977 176 977 176 1062.5 175.5 c 128,-1,63
 1148 175 1148 175 1195.5 201.5 c 0,64,65
 1244 228 1244 228 1274 270 c 0,66,67
 1334 354 1334 354 1334 476 c 0,68,69
 1334 623 1334 623 1272 764 c 1,70,-1
 1198 929 l 1,71,72
 1132 1081 1132 1081 1133 1231 c 0,73,74
 1133 1398 1133 1398 1244 1486 c 0,75,76
 1347 1568 1347 1568 1514 1569 c 1,77,-1
 1514 1394 l 1,78,79
 1368 1394 1368 1394 1323 1307 c 0,80,81
 1307 1276 1307 1276 1307 1231 c 128,-1,82
 1307 1186 1307 1186 1314.5 1145.5 c 128,-1,83
 1322 1105 1322 1105 1334.5 1066.5 c 128,-1,84
 1347 1028 1347 1028 1363 992 c 2,85,-1
 1437 828 l 1,86,87
 1508 663 1508 663 1508 476 c 256,88,89
 1508 316 1508 316 1442 200 c 1,90,91
 1502 173 1502 173 1573.5 173 c 128,-1,92
 1645 173 1645 173 1692 199.5 c 128,-1,93
 1739 226 1739 226 1770 269 c 0,94,95
 1830 352 1830 352 1830 476 c 0,96,97
 1830 620 1830 620 1769 764 c 1,98,-1
 1696 929 l 1,99,100
 1630 1084 1630 1084 1629 1231 c 0,101,102
 1629 1398 1629 1398 1740 1486 c 0,103,104
 1843 1568 1843 1568 2010 1569 c 1,105,-1
 2010 1394 l 1,106,107
 1865 1394 1865 1394 1820 1307 c 0,108,109
 1804 1276 1804 1276 1804 1231 c 128,-1,110
 1804 1186 1804 1186 1811.5 1145.5 c 128,-1,111
 1819 1105 1819 1105 1831.5 1066.5 c 128,-1,112
 1844 1028 1844 1028 1860 992 c 2,113,-1
 1934 828 l 1,114,115
 2005 663 2005 663 2005 476 c 0,116,117
 2005 274 2005 274 1903 144 c 0,118,119
 1788 -3 1788 -3 1584 -2 c 0,120,121
 1433 -2 1433 -2 1323 67 c 1,122,123
 1225 0 1225 0 1087 0 c 0,124,125
 908 0 908 0 804 90 c 0,126,127
 750 136 750 136 706 187 c 128,-1,128
 662 238 662 238 631 267 c 1,0,1
288.5 828 m 128,-1,130
 273 812 273 812 273 789.5 c 128,-1,131
 273 767 273 767 288.5 751.5 c 128,-1,132
 304 736 304 736 326.5 736 c 128,-1,133
 349 736 349 736 365 751.5 c 128,-1,134
 381 767 381 767 381 789.5 c 128,-1,135
 381 812 381 812 365 828 c 128,-1,136
 349 844 349 844 326.5 844 c 128,-1,129
 304 844 304 844 288.5 828 c 128,-1,130
372.5 262 m 128,-1,138
 357 246 357 246 357 223.5 c 128,-1,139
 357 201 357 201 372.5 185.5 c 128,-1,140
 388 170 388 170 410.5 170 c 128,-1,141
 433 170 433 170 449 185.5 c 128,-1,142
 465 201 465 201 465 223.5 c 128,-1,143
 465 246 465 246 449 262 c 128,-1,144
 433 278 433 278 410.5 278 c 128,-1,137
 388 278 388 278 372.5 262 c 128,-1,138
EndSplineSet
EndChar

StartChar: X
Encoding: 88 88 56
Width: 1494
Flags: W
HStem: 0 174<371.908 462.35> 700 170<467 620 845 980> 1394 174<1023.73 1127.18>
VStem: 645 143<1196 1334.59> 678 142<231.934 329>
LayerCount: 2
Fore
SplineSet
1250 1033 m 1,0,-1
 1092 700 l 1,1,-1
 820 700 l 1,2,-1
 820 367 l 2,3,4
 820 251 820 251 903 198 c 0,5,6
 928 182 928 182 956 177 c 1,7,-1
 1101 304 l 1,8,-1
 1213 171 l 1,9,-1
 1038 0 l 1,10,11
 795 0 795 0 710 170 c 0,12,13
 678 234 678 234 678 329 c 1,14,15
 632 182 632 182 593 122 c 0,16,17
 514 0 514 0 417 0 c 0,18,19
 292 0 292 0 236 120 c 1,20,-1
 206 185 l 1,21,-1
 138 46 l 1,22,-1
 -31 90 l 1,23,24
 20 266 20 266 120 334 c 0,25,26
 158 360 158 360 204 359.5 c 128,-1,27
 250 359 250 359 278.5 345.5 c 128,-1,28
 307 332 307 332 324.5 311 c 128,-1,29
 342 290 342 290 352 266 c 2,30,-1
 370 222 l 2,31,32
 378 201 378 201 388.5 187.5 c 128,-1,33
 399 174 399 174 419 174 c 128,-1,34
 439 174 439 174 464 220 c 128,-1,35
 489 266 489 266 515 340.5 c 0,36,37
 542 416 542 416 568 510 c 2,38,-1
 620 700 l 1,39,-1
 467 700 l 1,40,-1
 356 465 l 1,41,-1
 196 541 l 1,42,-1
 371 870 l 1,43,-1
 645 870 l 1,44,-1
 645 1158 l 2,45,46
 645 1367 645 1367 509 1391 c 1,47,-1
 364 1264 l 1,48,-1
 252 1397 l 1,49,-1
 427 1568 l 1,50,51
 680 1568 680 1568 760 1367 c 0,52,53
 788 1296 788 1296 788 1196 c 1,54,-1
 836 1332 l 1,55,56
 890 1478 890 1478 968 1536 c 0,57,58
 1012 1568 1012 1568 1066.5 1568 c 128,-1,59
 1121 1568 1121 1568 1152 1555 c 0,60,61
 1182 1542 1182 1542 1204 1521 c 0,62,63
 1233 1493 1233 1493 1254.5 1451 c 128,-1,64
 1276 1409 1276 1409 1281.5 1399 c 128,-1,65
 1287 1389 1287 1389 1287 1385 c 1,66,-1
 1366 1536 l 1,67,-1
 1524 1478 l 1,68,69
 1467 1298 1467 1298 1372 1234 c 0,70,71
 1334 1208 1334 1208 1289 1208.5 c 128,-1,72
 1244 1209 1244 1209 1217.5 1222.5 c 128,-1,73
 1191 1236 1191 1236 1174.5 1257 c 128,-1,74
 1158 1278 1158 1278 1148 1302 c 2,75,-1
 1129 1346 l 2,76,77
 1108 1394 1108 1394 1079 1394 c 128,-1,78
 1050 1394 1050 1394 1023.5 1350 c 128,-1,79
 997 1306 997 1306 968.5 1233.5 c 0,80,81
 940 1160 940 1160 910 1066 c 2,82,-1
 845 870 l 1,83,-1
 980 870 l 1,84,-1
 1092 1108 l 1,85,-1
 1250 1033 l 1,0,-1
EndSplineSet
EndChar

StartChar: Y
Encoding: 89 89 57
Width: 1476
Flags: W
HStem: -352 174<552.273 873.643> 61 170<360.186 449.674> 566 170<274.984 364.652> 1393 174<319.807 560.627>
VStem: 96 170<745.321 834.377 1162.13 1346.94> 181 170<-38.1188 51.5563> 374 170<745.09 835.312> 459 170.5<-31.0139 44.4984> 707 174<859.344 1217.77> 1078 164<1042.4 1547> 1142 175<103.865 433.641>
LayerCount: 2
Fore
SplineSet
538 664 m 1,0,1
 707 877 707 877 707 1030 c 0,2,3
 706 1166 706 1166 630 1276 c 0,4,5
 550 1392 550 1392 443 1393 c 0,6,7
 360 1393 360 1393 318.5 1355.5 c 128,-1,8
 277 1318 277 1318 277 1267 c 128,-1,9
 277 1216 277 1216 297 1182.5 c 128,-1,10
 317 1149 317 1149 346.5 1118 c 128,-1,11
 376 1087 376 1087 410.5 1055.5 c 0,12,13
 444 1024 444 1024 474 986 c 0,14,15
 544 896 544 896 544 792 c 0,16,17
 544 697 544 697 478.5 631.5 c 128,-1,18
 413 566 413 566 318 566 c 0,19,20
 225 566 225 566 161 632 c 0,21,22
 96 698 96 698 96 792 c 0,23,24
 96 902 96 902 185 970 c 0,25,26
 212 990 212 990 245 1002 c 1,27,28
 177 1052 177 1052 152 1089 c 0,29,30
 102 1163 102 1163 102 1244.5 c 128,-1,31
 102 1326 102 1326 124 1382.5 c 128,-1,32
 146 1439 146 1439 188 1480 c 0,33,34
 278 1567 278 1567 443 1567 c 0,35,36
 622 1568 622 1568 755 1396 c 0,37,38
 881 1234 881 1234 881 1030 c 256,39,40
 882 864 882 864 772 700 c 0,41,42
 742 654 742 654 710 614 c 1,43,44
 717 491 717 491 812 398 c 1,45,-1
 1128 646 l 1,46,47
 1121 723 1121 723 1113.5 790.5 c 128,-1,48
 1106 858 1106 858 1099.5 923.5 c 128,-1,49
 1093 989 1093 989 1087.5 1055 c 0,50,51
 1082 1122 1082 1122 1078 1196 c 0,52,53
 1068 1353 1068 1353 1068 1547 c 1,54,-1
 1242 1547 l 1,55,56
 1235 1228 1235 1228 1275 915 c 0,57,58
 1317 587 1317 587 1317 380 c 128,-1,59
 1317 173 1317 173 1264.5 43.5 c 128,-1,60
 1212 -86 1212 -86 1124 -174 c 0,61,62
 945 -352 945 -352 677 -352 c 0,63,64
 498 -352 498 -352 352 -268 c 0,65,66
 181 -171 181 -171 181 9 c 0,67,68
 181 101 181 101 246 166 c 128,-1,69
 311 231 311 231 403 231 c 0,70,71
 498 231 498 231 564 166 c 0,72,73
 630 102 630 102 629.5 4.5 c 128,-1,74
 629 -93 629 -93 550 -163 c 1,75,76
 612 -178 612 -178 689.5 -178 c 128,-1,77
 767 -178 767 -178 851 -144 c 0,78,79
 936 -110 936 -110 1000 -44 c 0,80,81
 1142 103 1142 103 1142 343 c 2,82,-1
 1142 436 l 1,83,-1
 809 174 l 1,84,85
 538 390 538 390 538 664 c 1,0,1
366.5 45 m 128,-1,87
 351 29 351 29 351 6.5 c 128,-1,88
 351 -16 351 -16 366.5 -31.5 c 128,-1,89
 382 -47 382 -47 404.5 -47 c 128,-1,90
 427 -47 427 -47 443 -31.5 c 128,-1,91
 459 -16 459 -16 459 6.5 c 128,-1,92
 459 29 459 29 443 45 c 128,-1,93
 427 61 427 61 404.5 61 c 128,-1,86
 382 61 382 61 366.5 45 c 128,-1,87
281.5 828 m 128,-1,95
 266 812 266 812 266 789.5 c 128,-1,96
 266 767 266 767 281.5 751.5 c 128,-1,97
 297 736 297 736 319.5 736 c 128,-1,98
 342 736 342 736 358 751.5 c 128,-1,99
 374 767 374 767 374 789.5 c 128,-1,100
 374 812 374 812 358 828 c 128,-1,101
 342 844 342 844 319.5 844 c 128,-1,94
 297 844 297 844 281.5 828 c 128,-1,95
EndSplineSet
EndChar

StartChar: Z
Encoding: 90 90 58
Width: 1255
Flags: W
HStem: 0 174<269 933.602> 1177 163<252.986 328.498> 1333 173<519.31 927.06> 1448 162<245.45 335.718> 1547 20G<906 1123.5>
VStem: 76 161<1348.37 1438.53>
LayerCount: 2
Fore
SplineSet
953 1378 m 1,0,1
 834 1333 834 1333 714 1333 c 128,-1,2
 594 1333 594 1333 506 1363 c 1,3,4
 494 1282 494 1282 434 1230 c 0,5,6
 374 1177 374 1177 291 1177 c 0,7,8
 201 1176 201 1176 139 1240 c 0,9,10
 76 1304 76 1304 76 1395 c 256,11,12
 76 1484 76 1484 139 1547 c 128,-1,13
 202 1610 202 1610 291 1610 c 0,14,15
 364 1610 364 1610 417 1590.5 c 128,-1,16
 470 1571 470 1571 501 1558 c 128,-1,17
 532 1545 532 1545 566 1533 c 0,18,19
 641 1506 641 1506 720 1506 c 0,20,21
 856 1506 856 1506 956 1567 c 1,22,-1
 1119 1567 l 1,23,24
 1128 1502 1128 1502 1128 1407.5 c 128,-1,25
 1128 1313 1128 1313 1108.5 1232.5 c 128,-1,26
 1089 1152 1089 1152 1055.5 1081.5 c 128,-1,27
 1022 1011 1022 1011 976 949 c 128,-1,28
 930 887 930 887 876.5 832 c 0,29,30
 824 776 824 776 766 726 c 1,31,-1
 528 526 l 1,32,33
 316 344 316 344 269 174 c 1,34,-1
 735 174 l 2,35,36
 957 174 957 174 1075 336 c 1,37,-1
 1213 229 l 1,38,39
 1050 0 1050 0 735 0 c 2,40,-1
 80 0 l 1,41,42
 80 258 80 258 222 451 c 0,43,44
 304 563 304 563 391 636 c 2,45,-1
 630 837 l 1,46,47
 938 1104 938 1104 953 1378 c 1,0,1
252.5 1432 m 128,-1,49
 237 1416 237 1416 237 1393.5 c 128,-1,50
 237 1371 237 1371 252.5 1355.5 c 128,-1,51
 268 1340 268 1340 290.5 1340 c 128,-1,52
 313 1340 313 1340 329 1355.5 c 128,-1,53
 345 1371 345 1371 345 1393.5 c 128,-1,54
 345 1416 345 1416 329 1432 c 128,-1,55
 313 1448 313 1448 290.5 1448 c 128,-1,48
 268 1448 268 1448 252.5 1432 c 128,-1,49
EndSplineSet
EndChar

StartChar: bracketleft
Encoding: 91 91 59
Width: 620
Flags: W
HStem: -194 158<316 611> 1435 159<316 611>
VStem: 146 465<-194 -36 1435 1594> 146 170<-36 1435>
LayerCount: 2
Fore
SplineSet
611 -194 m 1,0,-1
 146 -194 l 1,1,-1
 146 1594 l 1,2,-1
 611 1594 l 1,3,-1
 611 1435 l 1,4,-1
 316 1435 l 1,5,-1
 316 -36 l 1,6,-1
 611 -36 l 1,7,-1
 611 -194 l 1,0,-1
EndSplineSet
EndChar

StartChar: backslash
Encoding: 92 92 60
Width: 915
Flags: W
LayerCount: 2
Fore
SplineSet
223 1564 m 1,0,-1
 876 -158 l 1,1,-1
 711 -201 l 1,2,-1
 64 1502 l 1,3,-1
 223 1564 l 1,0,-1
EndSplineSet
EndChar

StartChar: bracketright
Encoding: 93 93 61
Width: 620
Flags: W
HStem: -194 158<9 304> 1435 159<9 304>
VStem: 9 465<-194 -36 1435 1594> 304 170<-36 1435>
LayerCount: 2
Fore
SplineSet
9 -36 m 1,0,-1
 304 -36 l 1,1,-1
 304 1435 l 1,2,-1
 9 1435 l 1,3,-1
 9 1594 l 1,4,-1
 474 1594 l 1,5,-1
 474 -194 l 1,6,-1
 9 -194 l 1,7,-1
 9 -36 l 1,0,-1
EndSplineSet
EndChar

StartChar: asciicircum
Encoding: 94 94 62
Width: 1406
Flags: W
LayerCount: 2
Fore
SplineSet
1156 545 m 1,0,-1
 726 1229 l 1,1,-1
 258 545 l 1,2,-1
 50 545 l 1,3,-1
 677 1459 l 1,4,-1
 782 1459 l 1,5,-1
 1356 545 l 1,6,-1
 1156 545 l 1,0,-1
EndSplineSet
EndChar

StartChar: underscore
Encoding: 95 95 63
Width: 1023
Flags: W
HStem: -316 160<0 1023>
LayerCount: 2
Fore
SplineSet
0 -316 m 1,0,-1
 0 -156 l 1,1,-1
 1023 -156 l 1,2,-1
 1023 -316 l 1,3,-1
 0 -316 l 1,0,-1
EndSplineSet
EndChar

StartChar: grave
Encoding: 96 96 64
Width: 564
Flags: W
HStem: 1298 397
VStem: 50 464
LayerCount: 2
Fore
SplineSet
50 1537 m 1,0,-1
 166 1695 l 1,1,-1
 514 1441 l 1,2,-1
 423 1298 l 1,3,-1
 50 1537 l 1,0,-1
EndSplineSet
EndChar

StartChar: a
Encoding: 97 97 65
Width: 798
Flags: W
HStem: 1210 20G<522.556 587.868> 1210 20G<522.556 587.868>
VStem: 86 170<158.451 817.562> 482 170<302 970>
LayerCount: 2
Fore
SplineSet
256 214 m 2,0,1
 256 175 256 175 288 157 c 1,2,-1
 482 302 l 1,3,-1
 482 970 l 1,4,-1
 342 861 l 2,5,6
 256 794 256 794 256 679 c 2,7,-1
 256 214 l 2,0,1
685 -30 m 1,8,9
 578 36 578 36 529 121 c 1,10,-1
 327 -30 l 1,11,12
 166 -1 166 -1 107 116 c 0,13,14
 86 158 86 158 86 214 c 2,15,-1
 86 679 l 2,16,17
 86 881 86 881 233 991 c 2,18,-1
 549 1230 l 1,19,-1
 652 1177 l 1,20,-1
 652 341 l 2,21,22
 652 264 652 264 682 211 c 128,-1,23
 712 158 712 158 782 109 c 1,24,-1
 685 -30 l 1,8,9
EndSplineSet
EndChar

StartChar: b
Encoding: 98 98 66
Width: 767
Flags: W
HStem: 1210 20G<432.556 559.5> 1210 20G<432.556 559.5> 1676 20G<396.5 439.486>
VStem: 132 170<234 882 1104 1391.47> 542 170<465.303 864.196>
LayerCount: 2
Fore
SplineSet
457 1230 m 1,0,1
 662 1032 662 1032 700 814 c 0,2,3
 712 746 712 746 712 673 c 0,4,5
 712 367 712 367 474 162 c 2,6,-1
 252 -30 l 1,7,-1
 132 37 l 1,8,-1
 132 1226 l 2,9,10
 132 1462 132 1462 311 1616 c 0,11,12
 365 1662 365 1662 428 1696 c 1,13,-1
 513 1548 l 1,14,15
 365 1470 365 1470 319 1330 c 0,16,17
 303 1282 303 1282 303 1226 c 2,18,-1
 303 1104 l 1,19,-1
 457 1230 l 1,0,1
302 882 m 1,20,-1
 302 234 l 1,21,-1
 364 289 l 1,22,23
 542 445 542 445 542 679 c 0,24,25
 542 839 542 839 421 980 c 1,26,-1
 302 882 l 1,20,-1
EndSplineSet
EndChar

StartChar: c
Encoding: 99 99 67
Width: 683
Flags: W
HStem: 1210 20G<434.467 473.524> 1210 20G<434.467 473.524>
VStem: 89 170<192 897.359>
LayerCount: 2
Fore
SplineSet
373 -30 m 1,0,1
 89 52 89 52 89 310 c 2,2,-1
 89 749 l 2,3,4
 88 862 88 862 116 920 c 0,5,6
 162 1019 162 1019 249 1080 c 2,7,-1
 463 1230 l 1,8,-1
 664 848 l 1,9,-1
 525 765 l 1,10,-1
 406 983 l 1,11,-1
 347 941 l 2,12,13
 259 877 259 877 259 749 c 2,14,-1
 259 310 l 2,15,16
 259 206 259 206 340 162 c 1,17,-1
 543 320 l 1,18,-1
 643 180 l 1,19,-1
 373 -30 l 1,0,1
EndSplineSet
EndChar

StartChar: d
Encoding: 100 100 68
Width: 739
Flags: W
HStem: 1677 20G<227 255.759>
VStem: 75 169<1265.98 1509.64> 118 170<234 840> 528 170<442.965 787.338>
LayerCount: 2
Fore
SplineSet
339 1556 m 1,0,1
 244 1489 244 1489 244 1391 c 0,2,3
 244 1269 244 1269 439 1105 c 0,4,5
 560 1003 560 1003 607 930 c 0,6,7
 698 787 698 787 698 641 c 0,8,9
 698 367 698 367 460 162 c 2,10,-1
 238 -30 l 1,11,-1
 118 37 l 1,12,-1
 118 828 l 2,13,14
 118 910 118 910 166 962 c 1,15,-1
 245 1050 l 1,16,17
 75 1202 75 1202 75 1389 c 0,18,19
 75 1532 75 1532 182 1644 c 0,20,21
 212 1676 212 1676 242 1697 c 1,22,-1
 339 1556 l 1,0,1
517 525 m 128,-1,24
 528 569 528 569 528 617 c 128,-1,25
 528 665 528 665 515 709 c 128,-1,26
 502 753 502 753 480 795 c 0,27,28
 438 876 438 876 374 939 c 1,29,-1
 288 840 l 1,30,-1
 288 234 l 1,31,-1
 350 289 l 2,32,33
 446 374 446 374 476 427.5 c 128,-1,23
 506 481 506 481 517 525 c 128,-1,24
EndSplineSet
EndChar

StartChar: e
Encoding: 101 101 69
Width: 702
Flags: W
HStem: 1210 20G<434.467 473.548> 1210 20G<434.467 473.548>
VStem: 89 170<192 541 753 897.712>
LayerCount: 2
Fore
SplineSet
373 -30 m 1,0,1
 89 52 89 52 89 310 c 2,2,-1
 89 749 l 2,3,4
 88 862 88 862 116 920 c 0,5,6
 162 1019 162 1019 249 1080 c 2,7,-1
 463 1230 l 1,8,-1
 665 847 l 1,9,-1
 259 541 l 1,10,-1
 259 310 l 2,11,12
 259 206 259 206 340 162 c 1,13,-1
 543 320 l 1,14,-1
 643 180 l 1,15,-1
 373 -30 l 1,0,1
347 941 m 1,16,17
 261 877 261 877 259 753 c 1,18,-1
 451 895 l 1,19,20
 414 961 414 961 404 982 c 1,21,-1
 347 941 l 1,16,17
EndSplineSet
EndChar

StartChar: f
Encoding: 102 102 70
Width: 596
Flags: W
HStem: 949 171<397 571> 1396 171<335.271 470.681> 1676 20G<552.128 629.5>
VStem: 160 170<1121.81 1394.81> 254 170<-155.344 861.619>
LayerCount: 2
Fore
SplineSet
382 1396 m 0,0,1
 330 1396 330 1396 330 1308 c 0,2,3
 330 1266 330 1266 344 1203 c 2,4,-1
 363 1120 l 1,5,-1
 571 1120 l 1,6,-1
 571 949 l 1,7,-1
 397 949 l 1,8,9
 424 743 424 743 424 556.5 c 128,-1,10
 424 370 424 370 422.5 294 c 0,11,12
 422 218 422 218 416 134 c 0,13,14
 403 -61 403 -61 377 -261 c 1,15,-1
 208 -239 l 1,16,17
 254 101 254 101 254 355 c 0,18,19
 254 732 254 732 229 927 c 1,20,21
 160 899 160 899 90 848 c 1,22,-1
 -13 983 l 1,23,24
 100 1068 100 1068 193 1096 c 1,25,26
 160 1240 160 1240 160 1306 c 128,-1,27
 160 1372 160 1372 172 1416 c 128,-1,28
 184 1460 184 1460 208 1494 c 0,29,30
 261 1568 261 1568 352 1567 c 0,31,32
 422 1567 422 1567 496 1521 c 1,33,-1
 451 1618 l 1,34,-1
 587 1696 l 1,35,36
 672 1547 672 1547 672 1462 c 0,37,38
 672 1376 672 1376 602 1342 c 0,39,40
 578 1330 578 1330 546.5 1330.5 c 128,-1,41
 515 1331 515 1331 491.5 1341 c 0,42,43
 468 1352 468 1352 450 1364 c 2,44,-1
 415 1386 l 2,45,46
 399 1396 399 1396 382 1396 c 0,0,1
EndSplineSet
EndChar

StartChar: g
Encoding: 103 103 71
Width: 784
Flags: W
HStem: -352 171<290.045 473.085> 1211 20G<514.556 580.245> 1211 20G<514.556 580.245>
VStem: -10 333<-168.589 42.9081> 78 171<303.451 818.562> 474 171<451 971> 568 172<-85.2973 225.432>
LayerCount: 2
Fore
SplineSet
289 -170 m 1,0,1
 318 -181 318 -181 358 -181 c 128,-1,2
 398 -181 398 -181 437 -161 c 0,3,4
 476 -140 476 -140 505 -108 c 0,5,6
 568 -37 568 -37 568 52 c 0,7,8
 568 123 568 123 511 258 c 1,9,-1
 319 115 l 1,10,11
 158 144 158 144 99 261 c 0,12,13
 78 303 78 303 78 359 c 2,14,-1
 78 680 l 2,15,16
 78 882 78 882 225 992 c 2,17,-1
 541 1231 l 1,18,-1
 645 1178 l 1,19,-1
 645 453 l 2,20,21
 645 401 645 401 660 355.5 c 0,22,23
 674 310 674 310 692 264 c 0,24,25
 740 138 740 138 740 52.5 c 128,-1,26
 740 -33 740 -33 710 -106 c 0,27,28
 680 -180 680 -180 628 -234 c 0,29,30
 514 -352 514 -352 353 -352 c 0,31,32
 215 -352 215 -352 111 -283 c 0,33,34
 -10 -203 -10 -203 -10 -70 c 0,35,36
 -10 -1 -10 -1 38.5 47.5 c 128,-1,37
 87 96 87 96 156 96 c 0,38,39
 224 96 224 96 274 48 c 0,40,41
 323 0 323 0 323 -62.5 c 128,-1,42
 323 -125 323 -125 289 -170 c 1,0,1
249 359 m 2,43,44
 249 320 249 320 280 302 c 1,45,-1
 474 451 l 1,46,-1
 474 971 l 1,47,-1
 334 862 l 2,48,49
 249 796 249 796 249 680 c 2,50,-1
 249 359 l 2,43,44
EndSplineSet
EndChar

StartChar: h
Encoding: 104 104 72
Width: 836
Flags: W
HStem: 0 21G<134 304> 1210 20G<491.909 630> 1210 20G<491.909 630> 1676 20G<401.5 444.053>
VStem: 134 170<0 833 1054 1398> 574 170<228.25 932.625>
LayerCount: 2
Fore
SplineSet
256 -164 m 1,0,1
 574 150 574 150 574 442 c 2,2,-1
 574 741 l 2,3,4
 574 877 574 877 497 991 c 1,5,-1
 304 833 l 1,6,-1
 304 0 l 1,7,-1
 134 0 l 1,8,-1
 134 1230 l 2,9,10
 134 1472 134 1472 316 1618 c 0,11,12
 370 1662 370 1662 433 1696 c 1,13,-1
 517 1544 l 1,14,15
 412 1488 412 1488 374 1440 c 0,16,17
 305 1351 305 1351 305 1230 c 2,18,-1
 304 1054 l 1,19,-1
 516 1230 l 1,20,21
 744 976 744 976 744 741 c 2,22,-1
 744 442 l 2,23,24
 744 82 744 82 382 -278 c 1,25,-1
 256 -164 l 1,0,1
EndSplineSet
EndChar

StartChar: i
Encoding: 105 105 73
Width: 440
Flags: W
VStem: 121 170<189.539 1203>
LayerCount: 2
Fore
SplineSet
291 1203 m 1,0,-1
 291 341 l 2,1,2
 291 264 291 264 321 211 c 128,-1,3
 351 158 351 158 421 109 c 1,4,-1
 324 -30 l 1,5,6
 161 73 161 73 131 216 c 0,7,8
 121 264 121 264 121 319 c 2,9,-1
 121 1203 l 1,10,-1
 291 1203 l 1,0,-1
290 1274 m 1,11,-1
 132 1327 l 1,12,-1
 251 1609 l 1,13,-1
 428 1538 l 1,14,-1
 290 1274 l 1,11,-1
EndSplineSet
EndChar

StartChar: j
Encoding: 106 106 74
Width: 419
Flags: W
HStem: -352 21G<-76.2121 12> 1209 20G<126 297> 1209 20G<126 297>
VStem: 126 171<-6.67261 1229>
LayerCount: 2
Fore
SplineSet
297 1229 m 1,0,-1
 297 307 l 2,1,2
 297 145 297 145 284 69.5 c 128,-1,3
 271 -6 271 -6 248.5 -68.5 c 128,-1,4
 226 -131 226 -131 185 -185 c 0,5,6
 95 -304 95 -304 -71 -352 c 1,7,-1
 -114 -187 l 1,8,9
 114 -121 114 -121 124 214 c 0,10,11
 126 263 126 263 126 307 c 2,12,-1
 126 1229 l 1,13,-1
 297 1229 l 1,0,-1
302 1274 m 1,14,-1
 144 1327 l 1,15,-1
 263 1609 l 1,16,-1
 440 1538 l 1,17,-1
 302 1274 l 1,14,-1
EndSplineSet
EndChar

StartChar: k
Encoding: 107 107 75
Width: 871
Flags: W
HStem: 0 21G<134 304> 1676 20G<401.5 444.053>
VStem: 134 170<0 742 959 1398> 548 170<189.284 600.259> 576 171<322.754 739.582>
LayerCount: 2
Fore
SplineSet
304 959 m 1,0,1
 685 1257 l 1,2,-1
 781 1118 l 1,3,-1
 569 951 l 1,4,5
 661 863 661 863 693 803 c 0,6,7
 747 702 747 702 747 598 c 0,8,9
 747 545 747 545 737 482 c 0,10,11
 718 361 718 361 718 321.5 c 128,-1,12
 718 282 718 282 724.5 259 c 128,-1,13
 731 236 731 236 746 212 c 0,14,15
 775 165 775 165 848 105 c 1,16,-1
 746 -29 l 1,17,18
 588 94 588 94 558 221 c 0,19,20
 548 262 548 262 548 303 c 128,-1,21
 548 344 548 344 552.5 379 c 128,-1,22
 557 414 557 414 562 449 c 0,23,24
 576 548 576 548 576 606 c 0,25,26
 576 727 576 727 434 843 c 1,27,-1
 304 742 l 1,28,-1
 304 0 l 1,29,-1
 134 0 l 1,30,-1
 134 1230 l 2,31,32
 134 1472 134 1472 316 1618 c 0,33,34
 370 1662 370 1662 433 1696 c 1,35,-1
 517 1544 l 1,36,37
 412 1488 412 1488 374 1440 c 0,38,39
 304 1350 304 1350 304 1230 c 2,40,-1
 304 959 l 1,0,1
EndSplineSet
EndChar

StartChar: l
Encoding: 108 108 76
Width: 439
Flags: W
HStem: 0 21G<134 305> 1676 20G<401.5 444.053>
VStem: 134 171<0 1402.52>
LayerCount: 2
Fore
SplineSet
517 1544 m 1,0,1
 412 1488 412 1488 374 1440 c 0,2,3
 305 1351 305 1351 305 1230 c 2,4,-1
 305 0 l 1,5,-1
 134 0 l 1,6,-1
 134 1230 l 2,7,8
 134 1472 134 1472 316 1618 c 0,9,10
 370 1662 370 1662 433 1696 c 1,11,-1
 517 1544 l 1,0,1
EndSplineSet
EndChar

StartChar: m
Encoding: 109 109 77
Width: 1238
Flags: W
HStem: 0 21G<142 313 538 709> 1210 20G<491.545 568.5 874.421 976> 1213 20G<113.62 192.5 491.545 568.5 874.421 976>
VStem: 142 171<0 854> 538 171<0 860.185> 920.5 171.5<189.531 759.298> 950 171<301.445 938.453>
LayerCount: 2
Fore
SplineSet
706 861 m 1,0,1
 709 835 709 835 709 800 c 2,2,-1
 709 0 l 1,3,-1
 538 0 l 1,4,-1
 538 800 l 2,5,6
 538 915 538 915 490 992 c 1,7,-1
 313 854 l 1,8,-1
 313 0 l 1,9,-1
 142 0 l 1,10,-1
 142 938 l 2,11,12
 142 1000 142 1000 70 1062 c 0,13,14
 50 1079 50 1079 32 1091 c 1,15,-1
 127 1233 l 1,16,17
 258 1148 258 1148 293 1054 c 1,18,-1
 517 1230 l 1,19,20
 620 1113 620 1113 657 1039 c 1,21,-1
 900 1229 l 1,22,23
 1052 1059 1052 1059 1103 885 c 0,24,25
 1121 823 1121 823 1121 762 c 256,26,27
 1121 679 1121 679 1111 580 c 0,28,29
 1092 392 1092 392 1092 298.5 c 128,-1,30
 1092 205 1092 205 1222 106 c 1,31,-1
 1120 -29 l 1,32,33
 960 95 960 95 930 221 c 0,34,35
 920 262 920 262 920.5 314 c 128,-1,36
 921 366 921 366 925.5 421.5 c 0,37,38
 930 478 930 478 936 532 c 0,39,40
 950 676 950 676 950 762 c 256,41,42
 950 878 950 878 875 992 c 1,43,-1
 706 861 l 1,0,1
EndSplineSet
EndChar

StartChar: n
Encoding: 110 110 78
Width: 854
Flags: W
HStem: 0 21G<141 312> 1210 20G<490.4 592> 1210 20G<490.4 592>
VStem: 141 171<0 855> 536.5 171.5<189.709 760.267> 566 170<279.663 935.273>
LayerCount: 2
Fore
SplineSet
708 305 m 0,0,1
 708 205 708 205 838 106 c 1,2,-1
 735 -29 l 1,3,4
 576 94 576 94 546 221 c 0,5,6
 536 262 536 262 536.5 314 c 128,-1,7
 537 366 537 366 541.5 421.5 c 0,8,9
 546 478 546 478 552 532 c 0,10,11
 566 676 566 676 566 763 c 256,12,13
 566 877 566 877 489 994 c 1,14,-1
 312 855 l 1,15,-1
 312 0 l 1,16,-1
 141 0 l 1,17,-1
 141 940 l 2,18,19
 141 1002 141 1002 70 1064 c 0,20,21
 51 1080 51 1080 32 1092 c 1,22,-1
 126 1235 l 1,23,24
 256 1150 256 1150 292 1055 c 1,25,-1
 516 1230 l 1,26,27
 668 1060 668 1060 718 886 c 0,28,29
 736 824 736 824 736 763 c 256,30,31
 736 690 736 690 726 586 c 0,32,33
 708 382 708 382 708 305 c 0,0,1
EndSplineSet
EndChar

StartChar: o
Encoding: 111 111 79
Width: 749
Flags: W
HStem: 1211 20G<418.647 492> 1211 20G<418.647 492>
VStem: 98 170<219 914.359> 493 170<353.318 1017.05>
LayerCount: 2
Fore
SplineSet
98 28 m 1,0,-1
 98 796 l 2,1,2
 98 969 98 969 221 1061 c 2,3,-1
 445 1231 l 1,4,5
 539 1167 539 1167 580 1118 c 0,6,7
 663 1018 663 1018 663 915 c 2,8,-1
 663 452 l 2,9,10
 663 305 663 305 540 212 c 2,11,-1
 215 -31 l 1,12,-1
 98 28 l 1,0,-1
322 924 m 2,13,14
 268 881 268 881 268 796 c 2,15,-1
 268 219 l 1,16,-1
 440 344 l 2,17,18
 493 382 493 382 493 452 c 2,19,-1
 493 915 l 2,20,21
 493 973 493 973 446 1020 c 1,22,-1
 322 924 l 2,13,14
EndSplineSet
EndChar

StartChar: p
Encoding: 112 112 80
Width: 891
Flags: W
HStem: -352 21G<197 368> 0 21G<-65 115> 103 171<120.341 197> 1210 20G<552.829 594.143> 1210 20G<552.829 594.143>
VStem: -65 170<0 100.007> 126 171<1021.07 1178.21> 197 171<-352 21 271 834> 633 171<283.594 947.934>
LayerCount: 2
Fore
SplineSet
159 103 m 0,0,1
 125 103 125 103 105 0 c 1,2,-1
 -65 0 l 1,3,4
 -26 274 -26 274 159 274 c 0,5,6
 179 274 179 274 197 271 c 1,7,-1
 197 854 l 2,8,9
 196 895 196 895 172 955 c 0,10,11
 126 1069 126 1069 126 1108 c 128,-1,12
 126 1147 126 1147 133.5 1174 c 128,-1,13
 141 1201 141 1201 159 1228 c 0,14,15
 194 1281 194 1281 279 1354 c 1,16,-1
 395 1226 l 1,17,-1
 348 1184 l 1,18,19
 297 1137 297 1137 297 1109 c 0,20,21
 297 1064 297 1064 322 1019 c 1,22,-1
 577 1230 l 1,23,-1
 661 1132 l 1,24,25
 751 1026 751 1026 777.5 950.5 c 128,-1,26
 804 875 804 875 804 817 c 2,27,-1
 804 427 l 2,28,29
 804 231 804 231 676 131 c 2,30,-1
 469 -30 l 1,31,-1
 368 21 l 1,32,-1
 368 -352 l 1,33,-1
 197 -352 l 1,34,-1
 197 99 l 1,35,36
 177 103 177 103 159 103 c 0,0,1
368 834 m 1,37,-1
 368 213 l 1,38,39
 413 189 413 189 426 182.5 c 128,-1,40
 439 176 439 176 451 169 c 1,41,-1
 569 263 l 2,42,43
 633 314 633 314 633 427 c 2,44,-1
 633 817 l 2,45,46
 633 896 633 896 558 992 c 1,47,-1
 368 834 l 1,37,-1
EndSplineSet
EndChar

StartChar: q
Encoding: 113 113 81
Width: 785
Flags: W
HStem: -352 21G<603.5 698.957> 1210 20G<522.556 587.868> 1210 20G<522.556 587.868>
VStem: 86 171<156.451 817.562> 482 170<-132.461 84 300 970>
LayerCount: 2
Fore
SplineSet
257 212 m 2,0,1
 257 173 257 173 288 155 c 1,2,-1
 482 300 l 1,3,-1
 482 970 l 1,4,-1
 342 861 l 1,5,6
 257 793 257 793 257 679 c 2,7,-1
 257 212 l 2,0,1
482 84 m 1,8,-1
 327 -30 l 1,9,10
 165 -1 165 -1 107 114 c 0,11,12
 86 156 86 156 86 212 c 2,13,-1
 86 679 l 2,14,15
 86 881 86 881 233 991 c 2,16,-1
 549 1230 l 1,17,-1
 652 1177 l 1,18,-1
 652 19 l 2,19,20
 652 -58 652 -58 682 -111 c 128,-1,21
 712 -164 712 -164 782 -213 c 1,22,-1
 685 -352 l 1,23,24
 522 -249 522 -249 492 -106 c 0,25,26
 482 -58 482 -58 482 -3 c 2,27,-1
 482 84 l 1,8,-1
EndSplineSet
EndChar

StartChar: r
Encoding: 114 114 82
Width: 635
Flags: W
HStem: 0 21G<141 311> 1210 20G<111.993 178 414.627 506> 1210 20G<111.993 178 414.627 506>
VStem: 141 170<0 880>
LayerCount: 2
Fore
SplineSet
125 1230 m 1,0,1
 231 1165 231 1165 270 1096 c 1,2,-1
 440 1230 l 1,3,4
 572 1105 572 1105 648 899 c 1,5,-1
 497 812 l 1,6,7
 464 901 464 901 416 963 c 1,8,-1
 311 880 l 1,9,-1
 311 0 l 1,10,-1
 141 0 l 1,11,-1
 141 935 l 2,12,13
 141 1014 141 1014 32 1087 c 1,14,-1
 125 1230 l 1,0,1
EndSplineSet
EndChar

StartChar: s
Encoding: 115 115 83
Width: 895
Flags: W
HStem: 1230 21G<249 451> 1230 21G<249 451> 1301 172<450.683 646.261>
VStem: 89 169<319.188 486.583> 654.5 170<329.981 637.183> 687 171<1069.3 1263.25>
LayerCount: 2
Fore
SplineSet
551 1301 m 0,0,1
 470 1301 470 1301 432 1230 c 1,2,-1
 249 1230 l 1,3,4
 271 1336 271 1336 355 1404 c 0,5,6
 441 1474 441 1474 550 1473 c 0,7,8
 678 1473 678 1473 768 1383 c 128,-1,9
 858 1293 858 1293 858 1165 c 0,10,11
 858 1006 858 1006 728 914 c 0,12,13
 688 886 688 886 642 871 c 1,14,15
 768 750 768 750 810 594 c 0,16,17
 824 542 824 542 824.5 474.5 c 128,-1,18
 825 407 825 407 797 327.5 c 0,19,20
 768 248 768 248 714 179 c 0,21,22
 598 33 598 33 399 -30 c 1,23,-1
 247 121 l 2,24,25
 89 279 89 279 89 400 c 0,26,27
 89 488 89 488 166 578 c 1,28,-1
 276 452 l 1,29,30
 258 427 258 427 258 409 c 128,-1,31
 258 391 258 391 268.5 370.5 c 128,-1,32
 279 350 279 350 296 327 c 0,33,34
 312 304 312 304 334 280 c 2,35,-1
 440 167 l 1,36,37
 592 248 592 248 640 399 c 0,38,39
 654 445 654 445 654.5 496 c 128,-1,40
 655 547 655 547 630.5 599.5 c 128,-1,41
 606 652 606 652 571 687 c 1,42,-1
 331 506 l 1,43,-1
 25 882 l 1,44,-1
 363 1183 l 1,45,-1
 433 1097 l 2,46,47
 487 1030 487 1030 551 1030 c 0,48,49
 608 1030 608 1030 647.5 1069.5 c 128,-1,50
 687 1109 687 1109 687 1165 c 256,51,52
 687 1222 687 1222 647.5 1261.5 c 128,-1,53
 608 1301 608 1301 551 1301 c 0,0,1
523 858 m 1,54,55
 418 868 418 868 340 939 c 1,56,-1
 257 871 l 1,57,-1
 359 736 l 1,58,-1
 523 858 l 1,54,55
EndSplineSet
EndChar

StartChar: t
Encoding: 116 116 84
Width: 614
Flags: W
HStem: 950 170<113.742 213 406 585>
VStem: 213 169<189.634 950>
LayerCount: 2
Fore
SplineSet
213 950 m 1,0,1
 168 950 168 950 90 888 c 2,2,-1
 66 868 l 1,3,-1
 -22 1004 l 1,4,-1
 34 1044 l 2,5,6
 139 1120 139 1120 229 1120 c 1,7,-1
 318 1428 l 1,8,-1
 482 1384 l 1,9,-1
 406 1120 l 1,10,-1
 585 1120 l 1,11,-1
 585 950 l 1,12,-1
 382 950 l 1,13,-1
 382 579 l 2,14,15
 382 465 382 465 382.5 364.5 c 128,-1,16
 383 264 383 264 413 211 c 128,-1,17
 443 158 443 158 513 109 c 1,18,-1
 416 -30 l 1,19,20
 253 73 253 73 223 216 c 0,21,22
 213 264 213 264 213 319 c 2,23,-1
 213 950 l 1,0,1
EndSplineSet
EndChar

StartChar: u
Encoding: 117 117 85
Width: 861
Flags: W
HStem: 1211 20G<103.889 198.5> 1211 20G<103.889 198.5>
VStem: 118 171<262.215 927.549> 147 170.5<447.27 1011.54> 543 170<345 1199>
LayerCount: 2
Fore
SplineSet
17 1096 m 1,0,-1
 119 1231 l 1,1,2
 278 1108 278 1108 308 981 c 0,3,4
 318 940 318 940 317.5 887.5 c 128,-1,5
 317 835 317 835 312.5 779.5 c 128,-1,6
 308 724 308 724 303 670 c 0,7,8
 289 517 289 517 289 445 c 0,9,10
 289 319 289 319 365 207 c 1,11,-1
 543 345 l 1,12,-1
 543 1199 l 1,13,-1
 713 1199 l 1,14,-1
 713 341 l 2,15,16
 713 264 713 264 743 211 c 128,-1,17
 773 158 773 158 843 109 c 1,18,-1
 746 -30 l 1,19,20
 621 49 621 49 574 154 c 1,21,-1
 338 -30 l 1,22,23
 187 139 187 139 136 313 c 0,24,25
 118 375 118 375 118 437 c 256,26,27
 118 521 118 521 128 620 c 0,28,29
 147 808 147 808 147 901 c 128,-1,30
 147 994 147 994 17 1096 c 1,0,-1
EndSplineSet
EndChar

StartChar: v
Encoding: 118 118 86
Width: 776
Flags: W
HStem: 1210 20G<137.89 200.5 451.835 490.182> 1210 20G<137.89 200.5 451.835 490.182>
VStem: 139 170<240 1052.83> 533 170<392.666 943.693>
LayerCount: 2
Fore
SplineSet
139 962 m 2,0,1
 138 1000 138 1000 122 1022 c 0,2,3
 99 1053 99 1053 41 1103 c 1,4,-1
 156 1230 l 1,5,6
 245 1151 245 1151 270 1115 c 0,7,8
 309 1056 309 1056 309 992 c 2,9,-1
 309 240 l 1,10,-1
 459 361 l 2,11,12
 533 420 533 420 533 552 c 2,13,-1
 533 798 l 2,14,15
 534 891 534 891 466 977 c 0,16,17
 446 1003 446 1003 421 1030 c 2,18,-1
 350 1109 l 1,19,-1
 472 1230 l 1,20,-1
 542 1153 l 2,21,22
 620 1068 620 1068 648 1015 c 0,23,24
 703 913 703 913 703 801 c 2,25,-1
 703 552 l 2,26,27
 703 342 703 342 568 230 c 2,28,-1
 254 -30 l 1,29,-1
 139 45 l 1,30,-1
 139 962 l 2,0,1
EndSplineSet
EndChar

StartChar: w
Encoding: 119 119 87
Width: 1170
Flags: W
HStem: 1210 20G<137.89 200.5 531.89 594.5 845.835 884.182> 1210 20G<137.89 200.5 531.89 594.5 845.835 884.182>
VStem: 139 170<240 1052.83> 533 170<390.875 1052.83> 927 170<392.666 943.693>
CounterMasks: 1 38
LayerCount: 2
Fore
SplineSet
309 240 m 1,0,-1
 459 361 l 2,1,2
 529 417 529 417 533 539 c 1,3,-1
 533 962 l 2,4,5
 532 1000 532 1000 516 1022 c 0,6,7
 493 1053 493 1053 435 1103 c 1,8,-1
 550 1230 l 1,9,10
 639 1151 639 1151 664 1115 c 0,11,12
 703 1056 703 1056 703 992 c 2,13,-1
 703 240 l 1,14,-1
 853 361 l 2,15,16
 927 420 927 420 927 552 c 2,17,-1
 927 798 l 2,18,19
 928 891 928 891 860 977 c 0,20,21
 840 1003 840 1003 815 1030 c 2,22,-1
 744 1109 l 1,23,-1
 866 1230 l 1,24,-1
 936 1153 l 2,25,26
 1014 1068 1014 1068 1042 1015 c 0,27,28
 1097 913 1097 913 1097 801 c 2,29,-1
 1097 552 l 2,30,31
 1097 342 1097 342 962 230 c 2,32,-1
 648 -30 l 1,33,-1
 533 45 l 1,34,-1
 533 201 l 1,35,-1
 254 -30 l 1,36,-1
 139 45 l 1,37,-1
 139 962 l 2,38,39
 138 1000 138 1000 122 1022 c 0,40,41
 99 1053 99 1053 41 1103 c 1,42,-1
 156 1230 l 1,43,44
 245 1151 245 1151 270 1115 c 0,45,46
 309 1056 309 1056 309 992 c 2,47,-1
 309 240 l 1,0,-1
EndSplineSet
EndChar

StartChar: x
Encoding: 120 120 88
Width: 815
Flags: W
HStem: -352 171<313.9 460> 74 170<587.949 776> 1028 172<37 200.871> 1212 20G<660.205 695.759>
VStem: 70 170<-105.802 170.297> 301 171<407.348 836.5> 443 333<-179.672 7.45715>
LayerCount: 2
Fore
SplineSet
460 -181 m 1,0,1
 443 -145 443 -145 443 -108.5 c 128,-1,2
 443 -72 443 -72 456 -41.5 c 0,3,4
 470 -10 470 -10 492 12 c 0,5,6
 540 60 540 60 609 60 c 0,7,8
 677 60 677 60 727 12 c 0,9,10
 776 -36 776 -36 776 -103.5 c 128,-1,11
 776 -171 776 -171 746.5 -217.5 c 128,-1,12
 717 -264 717 -264 669 -294 c 0,13,14
 576 -352 576 -352 467 -352 c 128,-1,15
 358 -352 358 -352 289 -321.5 c 0,16,17
 220 -292 220 -292 172 -240 c 0,18,19
 70 -132 70 -132 70 21 c 0,20,21
 70 120 70 120 99 179 c 0,22,23
 137 257 137 257 177 305 c 2,24,-1
 236 378 l 1,25,26
 301 460 301 460 301 545 c 2,27,-1
 301 814 l 2,28,29
 301 906 301 906 227 966 c 0,30,31
 151 1028 151 1028 37 1028 c 1,32,-1
 37 1200 l 1,33,34
 242 1200 242 1200 366 1078 c 0,35,36
 404 1041 404 1041 427 998 c 1,37,-1
 682 1232 l 1,38,-1
 779 1091 l 1,39,-1
 558 883 l 1,40,41
 472 807 472 807 472 702 c 2,42,-1
 472 468 l 2,43,44
 472 370 472 370 560 306 c 0,45,46
 646 244 646 244 776 244 c 1,47,-1
 776 74 l 1,48,49
 570 74 570 74 432 178 c 0,50,51
 385 214 385 214 357 263 c 1,52,53
 339 240 339 240 318 216 c 128,-1,54
 297 192 297 192 280 163 c 0,55,56
 240 95 240 95 240 38 c 128,-1,57
 240 -19 240 -19 254.5 -55.5 c 128,-1,58
 269 -92 269 -92 296 -120 c 0,59,60
 355 -181 355 -181 444 -181 c 2,61,-1
 460 -181 l 1,0,1
EndSplineSet
EndChar

StartChar: y
Encoding: 121 121 89
Width: 855
Flags: W
HStem: -352 171<353.045 535.521> 1210 20G<141.89 204.5 455.835 494.182> 1210 20G<141.89 204.5 455.835 494.182>
VStem: 53 333<-168.589 42.9081> 142 171<327 1055.98> 537 170<428 943.693> 632 170<-83.2122 206.764>
LayerCount: 2
Fore
SplineSet
352 -170 m 1,0,1
 381 -181 381 -181 421 -181 c 128,-1,2
 461 -181 461 -181 500 -161 c 0,3,4
 538 -140 538 -140 568 -108 c 0,5,6
 632 -38 632 -38 632 52 c 0,7,8
 632 109 632 109 607.5 162.5 c 128,-1,9
 583 216 583 216 573 240 c 1,10,-1
 383 88 l 1,11,12
 365 100 365 100 339 116 c 2,13,-1
 282 148 l 1,14,15
 210 188 210 188 142 214 c 1,16,-1
 142 962 l 2,17,18
 142 1014 142 1014 92 1062 c 0,19,20
 74 1080 74 1080 45 1103 c 1,21,-1
 160 1230 l 1,22,23
 249 1151 249 1151 274 1115 c 0,24,25
 313 1056 313 1056 313 992 c 2,26,-1
 313 327 l 1,27,28
 329 319 329 319 345 311 c 128,-1,29
 361 303 361 303 373 296 c 1,30,-1
 537 428 l 1,31,-1
 537 798 l 2,32,33
 538 891 538 891 470 977 c 0,34,35
 450 1003 450 1003 425 1030 c 2,36,-1
 354 1109 l 1,37,-1
 476 1230 l 1,38,-1
 546 1153 l 2,39,40
 624 1068 624 1068 652 1015 c 0,41,42
 707 913 707 913 707 801 c 2,43,-1
 707 434 l 2,44,45
 707 386 707 386 722 340.5 c 0,46,47
 736 294 736 294 754 248 c 0,48,49
 802 122 802 122 802 44.5 c 128,-1,50
 802 -33 802 -33 772 -106 c 0,51,52
 742 -180 742 -180 690 -234 c 0,53,54
 576 -352 576 -352 416 -352 c 0,55,56
 278 -352 278 -352 174 -283 c 0,57,58
 53 -203 53 -203 53 -70 c 0,59,60
 53 -1 53 -1 101.5 47.5 c 128,-1,61
 150 96 150 96 219 96 c 0,62,63
 287 96 287 96 337 48 c 0,64,65
 386 0 386 0 386 -62.5 c 128,-1,66
 386 -125 386 -125 352 -170 c 1,0,1
EndSplineSet
EndChar

StartChar: z
Encoding: 122 122 90
Width: 763
Flags: W
HStem: -352 170<271.697 418.635> 1211 20G<251.769 341> 1211 20G<251.769 341>
VStem: 69 170<-155.01 199.102> 396 170<774.128 998.708> 498 170<-86.4696 288.44>
LayerCount: 2
Fore
SplineSet
31 1036 m 1,0,-1
 277 1231 l 1,1,2
 405 1175 405 1175 459 1123.5 c 128,-1,3
 513 1072 513 1072 539.5 1020 c 128,-1,4
 566 968 566 968 566 918.5 c 128,-1,5
 566 869 566 869 555 834.5 c 128,-1,6
 544 800 544 800 528 766 c 0,7,8
 496 698 496 698 454 643 c 1,9,10
 473 660 473 660 504 684 c 0,11,12
 623 774 623 774 666 800 c 1,13,-1
 753 653 l 1,14,15
 664 595 664 595 632 574 c 2,16,-1
 572 530 l 2,17,18
 543 508 543 508 521 490 c 1,19,20
 597 407 597 407 624 339 c 0,21,22
 668 224 668 224 668 82 c 128,-1,23
 668 -60 668 -60 583 -196 c 0,24,25
 524 -290 524 -290 436 -331 c 0,26,27
 390 -352 390 -352 335 -352 c 128,-1,28
 280 -352 280 -352 231.5 -327.5 c 128,-1,29
 183 -303 183 -303 147 -257 c 0,30,31
 69 -157 69 -157 69 4 c 0,32,33
 69 183 69 183 181 356 c 0,34,35
 214 407 214 407 250 446 c 1,36,37
 230 461 230 461 205 475 c 2,38,-1
 164 496 l 2,39,40
 148 504 148 504 133 511 c 1,41,42
 344 733 344 733 382 832 c 0,43,44
 396 868 396 868 396 910.5 c 128,-1,45
 396 953 396 953 367 984 c 128,-1,46
 338 1015 338 1015 296 1029 c 1,47,-1
 133 899 l 1,48,-1
 31 1036 l 1,0,-1
485 -8.5 m 128,-1,50
 498 39 498 39 498 82 c 128,-1,51
 498 125 498 125 492 165.5 c 128,-1,52
 486 206 486 206 473 243 c 0,53,54
 445 323 445 323 397 367 c 1,55,56
 288 258 288 258 251 104 c 0,57,58
 239 54 239 54 239 7.5 c 128,-1,59
 239 -39 239 -39 247 -73.5 c 128,-1,60
 255 -108 255 -108 268 -132 c 0,61,62
 295 -182 295 -182 332 -182 c 128,-1,63
 369 -182 369 -182 398 -157.5 c 128,-1,64
 427 -133 427 -133 449.5 -94.5 c 128,-1,49
 472 -56 472 -56 485 -8.5 c 128,-1,50
EndSplineSet
EndChar

StartChar: braceleft
Encoding: 123 123 91
Width: 585
Flags: W
HStem: -242 170<390.471 518> 1396 171<388.812 518>
VStem: 197 170<-25.1765 536.848 769.25 1369.33>
LayerCount: 2
Fore
SplineSet
367 863 m 2,0,1
 367 726 367 726 304 653 c 1,2,3
 367 572 367 572 367 445 c 2,4,-1
 367 71 l 2,5,6
 367 0 367 0 389 -26 c 0,7,8
 429 -72 429 -72 518 -72 c 1,9,-1
 518 -242 l 1,10,11
 247 -242 247 -242 209 -56 c 0,12,13
 197 2 197 2 197 71 c 2,14,-1
 197 445 l 2,15,16
 197 548 197 548 -28 660 c 1,17,18
 159 744 159 744 188 818 c 0,19,20
 197 840 197 840 197 863 c 2,21,-1
 197 1259 l 2,22,23
 197 1418 197 1418 257 1486 c 0,24,25
 329 1568 329 1568 518 1567 c 1,26,-1
 518 1396 l 1,27,28
 391 1396 391 1396 373 1318 c 0,29,30
 367 1292 367 1292 367 1259 c 2,31,-1
 367 863 l 2,0,1
EndSplineSet
EndChar

StartChar: bar
Encoding: 124 124 92
Width: 464
Flags: W
HStem: 1548 20G<147 317>
VStem: 147 170<-134 1568>
LayerCount: 2
Fore
SplineSet
147 1568 m 1,0,-1
 317 1568 l 1,1,-1
 317 -134 l 1,2,-1
 147 -134 l 1,3,-1
 147 1568 l 1,0,-1
EndSplineSet
EndChar

StartChar: braceright
Encoding: 125 125 93
Width: 585
Flags: W
HStem: -242 170<67 191.969> 1396 171<67 194.769>
VStem: 218 170<-45.8066 536.848 772.797 1353.24>
LayerCount: 2
Fore
SplineSet
281 653 m 1,0,1
 218 726 218 726 218 863 c 2,2,-1
 218 1259 l 2,3,4
 218 1330 218 1330 196 1354 c 0,5,6
 157 1396 157 1396 67 1396 c 1,7,-1
 67 1567 l 1,8,9
 256 1568 256 1568 328 1486 c 0,10,11
 388 1418 388 1418 388 1259 c 2,12,-1
 388 863 l 2,13,14
 388 814 388 814 422 780 c 0,15,16
 483 719 483 719 613 660 c 1,17,18
 388 548 388 548 388 445 c 2,19,-1
 388 71 l 2,20,21
 388 -86 388 -86 329 -155 c 0,22,23
 255 -242 255 -242 67 -242 c 1,24,-1
 67 -72 l 1,25,26
 194 -72 194 -72 212 13 c 0,27,28
 218 39 218 39 218 71 c 2,29,-1
 218 445 l 2,30,31
 218 572 218 572 281 653 c 1,0,1
EndSplineSet
EndChar

StartChar: asciitilde
Encoding: 126 126 94
Width: 927
Flags: W
HStem: 1150 179<511.003 688.529> 1259 180<261.817 444.276>
LayerCount: 2
Fore
SplineSet
38 1176 m 1,0,1
 137 1439 137 1439 335 1439 c 0,2,3
 408 1439 408 1439 494 1384 c 0,4,5
 527 1363 527 1363 557 1346 c 128,-1,6
 587 1329 587 1329 613 1329 c 128,-1,7
 639 1329 639 1329 656.5 1342 c 128,-1,8
 674 1355 674 1355 691 1376 c 128,-1,9
 708 1397 708 1397 724 1424 c 2,10,-1
 758 1480 l 1,11,-1
 907 1394 l 1,12,13
 838 1274 838 1274 798 1233 c 0,14,15
 717 1150 717 1150 620 1150 c 0,16,17
 554 1150 554 1150 462 1204 c 1,18,-1
 396 1242 l 2,19,20
 365 1259 365 1259 330.5 1259 c 128,-1,21
 296 1259 296 1259 263.5 1219.5 c 128,-1,22
 231 1180 231 1180 190 1100 c 1,23,-1
 38 1176 l 1,0,1
EndSplineSet
EndChar

StartChar: exclamdown
Encoding: 161 161 95
Width: 443
Flags: W
HStem: -352 21G<130 301>
VStem: 130 171<-352 797>
LayerCount: 2
Fore
SplineSet
130 -352 m 1,0,-1
 130 797 l 1,1,-1
 301 797 l 1,2,-1
 301 -352 l 1,3,-1
 130 -352 l 1,0,-1
160 1283 m 1,4,-1
 330 1272 l 1,5,-1
 301 879 l 1,6,-1
 130 890 l 1,7,-1
 160 1283 l 1,4,-1
EndSplineSet
EndChar

StartChar: cent
Encoding: 162 162 96
Width: 747
Flags: W
VStem: 98 170<327.085 1066.53> 342 170<-85 125.938 1321 1617>
LayerCount: 2
Fore
SplineSet
534 933 m 1,0,-1
 415 1150 l 1,1,-1
 356 1108 l 1,2,3
 268 1049 268 1049 268 917 c 2,4,-1
 268 436 l 2,5,6
 268 384 268 384 304.5 337 c 128,-1,7
 341 290 341 290 402 264 c 1,8,-1
 564 387 l 1,9,-1
 684 267 l 1,10,-1
 512 136 l 1,11,-1
 512 -85 l 1,12,-1
 342 -85 l 1,13,-1
 342 108 l 1,14,15
 166 174 166 174 114 332 c 0,16,17
 98 382 98 382 98 436 c 2,18,-1
 98 917 l 2,19,20
 98 1026 98 1026 134 1106 c 128,-1,21
 170 1186 170 1186 257 1247 c 2,22,-1
 342 1306 l 1,23,-1
 342 1617 l 1,24,-1
 512 1617 l 1,25,-1
 512 1321 l 1,26,-1
 673 1015 l 1,27,-1
 534 933 l 1,0,-1
EndSplineSet
EndChar

StartChar: sterling
Encoding: 163 163 97
Width: 1488
Flags: W
HStem: -3 171<311.986 350 894.776 1161.5> 278 170<298.462 452.026> 565 165<79 455 641.53 977> 1397 170<571.888 852.112>
VStem: 126 170<179.09 272.583> 296.5 170.5<977.68 1291.93> 957 170<1152 1292.11> 1263 171<283.146 441>
LayerCount: 2
Fore
SplineSet
650 565 m 1,0,1
 636 462 636 462 573 408 c 1,2,3
 630 386 630 386 698 340 c 2,4,-1
 806 266 l 2,5,6
 949 168 949 168 1047 168 c 0,7,8
 1140 168 1140 168 1205 260 c 0,9,10
 1263 342 1263 342 1263 441 c 1,11,-1
 1434 441 l 1,12,13
 1434 282 1434 282 1330 146 c 0,14,15
 1216 -2 1216 -2 1047 -3 c 0,16,17
 894 -2 894 -2 700 138 c 0,18,19
 584 222 584 222 508 250 c 128,-1,20
 432 278 432 278 382 278 c 0,21,22
 296 278 296 278 296 224 c 0,23,24
 296 201 296 201 311.5 185.5 c 128,-1,25
 327 170 327 170 350 170 c 1,26,-1
 350 0 l 1,27,28
 257 0 257 0 191.5 65.5 c 128,-1,29
 126 131 126 131 126 226 c 128,-1,30
 126 321 126 321 194 383 c 0,31,32
 264 448 264 448 370 448 c 0,33,34
 422 448 422 448 453 488 c 0,35,36
 478 521 478 521 478 565 c 1,37,-1
 79 565 l 1,38,-1
 79 730 l 1,39,-1
 455 730 l 1,40,41
 438 776 438 776 411 825 c 128,-1,42
 384 874 384 874 358 926 c 0,43,44
 296 1053 296 1053 296.5 1145.5 c 128,-1,45
 297 1238 297 1238 329.5 1313.5 c 0,46,47
 362 1390 362 1390 418 1446 c 0,48,49
 540 1568 540 1568 712 1567 c 256,50,51
 884 1567 884 1567 1005.5 1445.5 c 128,-1,52
 1127 1324 1127 1324 1127 1152 c 1,53,-1
 957 1152 l 1,54,55
 957 1253 957 1253 885 1325 c 128,-1,56
 813 1397 813 1397 712 1397 c 256,57,58
 611 1397 611 1397 539 1325 c 128,-1,59
 467 1253 467 1253 467 1152 c 0,60,61
 468 1060 468 1060 530 936 c 1,62,-1
 583 836 l 1,63,64
 611 786 611 786 630 730 c 1,65,-1
 977 730 l 1,66,-1
 977 565 l 1,67,-1
 650 565 l 1,0,1
EndSplineSet
EndChar

StartChar: currency
Encoding: 164 164 98
Width: 1123
Flags: W
VStem: 195 171<567.177 778.337> 755 171<609.368 820.383>
LayerCount: 2
Fore
SplineSet
228 523 m 1,0,1
 195 589 195 589 195 674.5 c 128,-1,2
 195 760 195 760 232 827 c 1,3,-1
 124 911 l 2,4,5
 98 930 98 930 76 948 c 1,6,-1
 181 1089 l 1,7,-1
 353 956 l 1,8,9
 455 1019 455 1019 564 1120 c 1,10,11
 655 1043 655 1043 713 1016.5 c 128,-1,12
 771 990 771 990 799 968 c 1,13,-1
 953 1089 l 1,14,-1
 1047 949 l 1,15,-1
 901 832 l 1,16,17
 926 773 926 773 926 692.5 c 128,-1,18
 926 612 926 612 877 540 c 1,19,-1
 1050 406 l 1,20,-1
 953 273 l 1,21,-1
 755 419 l 1,22,-1
 700 380 l 1,23,24
 620 326 620 326 550 250 c 1,25,26
 502 292 502 292 450 327 c 2,27,-1
 343 397 l 1,28,-1
 174 273 l 1,29,-1
 75 403 l 1,30,-1
 228 523 l 1,0,1
477 830 m 1,31,32
 366 766 366 766 366 673 c 0,33,34
 366 570 366 570 501 502 c 0,35,36
 522 492 522 492 536 479 c 1,37,38
 562 499 562 499 599.5 521.5 c 0,39,40
 638 544 638 544 672 572 c 0,41,42
 756 640 756 640 755 717 c 256,43,44
 755 808 755 808 663 853 c 0,45,46
 640 864 640 864 618 873.5 c 128,-1,47
 596 883 596 883 573 897 c 1,48,49
 529 862 529 862 477 830 c 1,31,32
EndSplineSet
EndChar

StartChar: yen
Encoding: 165 165 99
Width: 1414
Flags: W
HStem: 0 170<294.47 382.481> 278 170<288.186 385.16> 564 170<311 655 861 1209> 820 170<311 626 911 1209> 1036 170<1085.07 1174.34> 1314 170<1086.26 1174.9>
VStem: 109 170<179.563 268.556> 655 177<413.662 564> 1184 170<1215.09 1304.76>
LayerCount: 2
Fore
SplineSet
954 1121 m 1,0,1
 942 1088 942 1088 932 1054.5 c 128,-1,2
 922 1021 922 1021 911 990 c 1,3,-1
 1209 990 l 1,4,-1
 1209 820 l 1,5,-1
 876 820 l 1,6,7
 871 798 871 798 868 777 c 128,-1,8
 865 756 865 756 861 734 c 1,9,-1
 1209 734 l 1,10,-1
 1209 564 l 1,11,-1
 832 564 l 1,12,13
 788 341 788 341 672 186 c 0,14,15
 539 8 539 8 347 0 c 1,16,-1
 331 0 l 2,17,18
 238 0 238 0 174 66 c 0,19,20
 109 132 109 132 109 226 c 0,21,22
 109 318 109 318 174 383 c 128,-1,23
 239 448 239 448 331 448 c 0,24,25
 450 448 450 448 518 352 c 0,26,27
 538 322 538 322 548 288 c 1,28,29
 610 375 610 375 655 564 c 1,30,-1
 311 564 l 1,31,-1
 311 734 l 1,32,-1
 665 734 l 1,33,34
 658 812 658 812 657 820 c 1,35,-1
 311 820 l 1,36,-1
 311 990 l 1,37,-1
 626 990 l 1,38,39
 578 1179 578 1179 495 1268 c 1,40,-1
 179 1023 l 1,41,-1
 74 1159 l 1,42,-1
 492 1484 l 1,43,44
 694 1349 694 1349 771 1056 c 1,45,46
 870 1461 870 1461 1102 1482 c 0,47,48
 1114 1484 1114 1484 1144.5 1484 c 128,-1,49
 1175 1484 1175 1484 1216.5 1466.5 c 128,-1,50
 1258 1449 1258 1449 1288 1419 c 0,51,52
 1354 1355 1354 1355 1354 1262 c 0,53,54
 1354 1167 1354 1167 1288.5 1101.5 c 128,-1,55
 1223 1036 1223 1036 1121 1036 c 128,-1,56
 1019 1036 1019 1036 954 1121 c 1,0,1
1091.5 1298 m 128,-1,58
 1076 1282 1076 1282 1076 1259.5 c 128,-1,59
 1076 1237 1076 1237 1091.5 1221.5 c 128,-1,60
 1107 1206 1107 1206 1129.5 1206 c 128,-1,61
 1152 1206 1152 1206 1168 1221.5 c 128,-1,62
 1184 1237 1184 1237 1184 1259.5 c 128,-1,63
 1184 1282 1184 1282 1168 1298 c 128,-1,64
 1152 1314 1152 1314 1129.5 1314 c 128,-1,57
 1107 1314 1107 1314 1091.5 1298 c 128,-1,58
294.5 262 m 128,-1,66
 279 246 279 246 279 223.5 c 128,-1,67
 279 201 279 201 294 186 c 128,-1,68
 309 171 309 171 331 170 c 1,69,-1
 341 170 l 1,70,71
 360 173 360 173 373.5 188.5 c 128,-1,72
 387 204 387 204 387 225 c 128,-1,73
 387 246 387 246 371 262 c 128,-1,74
 355 278 355 278 332.5 278 c 128,-1,65
 310 278 310 278 294.5 262 c 128,-1,66
EndSplineSet
EndChar

StartChar: brokenbar
Encoding: 166 166 100
Width: 471
Flags: W
VStem: 150 170<-339 409 572 1364>
LayerCount: 2
Fore
SplineSet
320 1364 m 1,0,-1
 320 572 l 1,1,-1
 150 572 l 1,2,-1
 150 1364 l 1,3,-1
 320 1364 l 1,0,-1
320 409 m 1,4,-1
 320 -339 l 1,5,-1
 150 -339 l 1,6,-1
 150 409 l 1,7,-1
 320 409 l 1,4,-1
EndSplineSet
EndChar

StartChar: section
Encoding: 167 167 101
Width: 919
Flags: W
HStem: 1395 171<320.444 549.9>
VStem: 82 170<1018.02 1326.47> 101 169<13.1205 192.967 486.801 662.124> 634 171<1141 1303.5> 667 170<35.2745 284.678 595.306 821.135>
LayerCount: 2
Fore
SplineSet
219 335 m 1,0,1
 102 469 102 469 102 572 c 0,2,3
 102 666 102 666 179 756 c 0,4,5
 203 784 203 784 232 813 c 1,6,7
 128 936 128 936 94 1096 c 0,8,9
 82 1150 82 1150 82 1214.5 c 128,-1,10
 82 1279 82 1279 110.5 1345 c 0,11,12
 140 1411 140 1411 188 1460 c 0,13,14
 293 1566 293 1566 443 1566 c 256,15,16
 593 1566 593 1566 699 1441 c 128,-1,17
 805 1316 805 1316 805 1141 c 1,18,-1
 634 1141 l 1,19,20
 634 1246 634 1246 578 1320.5 c 128,-1,21
 522 1395 522 1395 443 1395 c 256,22,23
 364 1395 364 1395 308 1339 c 128,-1,24
 252 1283 252 1283 252 1204 c 0,25,26
 252 1091 252 1091 320 974 c 0,27,28
 341 938 341 938 366 908 c 1,29,-1
 601 1088 l 1,30,31
 658 1048 658 1048 710.5 975 c 128,-1,32
 763 902 763 902 786 858 c 0,33,34
 838 759 838 759 838 657 c 128,-1,35
 838 555 838 555 777 444 c 1,36,37
 837 328 837 328 837 204 c 0,38,39
 837 39 837 39 704 -117 c 0,40,41
 573 -270 573 -270 400 -322 c 1,42,43
 338 -255 338 -255 284 -202.5 c 128,-1,44
 230 -150 230 -150 189 -102 c 0,45,46
 101 1 101 1 101 103 c 0,47,48
 101 173 101 173 133 226.5 c 128,-1,49
 165 280 165 280 219 335 c 1,0,1
656 286 m 1,50,51
 546 187 546 187 402 142 c 1,52,-1
 333 212 l 1,53,54
 304 183 304 183 287 159 c 128,-1,55
 270 135 270 135 270 109 c 128,-1,56
 270 83 270 83 286.5 55.5 c 0,57,58
 302 28 302 28 328 -4 c 0,59,60
 376 -63 376 -63 444 -128 c 1,61,62
 547 -69 547 -69 589 -17 c 0,63,64
 667 83 667 83 667 204 c 0,65,66
 667 249 667 249 656 286 c 1,50,51
348 689 m 1,67,68
 284 648 284 648 274 605 c 0,69,70
 270 590 270 590 270.5 570.5 c 128,-1,71
 271 551 271 551 290 520.5 c 128,-1,72
 309 490 309 490 337 456.5 c 0,73,74
 364 422 364 422 396 390 c 2,75,-1
 453 333 l 1,76,77
 472 329 472 329 510 355 c 0,78,79
 579 403 579 403 589 430 c 1,80,-1
 348 689 l 1,67,68
672 594 m 1,81,82
 678 625 678 625 678 654 c 128,-1,83
 678 683 678 683 669.5 713.5 c 128,-1,84
 661 744 661 744 648 772 c 0,85,86
 625 822 625 822 591 870 c 1,87,-1
 480 789 l 1,88,-1
 672 594 l 1,81,82
EndSplineSet
EndChar

StartChar: dieresis
Encoding: 168 168 102
Width: 700
Flags: W
HStem: 1357 335
VStem: 50 600
LayerCount: 2
Fore
SplineSet
513 1357 m 1,0,-1
 355 1410 l 1,1,-1
 473 1692 l 1,2,-1
 650 1621 l 1,3,-1
 513 1357 l 1,0,-1
208 1357 m 1,4,-1
 50 1410 l 1,5,-1
 169 1692 l 1,6,-1
 346 1621 l 1,7,-1
 208 1357 l 1,4,-1
EndSplineSet
EndChar

StartChar: copyright
Encoding: 169 169 103
Width: 1514
Flags: W
HStem: 30 170<546.702 967.406> 1231 170<546.702 967.157>
VStem: 71 170<508.528 930.922> 456 170<451 863.359> 1272 171<506.092 926.004>
LayerCount: 2
Fore
SplineSet
71 716 m 256,0,1
 71 858 71 858 125 982.5 c 128,-1,2
 179 1107 179 1107 272 1200 c 128,-1,3
 365 1293 365 1293 490 1347 c 128,-1,4
 615 1401 615 1401 757 1401 c 256,5,6
 899 1401 899 1401 1024 1347 c 128,-1,7
 1149 1293 1149 1293 1242 1200 c 128,-1,8
 1335 1107 1335 1107 1389 982.5 c 128,-1,9
 1443 858 1443 858 1443 716 c 256,10,11
 1443 574 1443 574 1389 449 c 128,-1,12
 1335 324 1335 324 1242 231 c 128,-1,13
 1149 138 1149 138 1024 84 c 128,-1,14
 899 30 899 30 757 30 c 256,15,16
 615 30 615 30 490 84 c 128,-1,17
 365 138 365 138 272 231 c 128,-1,18
 179 324 179 324 125 449 c 128,-1,19
 71 574 71 574 71 716 c 256,0,1
241 716 m 0,20,21
 241 610 241 610 281.5 516 c 128,-1,22
 322 422 322 422 392 352 c 0,23,24
 544 200 544 200 757 200 c 0,25,26
 971 200 971 200 1121 352 c 0,27,28
 1272 504 1272 504 1272 716 c 0,29,30
 1272 929 1272 929 1121 1080 c 128,-1,31
 970 1231 970 1231 757 1231 c 128,-1,32
 544 1231 544 1231 392 1080 c 0,33,34
 240 930 240 930 241 716 c 0,20,21
740 229 m 1,35,36
 456 311 456 311 456 569 c 2,37,-1
 456 715 l 2,38,39
 456 828 456 828 484 886 c 0,40,41
 530 985 530 985 616 1046 c 2,42,-1
 830 1196 l 1,43,-1
 1031 814 l 1,44,-1
 892 731 l 1,45,-1
 773 949 l 1,46,-1
 714 907 l 2,47,48
 626 843 626 843 626 715 c 2,49,-1
 626 569 l 2,50,51
 626 465 626 465 707 421 c 1,52,-1
 910 579 l 1,53,-1
 1010 439 l 1,54,-1
 740 229 l 1,35,36
EndSplineSet
EndChar

StartChar: ordfeminine
Encoding: 170 170 104
Width: 748
Flags: W
HStem: 1210 20G<424.968 492.491> 1210 20G<424.968 492.491>
VStem: 82 171<599.451 900.039> 387 169<672 981>
LayerCount: 2
Fore
SplineSet
556 725 m 2,0,1
 556 626 556 626 686 528 c 1,2,-1
 589 390 l 1,3,4
 490 462 490 462 454 507 c 1,5,-1
 323 411 l 1,6,7
 160 444 160 444 103 557 c 0,8,9
 82 599 82 599 82 655 c 2,10,-1
 82 762 l 2,11,12
 82 974 82 974 229 1075 c 2,13,-1
 454 1230 l 1,14,-1
 556 1177 l 1,15,-1
 556 725 l 2,0,1
253 655 m 2,16,17
 253 616 253 616 285 598 c 1,18,-1
 387 672 l 1,19,-1
 387 981 l 1,20,-1
 338 944 l 2,21,22
 253 880 253 880 253 762 c 2,23,-1
 253 655 l 2,16,17
EndSplineSet
EndChar

StartChar: guillemotleft
Encoding: 171 171 105
Width: 846
Flags: W
LayerCount: 2
Fore
SplineSet
618 56 m 1,0,-1
 355 514 l 1,1,-1
 628 976 l 1,2,-1
 776 891 l 1,3,-1
 553 514 l 1,4,5
 768 139 l 1,6,-1
 618 56 l 1,0,-1
303 56 m 1,7,-1
 40 514 l 1,8,-1
 313 976 l 1,9,-1
 461 891 l 1,10,-1
 238 514 l 1,11,-1
 453 139 l 1,12,-1
 303 56 l 1,7,-1
EndSplineSet
EndChar

StartChar: logicalnot
Encoding: 172 172 106
Width: 1090
Flags: W
HStem: 971 160<72 798>
VStem: 798 170<610 971>
LayerCount: 2
Fore
SplineSet
968 1131 m 1,0,-1
 968 610 l 1,1,-1
 798 610 l 1,2,-1
 798 971 l 1,3,-1
 72 971 l 1,4,-1
 72 1131 l 1,5,-1
 968 1131 l 1,0,-1
EndSplineSet
EndChar

StartChar: registered
Encoding: 174 174 107
Width: 1514
Flags: W
HStem: 30 170<760 967.752> 1231 170<549.714 962.964>
VStem: 71 170<509.335 927.316> 590 170<228 793> 1272 171<503.682 923.52>
LayerCount: 2
Fore
SplineSet
71 716 m 256,0,1
 71 858 71 858 125 982.5 c 128,-1,2
 179 1107 179 1107 272 1200 c 128,-1,3
 365 1293 365 1293 490 1347 c 128,-1,4
 615 1401 615 1401 757 1401 c 256,5,6
 899 1401 899 1401 1024 1347 c 128,-1,7
 1149 1293 1149 1293 1242 1200 c 128,-1,8
 1335 1107 1335 1107 1389 982.5 c 128,-1,9
 1443 858 1443 858 1443 716 c 256,10,11
 1443 574 1443 574 1389 449 c 128,-1,12
 1335 324 1335 324 1242 231 c 128,-1,13
 1149 138 1149 138 1024 84 c 128,-1,14
 899 30 899 30 757 30 c 256,15,16
 615 30 615 30 490 84 c 128,-1,17
 365 138 365 138 272 231 c 128,-1,18
 179 324 179 324 125 449 c 128,-1,19
 71 574 71 574 71 716 c 256,0,1
574 1129 m 1,20,21
 689 1052 689 1052 719 995 c 1,22,-1
 889 1169 l 1,23,24
 1025 1023 1025 1023 1097 838 c 1,25,-1
 954 726 l 1,26,27
 909 861 909 861 876 914 c 1,28,-1
 760 793 l 1,29,-1
 760 200 l 1,30,31
 972 202 972 202 1122 353 c 0,32,33
 1272 505 1272 505 1272 716 c 0,34,35
 1272 852 1272 852 1202 974 c 0,36,37
 1099 1153 1099 1153 894 1212 c 0,38,39
 828 1231 828 1231 741.5 1231 c 128,-1,40
 655 1231 655 1231 561.5 1192 c 128,-1,41
 468 1153 468 1153 397 1084 c 0,42,43
 241 932 241 932 241 716 c 0,44,45
 242 548 242 548 340 414 c 0,46,47
 438 281 438 281 590 228 c 1,48,-1
 590 834 l 2,49,50
 590 913 590 913 481 986 c 1,51,-1
 574 1129 l 1,20,21
EndSplineSet
EndChar

StartChar: macron
Encoding: 175 175 108
Width: 898
Flags: W
HStem: 1402 160<50 848>
LayerCount: 2
Fore
SplineSet
848 1562 m 1,0,-1
 848 1402 l 1,1,-1
 50 1402 l 1,2,-1
 50 1562 l 1,3,-1
 848 1562 l 1,0,-1
EndSplineSet
EndChar

StartChar: degree
Encoding: 176 176 109
Width: 556
Flags: W
HStem: 1259 171<230.627 326.857> 1567 170<230.627 326.857>
VStem: 40 170<1442.89 1553.1> 348 170<1442.86 1553.13>
LayerCount: 2
Fore
SplineSet
40 1498 m 256,0,1
 40 1598 40 1598 109.5 1667.5 c 128,-1,2
 179 1737 179 1737 278 1737 c 256,3,4
 378 1738 378 1738 448 1668 c 128,-1,5
 518 1598 518 1598 518 1498 c 256,6,7
 518 1398 518 1398 448 1328 c 128,-1,8
 378 1258 378 1258 278 1259 c 256,9,10
 179 1259 179 1259 109.5 1328.5 c 128,-1,11
 40 1398 40 1398 40 1498 c 256,0,1
230 1546.5 m 128,-1,13
 210 1526 210 1526 210 1497.5 c 128,-1,14
 210 1469 210 1469 230 1449.5 c 128,-1,15
 250 1430 250 1430 278.5 1430 c 128,-1,16
 307 1430 307 1430 327.5 1449.5 c 128,-1,17
 348 1469 348 1469 348 1497.5 c 128,-1,18
 348 1526 348 1526 327.5 1546.5 c 128,-1,19
 307 1567 307 1567 278.5 1567 c 128,-1,12
 250 1567 250 1567 230 1546.5 c 128,-1,13
EndSplineSet
EndChar

StartChar: plusminus
Encoding: 177 177 110
Width: 1071
Flags: W
HStem: 0 160<90 988> 667 170<84 446 617 981>
VStem: 446 171<305 667 837 1200>
LayerCount: 2
Fore
SplineSet
446 837 m 1,0,-1
 446 1200 l 1,1,-1
 617 1200 l 1,2,-1
 617 837 l 1,3,-1
 981 837 l 1,4,-1
 981 667 l 1,5,-1
 617 667 l 1,6,-1
 617 305 l 1,7,-1
 446 305 l 1,8,-1
 446 667 l 1,9,-1
 84 667 l 1,10,-1
 84 837 l 1,11,-1
 446 837 l 1,0,-1
90 0 m 1,12,-1
 90 160 l 1,13,-1
 988 160 l 1,14,-1
 988 0 l 1,15,-1
 90 0 l 1,12,-1
EndSplineSet
EndChar

StartChar: twosuperior
Encoding: 178 178 111
Width: 885
Flags: W
HStem: 564 172<298.187 629.278> 1397 170<349.757 585.084>
VStem: 94 300<1175.35 1386.62> 609 171<1187.26 1370.79>
LayerCount: 2
Fore
SplineSet
348 1388 m 1,0,1
 394 1344 394 1344 394 1281 c 0,2,3
 394 1182 394 1182 303 1142 c 0,4,5
 276 1130 276 1130 245 1130 c 256,6,7
 184 1130 184 1130 138 1174 c 0,8,9
 94 1217 94 1217 94 1279.5 c 128,-1,10
 94 1342 94 1342 119 1394 c 128,-1,11
 144 1446 144 1446 190 1484 c 0,12,13
 289 1566 289 1566 449 1567 c 0,14,15
 670 1566 670 1566 752 1410 c 0,16,17
 780 1358 780 1358 780 1290.5 c 128,-1,18
 780 1223 780 1223 756 1175 c 128,-1,19
 732 1127 732 1127 693 1088 c 0,20,21
 654 1048 654 1048 605 1016 c 1,22,-1
 505 953 l 1,23,24
 441 915 441 915 383.5 872.5 c 128,-1,25
 326 830 326 830 297 779 c 1,26,27
 335 776 335 776 370 770 c 2,28,-1
 522 743 l 2,29,30
 562 736 562 736 607 736 c 0,31,32
 630 736 630 736 630 758 c 256,33,34
 630 767 630 767 617.5 774 c 128,-1,35
 605 781 605 781 588 781 c 1,36,-1
 589 953 l 1,37,38
 678 953 678 953 742 896 c 0,39,40
 806 840 806 840 805 758 c 0,41,42
 806 678 806 678 748 620 c 0,43,44
 692 564 692 564 608 564 c 0,45,46
 559 564 559 564 499 576 c 0,47,48
 360 605 360 605 299 607 c 1,49,-1
 317 564 l 1,50,-1
 129 564 l 1,51,-1
 116 611 l 2,52,53
 102 660 102 660 102 716.5 c 128,-1,54
 102 773 102 773 129 830 c 128,-1,55
 156 887 156 887 199.5 931.5 c 0,56,57
 244 976 244 976 298 1011 c 1,58,-1
 483 1125 l 2,59,60
 563 1175 563 1175 586 1214 c 128,-1,61
 609 1253 609 1253 609 1286 c 256,62,63
 609 1397 609 1397 443 1397 c 0,64,65
 378 1397 378 1397 348 1388 c 1,0,1
EndSplineSet
EndChar

StartChar: threesuperior
Encoding: 179 179 112
Width: 887
Flags: W
HStem: 565 179<338.356 592.618> 1404 163<357.03 571.654>
VStem: 76 301<757.44 955.991> 93 300<1183.38 1387.69> 616 173<1201.25 1371.89> 640 173<789.906 963.1>
LayerCount: 2
Fore
SplineSet
682 1094 m 1,0,1
 813 990 813 990 813 874 c 0,2,3
 812 745 812 745 704 655 c 128,-1,4
 596 565 596 565 438 565 c 0,5,6
 278 566 278 566 180 640 c 0,7,8
 76 718 76 718 76 851 c 0,9,10
 76 910 76 910 120 956 c 0,11,12
 163 1000 163 1000 209.5 1000.5 c 128,-1,13
 256 1001 256 1001 283.5 989 c 128,-1,14
 311 977 311 977 332 957 c 0,15,16
 377 914 377 914 377 858 c 128,-1,17
 377 802 377 802 336 756 c 1,18,19
 369 744 369 744 422.5 744 c 128,-1,20
 476 744 476 744 512.5 752.5 c 0,21,22
 549 762 549 762 577 778 c 0,23,24
 640 815 640 815 640 865.5 c 128,-1,25
 640 916 640 916 612 947.5 c 128,-1,26
 584 979 584 979 521 1013 c 1,27,28
 506 1010 506 1010 485 1005 c 2,29,-1
 400 985 l 2,30,31
 380 980 380 980 365 977 c 1,32,-1
 338 1112 l 1,33,34
 476 1140 476 1140 546 1182.5 c 128,-1,35
 616 1225 616 1225 616 1283 c 128,-1,36
 616 1341 616 1341 573 1372.5 c 128,-1,37
 530 1404 530 1404 476 1404 c 0,38,39
 396 1404 396 1404 353 1389 c 1,40,41
 393 1347 393 1347 393 1302 c 128,-1,42
 393 1257 393 1257 381 1229.5 c 0,43,44
 368 1202 368 1202 348 1182 c 0,45,46
 303 1138 303 1138 243 1138 c 256,47,48
 181 1138 181 1138 137 1182 c 128,-1,49
 93 1226 93 1226 93 1291 c 128,-1,50
 93 1356 93 1356 120.5 1408 c 128,-1,51
 148 1460 148 1460 196 1496 c 0,52,53
 294 1568 294 1568 457 1567 c 256,54,55
 608 1567 608 1567 701 1485 c 0,56,57
 789 1407 789 1407 789 1290 c 0,58,59
 788 1196 788 1196 730 1136 c 0,60,61
 710 1115 710 1115 682 1094 c 1,0,1
EndSplineSet
EndChar

StartChar: acute
Encoding: 180 180 113
Width: 565
Flags: W
HStem: 1299 396
VStem: 50 465
LayerCount: 2
Fore
SplineSet
140 1299 m 1,0,-1
 50 1441 l 1,1,-1
 399 1695 l 1,2,-1
 515 1537 l 1,3,-1
 140 1299 l 1,0,-1
EndSplineSet
EndChar

StartChar: mu
Encoding: 181 181 114
Width: 935
Flags: W
VStem: 140 180.5<269.784 768.814> 194 170<467.011 1055.34> 590 170<346 1228>
LayerCount: 2
Fore
SplineSet
185.5 774 m 128,-1,1
 194 856 194 856 194 946.5 c 128,-1,2
 194 1037 194 1037 64 1139 c 1,3,-1
 166 1274 l 1,4,5
 324 1151 324 1151 354 1024 c 0,6,7
 364 983 364 983 364 917 c 128,-1,8
 364 851 364 851 357.5 782 c 0,9,10
 350 713 350 713 342 654 c 0,11,12
 320 505 320 505 320.5 446 c 128,-1,13
 321 387 321 387 329 357.5 c 128,-1,14
 337 328 337 328 350 300 c 0,15,16
 373 250 373 250 412 194 c 1,17,-1
 590 346 l 1,18,-1
 590 1228 l 1,19,-1
 760 1228 l 1,20,-1
 760 267 l 2,21,22
 760 183 760 183 870 114 c 1,23,-1
 775 -29 l 1,24,25
 648 49 648 49 611 146 c 1,26,-1
 404 -29 l 1,27,-1
 306 127 l 1,28,29
 306 -53 306 -53 490 -210 c 1,30,-1
 379 -341 l 1,31,32
 236 -220 236 -220 184 -65 c 0,33,34
 140 67 140 67 140 323 c 0,35,36
 140 403 140 403 158.5 547.5 c 128,-1,0
 177 692 177 692 185.5 774 c 128,-1,1
EndSplineSet
EndChar

StartChar: paragraph
Encoding: 182 182 115
Width: 1600
Flags: W
HStem: 0 21G<803 974> 149 171<396 552.453> 1365 171<450.191 803 974 1216 1386 1537>
VStem: 69 169.5<890.509 1193.9> 581 171<353.246 511.125> 803 171<0 1365> 1216 170<45.3274 1365>
LayerCount: 2
Fore
SplineSet
1386 359 m 2,0,1
 1386 197 1386 197 1373 121.5 c 128,-1,2
 1360 46 1360 46 1337.5 -16.5 c 0,3,4
 1314 -79 1314 -79 1274 -133 c 0,5,6
 1185 -252 1185 -252 1019 -300 c 1,7,-1
 976 -135 l 1,8,9
 1204 -69 1204 -69 1214 266 c 0,10,11
 1216 315 1216 315 1216 359 c 2,12,-1
 1216 1365 l 1,13,-1
 974 1365 l 1,14,-1
 974 0 l 1,15,-1
 803 0 l 1,16,-1
 803 1365 l 1,17,-1
 737 1365 l 2,18,19
 386 1365 386 1365 276 1185 c 0,20,21
 238 1124 238 1124 238.5 1049.5 c 128,-1,22
 239 975 239 975 261 928.5 c 128,-1,23
 283 882 283 882 319 848 c 128,-1,24
 355 814 355 814 401 788.5 c 128,-1,25
 447 763 447 763 495.5 739 c 128,-1,26
 544 715 544 715 590 689 c 128,-1,27
 636 663 636 663 672 628 c 0,28,29
 752 550 752 550 752 429 c 0,30,31
 752 294 752 294 640 216 c 0,32,33
 542 148 542 148 396 149 c 1,34,-1
 396 320 l 1,35,36
 521 320 521 320 565 378 c 0,37,38
 581 399 581 399 581 432 c 128,-1,39
 581 465 581 465 559 490 c 128,-1,40
 537 515 537 515 501 536 c 128,-1,41
 465 557 465 557 419 577.5 c 128,-1,42
 373 598 373 598 325 624 c 128,-1,43
 277 650 277 650 231 684.5 c 128,-1,44
 185 719 185 719 149 768 c 0,45,46
 69 877 69 877 69 1024 c 128,-1,47
 69 1171 69 1171 119.5 1264.5 c 128,-1,48
 170 1358 170 1358 259 1418 c 0,49,50
 432 1536 432 1536 737 1536 c 2,51,-1
 1537 1536 l 1,52,-1
 1537 1365 l 1,53,-1
 1386 1365 l 1,54,-1
 1386 359 l 2,0,1
EndSplineSet
EndChar

StartChar: periodcentered
Encoding: 183 183 116
Width: 402
Flags: W
HStem: 735 404
VStem: 102 200
LayerCount: 2
Fore
SplineSet
272 735 m 1,0,-1
 102 746 l 1,1,-1
 131 1139 l 1,2,-1
 302 1128 l 1,3,-1
 272 735 l 1,0,-1
EndSplineSet
EndChar

StartChar: cedilla
Encoding: 184 184 117
Width: 538
Flags: W
HStem: -462 171<86 172.64>
VStem: 50 438
LayerCount: 2
Fore
SplineSet
285 -136 m 1,0,1
 363 -185 363 -185 363 -277 c 0,2,3
 363 -360 363 -360 280 -412 c 0,4,5
 201 -462 201 -462 86 -462 c 1,6,-1
 86 -291 l 1,7,8
 162 -291 162 -291 173 -280.5 c 128,-1,9
 184 -270 184 -270 184 -257 c 0,10,11
 184 -233 184 -233 158.5 -229 c 128,-1,12
 133 -225 133 -225 83 -225 c 1,13,-1
 50 -106 l 1,14,-1
 271 24 l 1,15,-1
 488 24 l 1,16,-1
 285 -136 l 1,0,1
EndSplineSet
EndChar

StartChar: onesuperior
Encoding: 185 185 118
Width: 514
Flags: W
HStem: 1547 20G<276.333 341.846>
VStem: 231 173<712.5 1300>
LayerCount: 2
Fore
SplineSet
154 646 m 1,0,1
 231 777 231 777 231 924 c 2,2,-1
 231 1300 l 1,3,4
 192 1261 192 1261 178 1210 c 1,5,-1
 24 1294 l 1,6,7
 53 1377 53 1377 119 1429 c 1,8,-1
 303 1567 l 1,9,-1
 404 1515 l 1,10,-1
 404 943 l 2,11,12
 404 724 404 724 311 564 c 1,13,-1
 154 646 l 1,0,1
EndSplineSet
EndChar

StartChar: ordmasculine
Encoding: 186 186 119
Width: 641
Flags: W
HStem: 1210 20G<329.6 465.5> 1210 20G<329.6 465.5>
VStem: 101 170<658 982.891> 405 170<722.576 1013.66>
LayerCount: 2
Fore
SplineSet
356 1230 m 1,0,1
 575 1086 575 1086 575 914 c 2,2,-1
 575 823 l 2,3,4
 574 747 574 747 558 708 c 0,5,6
 528 638 528 638 451 583 c 1,7,-1
 217 411 l 1,8,-1
 101 469 l 1,9,-1
 101 865 l 2,10,11
 101 1037 101 1037 224 1130 c 2,12,-1
 356 1230 l 1,0,1
325 993 m 1,13,14
 271 950 271 950 271 865 c 2,15,-1
 271 658 l 1,16,-1
 351 715 l 2,17,18
 405 754 405 754 405 823 c 2,19,-1
 405 914 l 2,20,21
 405 971 405 971 358 1018 c 1,22,-1
 325 993 l 1,13,14
EndSplineSet
EndChar

StartChar: guillemotright
Encoding: 187 187 120
Width: 857
Flags: W
LayerCount: 2
Fore
SplineSet
404 140 m 1,0,-1
 618 514 l 1,1,-1
 395 891 l 1,2,-1
 543 976 l 1,3,-1
 816 514 l 1,4,-1
 554 57 l 1,5,-1
 404 140 l 1,0,-1
79 140 m 1,6,-1
 293 514 l 1,7,-1
 70 891 l 1,8,-1
 218 976 l 1,9,-1
 491 514 l 1,10,-1
 229 57 l 1,11,-1
 79 140 l 1,6,-1
EndSplineSet
EndChar

StartChar: onequarter
Encoding: 188 188 121
Width: 1650
Flags: W
HStem: 295 167<1057 1301 1474 1588>
VStem: 264 173<565.5 1153> 1301 173<183.494 295 462 754.329>
LayerCount: 2
Fore
SplineSet
1175 1271 m 1,0,-1
 338 -48 l 1,1,-1
 200 46 l 1,2,-1
 1040 1372 l 1,3,-1
 1175 1271 l 1,0,-1
187 499 m 1,4,5
 264 630 264 630 264 777 c 2,6,-1
 264 1153 l 1,7,8
 225 1114 225 1114 211 1063 c 1,9,-1
 57 1147 l 1,10,11
 86 1230 86 1230 152 1282 c 1,12,-1
 336 1420 l 1,13,-1
 437 1368 l 1,14,-1
 437 796 l 2,15,16
 437 577 437 577 344 417 c 1,17,-1
 187 499 l 1,4,5
866 393 m 2,18,19
 866 503 866 503 959 617 c 1,20,-1
 1278 999 l 1,21,22
 1474 917 1474 917 1474 725 c 2,23,-1
 1474 462 l 1,24,-1
 1588 462 l 1,25,-1
 1588 295 l 1,26,-1
 1474 295 l 1,27,28
 1474 80 1474 80 1276 -16 c 1,29,-1
 1168 119 l 1,30,31
 1301 187 1301 187 1301 295 c 1,32,-1
 866 295 l 1,33,-1
 866 393 l 2,18,19
1057 462 m 1,34,-1
 1301 462 l 1,35,-1
 1301 759 l 1,36,-1
 1057 462 l 1,34,-1
EndSplineSet
EndChar

StartChar: onehalf
Encoding: 189 189 122
Width: 1822
Flags: W
HStem: 1 172<1231.19 1562.16> 834 170<1282.76 1518.37>
VStem: 262 173<565.5 1153> 1027.5 299.5<612.349 823.62> 1542 171.5<624.312 806.75> 1563 175<173.101 265.49>
LayerCount: 2
Fore
SplineSet
1224 1271 m 1,0,-1
 387 -48 l 1,1,-1
 249 46 l 1,2,-1
 1089 1372 l 1,3,-1
 1224 1271 l 1,0,-1
185 499 m 1,4,5
 262 630 262 630 262 777 c 2,6,-1
 262 1153 l 1,7,8
 223 1114 223 1114 209 1063 c 1,9,-1
 55 1147 l 1,10,11
 84 1230 84 1230 150 1282 c 1,12,-1
 334 1420 l 1,13,-1
 435 1368 l 1,14,-1
 435 796 l 2,15,16
 435 577 435 577 342 417 c 1,17,-1
 185 499 l 1,4,5
1281 825 m 1,18,19
 1327 781 1327 781 1327 718 c 0,20,21
 1327 619 1327 619 1236 579 c 0,22,23
 1209 567 1209 567 1178 567 c 256,24,25
 1118 567 1118 567 1072 611 c 0,26,27
 1028 654 1028 654 1027.5 716.5 c 128,-1,28
 1027 779 1027 779 1052 831 c 0,29,30
 1077 884 1077 884 1123 922 c 0,31,32
 1222 1004 1222 1004 1382 1004 c 0,33,34
 1604 1004 1604 1004 1686 848 c 0,35,36
 1714 796 1714 796 1713.5 728 c 128,-1,37
 1713 660 1713 660 1689 612 c 128,-1,38
 1665 564 1665 564 1626 525 c 128,-1,39
 1587 486 1587 486 1538 454 c 1,40,-1
 1438 390 l 1,41,42
 1374 352 1374 352 1316.5 309.5 c 128,-1,43
 1259 267 1259 267 1230 216 c 1,44,45
 1268 214 1268 214 1303 208 c 2,46,-1
 1456 180 l 2,47,48
 1496 173 1496 173 1540 173 c 0,49,50
 1563 173 1563 173 1563 195 c 256,51,52
 1563 204 1563 204 1550.5 211 c 128,-1,53
 1538 218 1538 218 1521 218 c 1,54,-1
 1522 390 l 1,55,56
 1610 390 1610 390 1674 333 c 0,57,58
 1738 277 1738 277 1738 195 c 0,59,60
 1738 116 1738 116 1680 58 c 0,61,62
 1624 2 1624 2 1541 1 c 0,63,64
 1492 2 1492 2 1432 14 c 0,65,66
 1293 43 1293 43 1232 44 c 1,67,-1
 1250 1 l 1,68,-1
 1062 1 l 1,69,-1
 1048 48 l 2,70,71
 1034 97 1034 97 1034.5 153.5 c 128,-1,72
 1035 210 1035 210 1062 267 c 128,-1,73
 1089 324 1089 324 1132.5 368.5 c 128,-1,74
 1176 413 1176 413 1230 448 c 1,75,-1
 1416 562 l 2,76,77
 1496 612 1496 612 1519 651 c 128,-1,78
 1542 690 1542 690 1542 723 c 256,79,80
 1542 834 1542 834 1376 834 c 0,81,82
 1311 834 1311 834 1281 825 c 1,18,19
EndSplineSet
EndChar

StartChar: threequarters
Encoding: 190 190 123
Width: 2009
Flags: W
HStem: 295 167<1417 1661 1834 1948> 426 179<344.356 599.457> 1265 163<361.691 584.736>
VStem: 82 301<618.44 817.991> 99 300<1044.38 1248.69> 622 173<1062.25 1232.89> 646 173<650.413 824.1> 1661 173<183.494 295 462 754.329>
LayerCount: 2
Fore
SplineSet
1517 1271 m 1,0,-1
 680 -48 l 1,1,-1
 542 46 l 1,2,-1
 1382 1372 l 1,3,-1
 1517 1271 l 1,0,-1
688 955 m 1,4,5
 819 851 819 851 819 735 c 0,6,7
 818 606 818 606 710 516 c 128,-1,8
 602 426 602 426 444 426 c 0,9,10
 284 426 284 426 186 500 c 0,11,12
 82 578 82 578 82 712 c 0,13,14
 82 772 82 772 126 818 c 0,15,16
 169 862 169 862 215.5 862 c 128,-1,17
 262 862 262 862 289.5 850 c 128,-1,18
 317 838 317 838 338 818 c 0,19,20
 383 775 383 775 383 719 c 128,-1,21
 383 663 383 663 342 617 c 1,22,23
 375 605 375 605 428.5 605 c 128,-1,24
 482 605 482 605 518.5 613.5 c 128,-1,25
 555 622 555 622 583 638 c 0,26,27
 646 675 646 675 646 726 c 128,-1,28
 646 777 646 777 618 808.5 c 128,-1,29
 590 840 590 840 527 874 c 1,30,31
 512 871 512 871 491 866 c 2,32,-1
 406 846 l 2,33,34
 386 841 386 841 371 838 c 1,35,-1
 344 973 l 1,36,37
 482 1001 482 1001 552 1043.5 c 128,-1,38
 622 1086 622 1086 622 1144 c 128,-1,39
 622 1202 622 1202 579 1233.5 c 128,-1,40
 536 1265 536 1265 482 1265 c 0,41,42
 402 1265 402 1265 359 1250 c 1,43,44
 399 1208 399 1208 399 1163 c 128,-1,45
 399 1118 399 1118 387 1090.5 c 0,46,47
 374 1063 374 1063 354 1043 c 0,48,49
 309 999 309 999 249 999 c 256,50,51
 187 999 187 999 143 1043 c 128,-1,52
 99 1087 99 1087 99 1152 c 128,-1,53
 99 1217 99 1217 126.5 1269 c 0,54,55
 154 1320 154 1320 202 1356 c 0,56,57
 300 1428 300 1428 463 1428 c 256,58,59
 614 1428 614 1428 707 1346 c 0,60,61
 795 1268 795 1268 795 1151 c 0,62,63
 794 1057 794 1057 736 997 c 0,64,65
 716 976 716 976 688 955 c 1,4,5
1226 393 m 2,66,67
 1226 503 1226 503 1319 617 c 1,68,-1
 1638 999 l 1,69,70
 1834 917 1834 917 1834 725 c 2,71,-1
 1834 462 l 1,72,-1
 1948 462 l 1,73,-1
 1948 295 l 1,74,-1
 1834 295 l 1,75,76
 1834 80 1834 80 1636 -16 c 1,77,-1
 1528 119 l 1,78,79
 1661 187 1661 187 1661 295 c 1,80,-1
 1226 295 l 1,81,-1
 1226 393 l 2,66,67
1417 462 m 1,82,-1
 1661 462 l 1,83,-1
 1661 759 l 1,84,-1
 1417 462 l 1,82,-1
EndSplineSet
EndChar

StartChar: Agrave
Encoding: 192 192 124
Width: 1554
Flags: W
HStem: 566 170<319.984 409.652> 1393 174<366.182 747.716 1332.97 1480>
VStem: 141 170<745.321 834.377 1162.79 1340.68> 419 170<751.986 827.498> 874 168.5<937.069 1283.61> 1073 170<266.481 496 697 1293.93>
LayerCount: 2
Fore
SplineSet
552 1393 m 0,0,1
 322 1393 322 1393 322 1259 c 0,2,3
 322 1191 322 1191 392 1118 c 0,4,5
 422 1087 422 1087 456 1055.5 c 128,-1,6
 490 1024 490 1024 520 986 c 0,7,8
 590 896 590 896 589 792 c 0,9,10
 589 697 589 697 523.5 631.5 c 128,-1,11
 458 566 458 566 363 566 c 0,12,13
 270 566 270 566 206 632 c 0,14,15
 141 698 141 698 141 792 c 0,16,17
 141 902 141 902 230 970 c 0,18,19
 257 990 257 990 290 1002 c 1,20,21
 222 1052 222 1052 197 1089 c 0,22,23
 147 1163 147 1163 147 1244.5 c 128,-1,24
 147 1326 147 1326 170 1382.5 c 0,25,26
 194 1439 194 1439 242 1480 c 0,27,28
 345 1567 345 1567 552 1567 c 0,29,30
 886 1566 886 1566 1002 1340 c 0,31,32
 1042 1260 1042 1260 1042.5 1168 c 128,-1,33
 1043 1076 1043 1076 1028 1010.5 c 128,-1,34
 1013 945 1013 945 988 884.5 c 128,-1,35
 963 824 963 824 931 768 c 1,36,-1
 866 659 l 1,37,-1
 928 596 l 1,38,-1
 1073 697 l 1,39,-1
 1073 1167 l 2,40,41
 1074 1341 1074 1341 1194 1456 c 0,42,43
 1310 1567 1310 1567 1480 1567 c 1,44,-1
 1480 1394 l 1,45,46
 1354 1394 1354 1394 1294 1306 c 0,47,48
 1242 1230 1242 1230 1243 1101 c 2,49,-1
 1243 398 l 2,50,51
 1242 279 1242 279 1374 176 c 0,52,53
 1414 145 1414 145 1460 114 c 1,54,-1
 1360 -30 l 1,55,56
 1220 65 1220 65 1170 130 c 0,57,58
 1073 255 1073 255 1073 393 c 2,59,-1
 1073 496 l 1,60,-1
 915 380 l 1,61,-1
 763 519 l 1,62,63
 568 274 568 274 334 76 c 0,64,65
 260 14 260 14 196 -30 c 1,66,-1
 68 89 l 1,67,68
 384 316 384 316 610 588 c 0,69,70
 874 906 874 906 874 1143 c 0,71,72
 874 1316 874 1316 692 1374 c 0,73,74
 632 1394 632 1394 552 1393 c 0,0,1
667 1837 m 1,75,-1
 783 1995 l 1,76,-1
 1131 1741 l 1,77,-1
 1040 1598 l 1,78,-1
 667 1837 l 1,75,-1
326.5 828 m 128,-1,80
 311 812 311 812 311 789.5 c 128,-1,81
 311 767 311 767 326.5 751.5 c 128,-1,82
 342 736 342 736 364.5 736 c 128,-1,83
 387 736 387 736 403 751.5 c 128,-1,84
 419 767 419 767 419 789.5 c 128,-1,85
 419 812 419 812 403 828 c 128,-1,86
 387 844 387 844 364.5 844 c 128,-1,79
 342 844 342 844 326.5 828 c 128,-1,80
EndSplineSet
EndChar

StartChar: Aacute
Encoding: 193 193 125
Width: 1554
Flags: W
HStem: 566 170<319.984 409.652> 1393 174<366.182 747.716 1332.97 1480>
VStem: 141 170<745.321 834.377 1162.79 1340.68> 419 170<751.986 827.498> 874 168.5<937.069 1283.61> 1073 170<266.481 496 697 1293.93>
LayerCount: 2
Fore
SplineSet
552 1393 m 0,0,1
 322 1393 322 1393 322 1259 c 0,2,3
 322 1191 322 1191 392 1118 c 0,4,5
 422 1087 422 1087 456 1055.5 c 128,-1,6
 490 1024 490 1024 520 986 c 0,7,8
 590 896 590 896 589 792 c 0,9,10
 589 697 589 697 523.5 631.5 c 128,-1,11
 458 566 458 566 363 566 c 0,12,13
 270 566 270 566 206 632 c 0,14,15
 141 698 141 698 141 792 c 0,16,17
 141 902 141 902 230 970 c 0,18,19
 257 990 257 990 290 1002 c 1,20,21
 222 1052 222 1052 197 1089 c 0,22,23
 147 1163 147 1163 147 1244.5 c 128,-1,24
 147 1326 147 1326 170 1382.5 c 0,25,26
 194 1439 194 1439 242 1480 c 0,27,28
 345 1567 345 1567 552 1567 c 0,29,30
 886 1566 886 1566 1002 1340 c 0,31,32
 1042 1260 1042 1260 1042.5 1168 c 128,-1,33
 1043 1076 1043 1076 1028 1010.5 c 128,-1,34
 1013 945 1013 945 988 884.5 c 128,-1,35
 963 824 963 824 931 768 c 1,36,-1
 866 659 l 1,37,-1
 928 596 l 1,38,-1
 1073 697 l 1,39,-1
 1073 1167 l 2,40,41
 1074 1341 1074 1341 1194 1456 c 0,42,43
 1310 1567 1310 1567 1480 1567 c 1,44,-1
 1480 1394 l 1,45,46
 1354 1394 1354 1394 1294 1306 c 0,47,48
 1242 1230 1242 1230 1243 1101 c 2,49,-1
 1243 398 l 2,50,51
 1242 279 1242 279 1374 176 c 0,52,53
 1414 145 1414 145 1460 114 c 1,54,-1
 1360 -30 l 1,55,56
 1220 65 1220 65 1170 130 c 0,57,58
 1073 255 1073 255 1073 393 c 2,59,-1
 1073 496 l 1,60,-1
 915 380 l 1,61,-1
 763 519 l 1,62,63
 568 274 568 274 334 76 c 0,64,65
 260 14 260 14 196 -30 c 1,66,-1
 68 89 l 1,67,68
 384 316 384 316 610 588 c 0,69,70
 874 906 874 906 874 1143 c 0,71,72
 874 1316 874 1316 692 1374 c 0,73,74
 632 1394 632 1394 552 1393 c 0,0,1
1072 1599 m 1,75,-1
 982 1741 l 1,76,-1
 1331 1995 l 1,77,-1
 1447 1837 l 1,78,-1
 1072 1599 l 1,75,-1
326.5 828 m 128,-1,80
 311 812 311 812 311 789.5 c 128,-1,81
 311 767 311 767 326.5 751.5 c 128,-1,82
 342 736 342 736 364.5 736 c 128,-1,83
 387 736 387 736 403 751.5 c 128,-1,84
 419 767 419 767 419 789.5 c 128,-1,85
 419 812 419 812 403 828 c 128,-1,86
 387 844 387 844 364.5 844 c 128,-1,79
 342 844 342 844 326.5 828 c 128,-1,80
EndSplineSet
EndChar

StartChar: Acircumflex
Encoding: 194 194 126
Width: 1554
Flags: W
HStem: 566 170<319.984 409.652> 1393 174<366.182 747.716 1332.97 1480>
VStem: 141 170<745.321 834.377 1162.79 1340.68> 419 170<751.986 827.498> 874 168.5<937.069 1283.61> 1073 170<266.481 496 697 1293.93>
LayerCount: 2
Fore
SplineSet
552 1393 m 0,0,1
 322 1393 322 1393 322 1259 c 0,2,3
 322 1191 322 1191 392 1118 c 0,4,5
 422 1087 422 1087 456 1055.5 c 128,-1,6
 490 1024 490 1024 520 986 c 0,7,8
 590 896 590 896 589 792 c 0,9,10
 589 697 589 697 523.5 631.5 c 128,-1,11
 458 566 458 566 363 566 c 0,12,13
 270 566 270 566 206 632 c 0,14,15
 141 698 141 698 141 792 c 0,16,17
 141 902 141 902 230 970 c 0,18,19
 257 990 257 990 290 1002 c 1,20,21
 222 1052 222 1052 197 1089 c 0,22,23
 147 1163 147 1163 147 1244.5 c 128,-1,24
 147 1326 147 1326 170 1382.5 c 0,25,26
 194 1439 194 1439 242 1480 c 0,27,28
 345 1567 345 1567 552 1567 c 0,29,30
 886 1566 886 1566 1002 1340 c 0,31,32
 1042 1260 1042 1260 1042.5 1168 c 128,-1,33
 1043 1076 1043 1076 1028 1010.5 c 128,-1,34
 1013 945 1013 945 988 884.5 c 128,-1,35
 963 824 963 824 931 768 c 1,36,-1
 866 659 l 1,37,-1
 928 596 l 1,38,-1
 1073 697 l 1,39,-1
 1073 1167 l 2,40,41
 1074 1341 1074 1341 1194 1456 c 0,42,43
 1310 1567 1310 1567 1480 1567 c 1,44,-1
 1480 1394 l 1,45,46
 1354 1394 1354 1394 1294 1306 c 0,47,48
 1242 1230 1242 1230 1243 1101 c 2,49,-1
 1243 398 l 2,50,51
 1242 279 1242 279 1374 176 c 0,52,53
 1414 145 1414 145 1460 114 c 1,54,-1
 1360 -30 l 1,55,56
 1220 65 1220 65 1170 130 c 0,57,58
 1073 255 1073 255 1073 393 c 2,59,-1
 1073 496 l 1,60,-1
 915 380 l 1,61,-1
 763 519 l 1,62,63
 568 274 568 274 334 76 c 0,64,65
 260 14 260 14 196 -30 c 1,66,-1
 68 89 l 1,67,68
 384 316 384 316 610 588 c 0,69,70
 874 906 874 906 874 1143 c 0,71,72
 874 1316 874 1316 692 1374 c 0,73,74
 632 1394 632 1394 552 1393 c 0,0,1
705 1745 m 1,75,-1
 1066 1997 l 1,76,-1
 1414 1745 l 1,77,-1
 1311 1609 l 1,78,-1
 1066 1790 l 1,79,80
 1038 1766 1038 1766 994 1736 c 2,81,-1
 808 1609 l 1,82,-1
 705 1745 l 1,75,-1
326.5 828 m 128,-1,84
 311 812 311 812 311 789.5 c 128,-1,85
 311 767 311 767 326.5 751.5 c 128,-1,86
 342 736 342 736 364.5 736 c 128,-1,87
 387 736 387 736 403 751.5 c 128,-1,88
 419 767 419 767 419 789.5 c 128,-1,89
 419 812 419 812 403 828 c 128,-1,90
 387 844 387 844 364.5 844 c 128,-1,83
 342 844 342 844 326.5 828 c 128,-1,84
EndSplineSet
EndChar

StartChar: Atilde
Encoding: 195 195 127
Width: 1554
Flags: W
HStem: 566 170<319.984 409.652> 1393 174<366.182 747.716 1332.97 1480> 1637 171<1081.05 1238.49> 1765 171<855.307 1022.84>
VStem: 141 170<745.321 834.377 1162.79 1340.68> 419 170<751.986 827.498> 874 168.5<937.069 1283.61> 1073 170<266.481 496 697 1293.93>
LayerCount: 2
Fore
SplineSet
552 1393 m 0,0,1
 322 1393 322 1393 322 1259 c 0,2,3
 322 1191 322 1191 392 1118 c 0,4,5
 422 1087 422 1087 456 1055.5 c 128,-1,6
 490 1024 490 1024 520 986 c 0,7,8
 590 896 590 896 589 792 c 0,9,10
 589 697 589 697 523.5 631.5 c 128,-1,11
 458 566 458 566 363 566 c 0,12,13
 270 566 270 566 206 632 c 0,14,15
 141 698 141 698 141 792 c 0,16,17
 141 902 141 902 230 970 c 0,18,19
 257 990 257 990 290 1002 c 1,20,21
 222 1052 222 1052 197 1089 c 0,22,23
 147 1163 147 1163 147 1244.5 c 128,-1,24
 147 1326 147 1326 170 1382.5 c 0,25,26
 194 1439 194 1439 242 1480 c 0,27,28
 345 1567 345 1567 552 1567 c 0,29,30
 886 1566 886 1566 1002 1340 c 0,31,32
 1042 1260 1042 1260 1042.5 1168 c 128,-1,33
 1043 1076 1043 1076 1028 1010.5 c 128,-1,34
 1013 945 1013 945 988 884.5 c 128,-1,35
 963 824 963 824 931 768 c 1,36,-1
 866 659 l 1,37,-1
 928 596 l 1,38,-1
 1073 697 l 1,39,-1
 1073 1167 l 2,40,41
 1074 1341 1074 1341 1194 1456 c 0,42,43
 1310 1567 1310 1567 1480 1567 c 1,44,-1
 1480 1394 l 1,45,46
 1354 1394 1354 1394 1294 1306 c 0,47,48
 1242 1230 1242 1230 1243 1101 c 2,49,-1
 1243 398 l 2,50,51
 1242 279 1242 279 1374 176 c 0,52,53
 1414 145 1414 145 1460 114 c 1,54,-1
 1360 -30 l 1,55,56
 1220 65 1220 65 1170 130 c 0,57,58
 1073 255 1073 255 1073 393 c 2,59,-1
 1073 496 l 1,60,-1
 915 380 l 1,61,-1
 763 519 l 1,62,63
 568 274 568 274 334 76 c 0,64,65
 260 14 260 14 196 -30 c 1,66,-1
 68 89 l 1,67,68
 384 316 384 316 610 588 c 0,69,70
 874 906 874 906 874 1143 c 0,71,72
 874 1316 874 1316 692 1374 c 0,73,74
 632 1394 632 1394 552 1393 c 0,0,1
948 1765 m 0,75,76
 862 1765 862 1765 789 1624 c 1,77,-1
 640 1708 l 1,78,79
 726 1868 726 1868 844 1919 c 0,80,81
 884 1936 884 1936 924 1936 c 128,-1,82
 964 1936 964 1936 997 1916 c 128,-1,83
 1030 1896 1030 1896 1058 1872 c 2,84,-1
 1110 1828 l 2,85,86
 1135 1808 1135 1808 1158 1808 c 128,-1,87
 1181 1808 1181 1808 1201 1820.5 c 0,88,89
 1221 1834 1221 1834 1240 1854 c 0,90,91
 1277 1894 1277 1894 1310 1955 c 1,92,-1
 1459 1872 l 1,93,94
 1374 1720 1374 1720 1256 1657 c 0,95,96
 1218 1637 1218 1637 1179.5 1637 c 128,-1,97
 1141 1637 1141 1637 1107 1657 c 128,-1,98
 1073 1677 1073 1677 1045 1701 c 2,99,-1
 994 1745 l 2,100,101
 971 1765 971 1765 948 1765 c 0,75,76
326.5 828 m 128,-1,103
 311 812 311 812 311 789.5 c 128,-1,104
 311 767 311 767 326.5 751.5 c 128,-1,105
 342 736 342 736 364.5 736 c 128,-1,106
 387 736 387 736 403 751.5 c 128,-1,107
 419 767 419 767 419 789.5 c 128,-1,108
 419 812 419 812 403 828 c 128,-1,109
 387 844 387 844 364.5 844 c 128,-1,102
 342 844 342 844 326.5 828 c 128,-1,103
EndSplineSet
EndChar

StartChar: Adieresis
Encoding: 196 196 128
Width: 1554
Flags: W
HStem: 566 170<319.984 409.652> 1393 174<366.182 747.716 1332.97 1480>
VStem: 141 170<745.321 834.377 1162.79 1340.68> 419 170<751.986 827.498> 874 168.5<937.069 1283.61> 1073 170<266.481 496 697 1293.93>
LayerCount: 2
Fore
SplineSet
552 1393 m 0,0,1
 322 1393 322 1393 322 1259 c 0,2,3
 322 1191 322 1191 392 1118 c 0,4,5
 422 1087 422 1087 456 1055.5 c 128,-1,6
 490 1024 490 1024 520 986 c 0,7,8
 590 896 590 896 589 792 c 0,9,10
 589 697 589 697 523.5 631.5 c 128,-1,11
 458 566 458 566 363 566 c 0,12,13
 270 566 270 566 206 632 c 0,14,15
 141 698 141 698 141 792 c 0,16,17
 141 902 141 902 230 970 c 0,18,19
 257 990 257 990 290 1002 c 1,20,21
 222 1052 222 1052 197 1089 c 0,22,23
 147 1163 147 1163 147 1244.5 c 128,-1,24
 147 1326 147 1326 170 1382.5 c 0,25,26
 194 1439 194 1439 242 1480 c 0,27,28
 345 1567 345 1567 552 1567 c 0,29,30
 886 1566 886 1566 1002 1340 c 0,31,32
 1042 1260 1042 1260 1042.5 1168 c 128,-1,33
 1043 1076 1043 1076 1028 1010.5 c 128,-1,34
 1013 945 1013 945 988 884.5 c 128,-1,35
 963 824 963 824 931 768 c 1,36,-1
 866 659 l 1,37,-1
 928 596 l 1,38,-1
 1073 697 l 1,39,-1
 1073 1167 l 2,40,41
 1074 1341 1074 1341 1194 1456 c 0,42,43
 1310 1567 1310 1567 1480 1567 c 1,44,-1
 1480 1394 l 1,45,46
 1354 1394 1354 1394 1294 1306 c 0,47,48
 1242 1230 1242 1230 1243 1101 c 2,49,-1
 1243 398 l 2,50,51
 1242 279 1242 279 1374 176 c 0,52,53
 1414 145 1414 145 1460 114 c 1,54,-1
 1360 -30 l 1,55,56
 1220 65 1220 65 1170 130 c 0,57,58
 1073 255 1073 255 1073 393 c 2,59,-1
 1073 496 l 1,60,-1
 915 380 l 1,61,-1
 763 519 l 1,62,63
 568 274 568 274 334 76 c 0,64,65
 260 14 260 14 196 -30 c 1,66,-1
 68 89 l 1,67,68
 384 316 384 316 610 588 c 0,69,70
 874 906 874 906 874 1143 c 0,71,72
 874 1316 874 1316 692 1374 c 0,73,74
 632 1394 632 1394 552 1393 c 0,0,1
964 1657 m 1,75,-1
 806 1710 l 1,76,-1
 925 1992 l 1,77,-1
 1102 1921 l 1,78,-1
 964 1657 l 1,75,-1
1269 1657 m 1,79,-1
 1111 1710 l 1,80,-1
 1229 1992 l 1,81,-1
 1406 1921 l 1,82,-1
 1269 1657 l 1,79,-1
326.5 828 m 128,-1,84
 311 812 311 812 311 789.5 c 128,-1,85
 311 767 311 767 326.5 751.5 c 128,-1,86
 342 736 342 736 364.5 736 c 128,-1,87
 387 736 387 736 403 751.5 c 128,-1,88
 419 767 419 767 419 789.5 c 128,-1,89
 419 812 419 812 403 828 c 128,-1,90
 387 844 387 844 364.5 844 c 128,-1,83
 342 844 342 844 326.5 828 c 128,-1,84
EndSplineSet
EndChar

StartChar: AE
Encoding: 198 198 129
Width: 2480
Flags: W
HStem: -1 174<1456.92 1923.97> 299 173<1628.56 1825.6> 585 149<330.423 447.867> 843 288<2212.4 2333.22> 907 174<2022.83 2162.62> 1139 175<1883.81 2046.29> 1394 173<366.645 743.716 1332.43 1524.72>
VStem: 136 173<1145.91 1341.41> 165 152<748.275 864.16> 462 150<748.689 865.026> 870 168.5<937.069 1283.61> 1069 170<697 1293.93> 1423 172<507.139 694.826 1049.62 1195.8> 1862 174<506.148 715.639> 2094 174<1364.04 1537> 2212 170<1024.01 1131>
LayerCount: 2
Fore
SplineSet
1711 -1 m 0,0,1
 1101 -1 1101 -1 1071 497 c 1,2,-1
 911 380 l 1,3,-1
 759 519 l 1,4,5
 564 274 564 274 330 76 c 0,6,7
 256 14 256 14 192 -30 c 1,8,-1
 64 89 l 1,9,10
 380 316 380 316 606 588 c 0,11,12
 870 906 870 906 870 1143 c 0,13,14
 870 1316 870 1316 688 1374 c 0,15,16
 628 1394 628 1394 560 1393.5 c 128,-1,17
 492 1393 492 1393 447.5 1382.5 c 128,-1,18
 403 1372 403 1372 372 1354 c 0,19,20
 309 1316 309 1316 309 1263 c 128,-1,21
 309 1210 309 1210 331.5 1175.5 c 128,-1,22
 354 1141 354 1141 387.5 1111.5 c 128,-1,23
 421 1082 421 1082 460.5 1054 c 128,-1,24
 500 1026 500 1026 534 992 c 0,25,26
 612 911 612 911 612 808 c 0,27,28
 612 714 612 714 546 650 c 0,29,30
 480 585 480 585 388 585 c 0,31,32
 295 585 295 585 230 650 c 0,33,34
 165 714 165 714 165 794 c 0,35,36
 165 944 165 944 286 1007 c 1,37,38
 217 1061 217 1061 189 1099 c 0,39,40
 136 1173 136 1173 136 1250 c 128,-1,41
 136 1327 136 1327 164 1385.5 c 128,-1,42
 192 1444 192 1444 246 1484 c 0,43,44
 355 1566 355 1566 548 1567 c 256,45,46
 882 1566 882 1566 998 1340 c 0,47,48
 1038 1260 1038 1260 1038.5 1168 c 128,-1,49
 1039 1076 1039 1076 1024 1010.5 c 128,-1,50
 1009 945 1009 945 984 884.5 c 128,-1,51
 959 824 959 824 927 768 c 1,52,-1
 862 659 l 1,53,-1
 924 596 l 1,54,-1
 1069 697 l 1,55,-1
 1069 1167 l 2,56,57
 1070 1341 1070 1341 1190 1456 c 0,58,59
 1306 1567 1306 1567 1476 1567 c 0,60,61
 1593 1567 1593 1567 1653 1491 c 1,62,-1
 1755 1617 l 1,63,64
 1819 1414 1819 1414 1900 1341 c 0,65,66
 1930 1314 1930 1314 1962 1314 c 128,-1,67
 1994 1314 1994 1314 2018 1330.5 c 0,68,69
 2042 1346 2042 1346 2059 1376 c 0,70,71
 2094 1437 2094 1437 2094 1537 c 1,72,-1
 2268 1537 l 1,73,74
 2268 1360 2268 1360 2188 1252 c 0,75,76
 2104 1139 2104 1139 1953 1139 c 128,-1,77
 1802 1139 1802 1139 1704 1275 c 1,78,-1
 1632 1187 l 2,79,80
 1602 1149 1602 1149 1602 1123 c 128,-1,81
 1602 1097 1602 1097 1614 1078.5 c 128,-1,82
 1626 1060 1626 1060 1646.5 1043.5 c 0,83,84
 1667 1028 1667 1028 1693 1012 c 2,85,-1
 1800 951 l 2,86,87
 1826 936 1826 936 1852 918 c 1,88,89
 1888 995 1888 995 1924 1026 c 0,90,91
 1989 1081 1989 1081 2069 1081 c 0,92,93
 2144 1081 2144 1081 2212 1024 c 1,94,-1
 2212 1131 l 1,95,-1
 2382 1131 l 1,96,97
 2382 993 2382 993 2363.5 943 c 128,-1,98
 2345 893 2345 893 2314.5 868 c 128,-1,99
 2284 843 2284 843 2240.5 843 c 128,-1,100
 2197 843 2197 843 2178 853 c 0,101,102
 2160 863 2160 863 2146 875 c 2,103,-1
 2120 897 l 2,104,105
 2108 907 2108 907 2089 907 c 128,-1,106
 2070 907 2070 907 2054.5 896.5 c 128,-1,107
 2039 886 2039 886 2027 869 c 0,108,109
 2008 842 2008 842 1988 785 c 1,110,111
 2036 706 2036 706 2036 624 c 128,-1,112
 2036 542 2036 542 2012 486 c 128,-1,113
 1988 430 1988 430 1946 388 c 0,114,115
 1855 298 1855 298 1729 299 c 256,116,117
 1602 299 1602 299 1512.5 388.5 c 128,-1,118
 1423 478 1423 478 1423 605 c 0,119,120
 1423 698 1423 698 1475 775 c 1,121,-1
 1613 673 l 1,122,123
 1595 643 1595 643 1595 610 c 128,-1,124
 1595 577 1595 577 1605.5 553 c 128,-1,125
 1616 529 1616 529 1634 511 c 0,126,127
 1673 472 1673 472 1728 472 c 256,128,129
 1784 472 1784 472 1823 511 c 128,-1,130
 1862 550 1862 550 1862 597.5 c 128,-1,131
 1862 645 1862 645 1844 677.5 c 128,-1,132
 1826 710 1826 710 1797 737 c 128,-1,133
 1768 764 1768 764 1732 786 c 2,134,-1
 1663 828 l 1,135,136
 1550 890 1550 890 1509 932 c 0,137,138
 1427 1016 1427 1016 1427 1118 c 0,139,140
 1427 1216 1427 1216 1498 1298 c 0,141,142
 1525 1330 1525 1330 1525 1354 c 0,143,144
 1525 1394 1525 1394 1467 1394 c 128,-1,145
 1409 1394 1409 1394 1363.5 1370 c 128,-1,146
 1318 1346 1318 1346 1290 1306 c 0,147,148
 1238 1230 1238 1230 1239 1101 c 2,149,-1
 1239 588 l 2,150,151
 1239 173 1239 173 1713 173 c 0,152,153
 1916 172 1916 172 2064 314 c 0,154,155
 2177 422 2177 422 2249 607 c 1,156,-1
 2411 543 l 1,157,158
 2326 322 2326 322 2172 177 c 0,159,160
 1982 -1 1982 -1 1711 -1 c 0,0,1
317 806 m 256,161,162
 317 776 317 776 338 755 c 128,-1,163
 359 734 359 734 389 734 c 256,164,165
 419 734 419 734 440.5 755 c 128,-1,166
 462 776 462 776 462 806 c 256,167,168
 462 836 462 836 440.5 857.5 c 128,-1,169
 419 879 419 879 389 879 c 256,170,171
 359 879 359 879 338 857.5 c 128,-1,172
 317 836 317 836 317 806 c 256,161,162
EndSplineSet
EndChar

StartChar: Ccedilla
Encoding: 199 199 130
Width: 1565
Flags: W
HStem: -462 171<535 621.64> 383 174<699.102 875> 1138 175<1123.91 1277.82> 1392 175<598.543 886.553>
VStem: 90 175<492.374 1013.08> 465 175<613.126 827.332> 1330 171<1372.41 1461.77>
LayerCount: 2
Fore
SplineSet
734 -136 m 1,0,1
 812 -185 812 -185 812 -277 c 0,2,3
 812 -360 812 -360 729 -412 c 0,4,5
 650 -462 650 -462 535 -462 c 1,6,-1
 535 -291 l 1,7,8
 611 -291 611 -291 622 -280.5 c 128,-1,9
 633 -270 633 -270 633 -257 c 0,10,11
 633 -233 633 -233 607.5 -229 c 128,-1,12
 582 -225 582 -225 532 -225 c 1,13,-1
 499 -106 l 1,14,-1
 689 6 l 1,15,16
 386 40 386 40 230 257 c 0,17,18
 90 453 90 453 90 758 c 0,19,20
 90 1123 90 1123 302 1351 c 0,21,22
 503 1567 503 1567 780 1567 c 0,23,24
 896 1567 896 1567 1002 1526 c 0,25,26
 1040 1511 1040 1511 1068 1489 c 1,27,28
 1112 1313 1112 1313 1201.5 1313 c 128,-1,29
 1291 1313 1291 1313 1330 1492 c 1,30,-1
 1501 1459 l 1,31,32
 1448 1210 1448 1210 1296 1154 c 0,33,34
 1250 1138 1250 1138 1203 1138 c 0,35,36
 1111 1138 1111 1138 1054 1213 c 1,37,38
 1041 1114 1041 1114 933 1026 c 0,39,40
 887 988 887 988 835.5 954.5 c 128,-1,41
 784 921 784 921 740 885 c 0,42,43
 640 802 640 802 640 711 c 0,44,45
 640 610 640 610 764 571 c 0,46,47
 809 557 809 557 875 557 c 1,48,-1
 875 383 l 1,49,50
 663 383 663 383 555 489 c 0,51,52
 465 577 465 577 465 711 c 0,53,54
 466 875 466 875 600 994 c 0,55,56
 638 1028 638 1028 678 1058 c 2,57,-1
 756 1114 l 1,58,59
 890 1207 890 1207 890 1291 c 2,60,-1
 890 1383 l 1,61,62
 864 1388 864 1388 833 1390 c 2,63,-1
 780 1392 l 1,64,65
 578 1386 578 1386 428 1218 c 0,66,67
 327 1106 327 1106 286 938 c 0,68,69
 265 854 265 854 265 738.5 c 128,-1,70
 265 623 265 623 300.5 515 c 0,71,72
 336 408 336 408 404 332 c 0,73,74
 545 176 545 176 802 175 c 0,75,76
 1065 174 1065 174 1243 392 c 0,77,78
 1308 471 1308 471 1338 548 c 1,79,-1
 1500 484 l 1,80,81
 1438 332 1438 332 1310 208 c 0,82,83
 1141 44 1141 44 918 9 c 1,84,-1
 734 -136 l 1,0,1
EndSplineSet
EndChar

StartChar: Egrave
Encoding: 200 200 131
Width: 1530
Flags: W
HStem: -1 174<570.163 979.39> 299 173<678.558 875.599> 843 288<1262.4 1383.22> 907 174<1072.83 1212.62> 1139 175<931.187 1096.02> 1393 174<426.365 574.724>
VStem: 97 175<502.452 1141.7> 473 172<507.139 694.826 1049.62 1195.8> 912 174<506.148 715.639> 1144 174<1377.92 1537> 1262 170<1024.01 1131>
LayerCount: 2
Fore
SplineSet
1038 785 m 1,0,1
 1086 706 1086 706 1086 624 c 128,-1,2
 1086 542 1086 542 1062 486 c 128,-1,3
 1038 430 1038 430 996 388 c 0,4,5
 905 298 905 298 779 299 c 256,6,7
 652 299 652 299 562.5 388.5 c 128,-1,8
 473 478 473 478 473 605 c 0,9,10
 473 698 473 698 525 775 c 1,11,-1
 663 673 l 1,12,13
 645 643 645 643 645 610 c 128,-1,14
 645 577 645 577 655.5 553 c 128,-1,15
 666 529 666 529 684 511 c 0,16,17
 723 472 723 472 778 472 c 256,18,19
 834 472 834 472 873 511 c 128,-1,20
 912 550 912 550 912 597.5 c 128,-1,21
 912 645 912 645 894 677.5 c 128,-1,22
 876 710 876 710 847 737 c 128,-1,23
 818 764 818 764 782 786 c 2,24,-1
 713 828 l 1,25,26
 600 890 600 890 559 932 c 0,27,28
 477 1016 477 1016 477 1118 c 0,29,30
 477 1216 477 1216 548 1298 c 0,31,32
 575 1330 575 1330 575 1354 c 0,33,34
 575 1393 575 1393 527.5 1393 c 128,-1,35
 480 1393 480 1393 434.5 1355.5 c 128,-1,36
 389 1318 389 1318 353 1242 c 0,37,38
 272 1070 272 1070 272 776 c 256,39,40
 272 482 272 482 429 318 c 0,41,42
 568 173 568 173 781 173 c 0,43,44
 972 172 972 172 1117 314 c 0,45,46
 1228 422 1228 422 1299 607 c 1,47,-1
 1461 543 l 1,48,49
 1378 321 1378 321 1226 177 c 0,50,51
 1040 -1 1040 -1 781 -1 c 0,52,53
 500 0 500 0 310 186 c 0,54,55
 98 395 98 395 97 776 c 0,56,57
 97 1153 97 1153 234 1373 c 0,58,59
 295 1471 295 1471 371.5 1519 c 128,-1,60
 448 1567 448 1567 526 1567 c 0,61,62
 643 1567 643 1567 703 1491 c 1,63,-1
 796 1606 l 1,64,-1
 437 1837 l 1,65,-1
 553 1995 l 1,66,-1
 901 1741 l 1,67,-1
 810 1599 l 1,68,69
 907 1314 907 1314 1013 1314 c 0,70,71
 1073 1314 1073 1314 1109 1376 c 0,72,73
 1144 1437 1144 1437 1144 1537 c 1,74,-1
 1318 1537 l 1,75,76
 1318 1360 1318 1360 1238 1252 c 0,77,78
 1154 1139 1154 1139 1003 1139 c 128,-1,79
 852 1139 852 1139 754 1275 c 1,80,-1
 682 1187 l 2,81,82
 652 1149 652 1149 652 1123 c 128,-1,83
 652 1097 652 1097 664 1078.5 c 128,-1,84
 676 1060 676 1060 696.5 1043.5 c 0,85,86
 717 1028 717 1028 743 1012 c 2,87,-1
 850 951 l 2,88,89
 876 936 876 936 902 918 c 1,90,91
 938 995 938 995 974 1026 c 0,92,93
 1039 1081 1039 1081 1119 1081 c 0,94,95
 1194 1081 1194 1081 1262 1024 c 1,96,-1
 1262 1131 l 1,97,-1
 1432 1131 l 1,98,99
 1432 993 1432 993 1413.5 943 c 128,-1,100
 1395 893 1395 893 1364.5 868 c 128,-1,101
 1334 843 1334 843 1290.5 843 c 128,-1,102
 1247 843 1247 843 1228 853 c 0,103,104
 1210 863 1210 863 1196 875 c 2,105,-1
 1170 897 l 2,106,107
 1158 907 1158 907 1139 907 c 128,-1,108
 1120 907 1120 907 1104.5 896.5 c 128,-1,109
 1089 886 1089 886 1077 869 c 0,110,111
 1058 842 1058 842 1038 785 c 1,0,1
EndSplineSet
EndChar

StartChar: Eacute
Encoding: 201 201 132
Width: 1530
Flags: W
HStem: -1 174<570.163 979.39> 299 173<678.558 875.599> 843 288<1262.4 1383.22> 907 174<1072.83 1212.62> 1139 175<934.917 1096.29> 1393 174<426.365 574.724>
VStem: 97 175<502.452 1141.7> 473 172<507.139 694.826 1049.62 1195.8> 912 174<506.148 715.639> 1144 174<1364.04 1537> 1262 170<1024.01 1131>
LayerCount: 2
Fore
SplineSet
526 1567 m 0,0,1
 643 1567 643 1567 703 1491 c 1,2,-1
 797 1607 l 1,3,-1
 713 1741 l 1,4,-1
 1062 1995 l 1,5,-1
 1178 1837 l 1,6,-1
 809 1603 l 1,7,8
 872 1410 872 1410 952 1340 c 0,9,10
 982 1314 982 1314 1013 1314 c 128,-1,11
 1044 1314 1044 1314 1068 1330.5 c 0,12,13
 1092 1346 1092 1346 1109 1376 c 0,14,15
 1144 1437 1144 1437 1144 1537 c 1,16,-1
 1318 1537 l 1,17,18
 1318 1360 1318 1360 1238 1252 c 0,19,20
 1154 1139 1154 1139 1003 1139 c 128,-1,21
 852 1139 852 1139 754 1275 c 1,22,-1
 682 1187 l 2,23,24
 652 1149 652 1149 652 1123 c 128,-1,25
 652 1097 652 1097 664 1078.5 c 128,-1,26
 676 1060 676 1060 696.5 1043.5 c 0,27,28
 717 1028 717 1028 743 1012 c 2,29,-1
 850 951 l 2,30,31
 876 936 876 936 902 918 c 1,32,33
 938 995 938 995 974 1026 c 0,34,35
 1039 1081 1039 1081 1119 1081 c 0,36,37
 1194 1081 1194 1081 1262 1024 c 1,38,-1
 1262 1131 l 1,39,-1
 1432 1131 l 1,40,41
 1432 993 1432 993 1413.5 943 c 128,-1,42
 1395 893 1395 893 1364.5 868 c 128,-1,43
 1334 843 1334 843 1290.5 843 c 128,-1,44
 1247 843 1247 843 1228 853 c 0,45,46
 1210 863 1210 863 1196 875 c 2,47,-1
 1170 897 l 2,48,49
 1158 907 1158 907 1139 907 c 128,-1,50
 1120 907 1120 907 1104.5 896.5 c 128,-1,51
 1089 886 1089 886 1077 869 c 0,52,53
 1058 842 1058 842 1038 785 c 1,54,55
 1086 706 1086 706 1086 624 c 128,-1,56
 1086 542 1086 542 1062 486 c 128,-1,57
 1038 430 1038 430 996 388 c 0,58,59
 905 298 905 298 779 299 c 256,60,61
 652 299 652 299 562.5 388.5 c 128,-1,62
 473 478 473 478 473 605 c 0,63,64
 473 698 473 698 525 775 c 1,65,-1
 663 673 l 1,66,67
 645 643 645 643 645 610 c 128,-1,68
 645 577 645 577 655.5 553 c 128,-1,69
 666 529 666 529 684 511 c 0,70,71
 723 472 723 472 778 472 c 256,72,73
 834 472 834 472 873 511 c 128,-1,74
 912 550 912 550 912 597.5 c 128,-1,75
 912 645 912 645 894 677.5 c 128,-1,76
 876 710 876 710 847 737 c 128,-1,77
 818 764 818 764 782 786 c 2,78,-1
 713 828 l 1,79,80
 600 890 600 890 559 932 c 0,81,82
 477 1016 477 1016 477 1118 c 0,83,84
 477 1216 477 1216 548 1298 c 0,85,86
 575 1330 575 1330 575 1354 c 0,87,88
 575 1393 575 1393 527.5 1393 c 128,-1,89
 480 1393 480 1393 434.5 1355.5 c 128,-1,90
 389 1318 389 1318 353 1242 c 0,91,92
 272 1070 272 1070 272 776 c 256,93,94
 272 482 272 482 429 318 c 0,95,96
 568 173 568 173 781 173 c 0,97,98
 972 172 972 172 1117 314 c 0,99,100
 1228 422 1228 422 1299 607 c 1,101,-1
 1461 543 l 1,102,103
 1378 321 1378 321 1226 177 c 0,104,105
 1040 -1 1040 -1 781 -1 c 0,106,107
 500 0 500 0 310 186 c 0,108,109
 98 395 98 395 97 776 c 0,110,111
 97 1153 97 1153 234 1373 c 0,112,113
 295 1471 295 1471 371.5 1519 c 128,-1,114
 448 1567 448 1567 526 1567 c 0,0,1
EndSplineSet
EndChar

StartChar: Ecircumflex
Encoding: 202 202 133
Width: 1530
Flags: W
HStem: -1 174<570.163 979.39> 299 173<678.558 875.599> 843 288<1262.4 1383.22> 907 174<1072.83 1212.62> 1139 175<933.807 1096.29> 1393 174<426.365 574.724>
VStem: 97 175<502.452 1141.7> 473 172<507.139 694.826 1049.62 1195.8> 912 174<506.148 715.639> 1144 174<1364.04 1537> 1262 170<1024.01 1131>
LayerCount: 2
Fore
SplineSet
1038 785 m 1,0,1
 1086 706 1086 706 1086 624 c 128,-1,2
 1086 542 1086 542 1062 486 c 128,-1,3
 1038 430 1038 430 996 388 c 0,4,5
 905 298 905 298 779 299 c 256,6,7
 652 299 652 299 562.5 388.5 c 128,-1,8
 473 478 473 478 473 605 c 0,9,10
 473 698 473 698 525 775 c 1,11,-1
 663 673 l 1,12,13
 645 643 645 643 645 610 c 128,-1,14
 645 577 645 577 655.5 553 c 128,-1,15
 666 529 666 529 684 511 c 0,16,17
 723 472 723 472 778 472 c 256,18,19
 834 472 834 472 873 511 c 128,-1,20
 912 550 912 550 912 597.5 c 128,-1,21
 912 645 912 645 894 677.5 c 128,-1,22
 876 710 876 710 847 737 c 128,-1,23
 818 764 818 764 782 786 c 2,24,-1
 713 828 l 1,25,26
 600 890 600 890 559 932 c 0,27,28
 477 1016 477 1016 477 1118 c 0,29,30
 477 1216 477 1216 548 1298 c 0,31,32
 575 1330 575 1330 575 1354 c 0,33,34
 575 1393 575 1393 527.5 1393 c 128,-1,35
 480 1393 480 1393 434.5 1355.5 c 128,-1,36
 389 1318 389 1318 353 1242 c 0,37,38
 272 1070 272 1070 272 776 c 256,39,40
 272 482 272 482 429 318 c 0,41,42
 568 173 568 173 781 173 c 0,43,44
 972 172 972 172 1117 314 c 0,45,46
 1228 422 1228 422 1299 607 c 1,47,-1
 1461 543 l 1,48,49
 1378 321 1378 321 1226 177 c 0,50,51
 1040 -1 1040 -1 781 -1 c 0,52,53
 500 0 500 0 310 186 c 0,54,55
 98 395 98 395 97 776 c 0,56,57
 97 1153 97 1153 234 1373 c 0,58,59
 295 1471 295 1471 371.5 1519 c 128,-1,60
 448 1567 448 1567 526 1567 c 0,61,62
 643 1567 643 1567 703 1491 c 1,63,-1
 805 1617 l 1,64,65
 869 1414 869 1414 950 1341 c 0,66,67
 980 1314 980 1314 1012 1314 c 128,-1,68
 1044 1314 1044 1314 1068 1330.5 c 0,69,70
 1092 1346 1092 1346 1109 1376 c 0,71,72
 1144 1437 1144 1437 1144 1537 c 1,73,-1
 1318 1537 l 1,74,75
 1318 1360 1318 1360 1238 1252 c 0,76,77
 1154 1139 1154 1139 1003 1139 c 128,-1,78
 852 1139 852 1139 754 1275 c 1,79,-1
 682 1187 l 2,80,81
 652 1149 652 1149 652 1123 c 128,-1,82
 652 1097 652 1097 664 1078.5 c 128,-1,83
 676 1060 676 1060 696.5 1043.5 c 0,84,85
 717 1028 717 1028 743 1012 c 2,86,-1
 850 951 l 2,87,88
 876 936 876 936 902 918 c 1,89,90
 938 995 938 995 974 1026 c 0,91,92
 1039 1081 1039 1081 1119 1081 c 0,93,94
 1194 1081 1194 1081 1262 1024 c 1,95,-1
 1262 1131 l 1,96,-1
 1432 1131 l 1,97,98
 1432 993 1432 993 1413.5 943 c 128,-1,99
 1395 893 1395 893 1364.5 868 c 128,-1,100
 1334 843 1334 843 1290.5 843 c 128,-1,101
 1247 843 1247 843 1228 853 c 0,102,103
 1210 863 1210 863 1196 875 c 2,104,-1
 1170 897 l 2,105,106
 1158 907 1158 907 1139 907 c 128,-1,107
 1120 907 1120 907 1104.5 896.5 c 128,-1,108
 1089 886 1089 886 1077 869 c 0,109,110
 1058 842 1058 842 1038 785 c 1,0,1
498 1745 m 1,111,-1
 859 1997 l 1,112,-1
 1207 1745 l 1,113,-1
 1104 1609 l 1,114,-1
 859 1790 l 1,115,116
 830 1766 830 1766 786 1736 c 2,117,-1
 601 1609 l 1,118,-1
 498 1745 l 1,111,-1
EndSplineSet
EndChar

StartChar: Edieresis
Encoding: 203 203 134
Width: 1530
Flags: W
HStem: -1 174<570.163 979.39> 299 173<678.558 875.599> 843 288<1262.4 1383.22> 907 174<1072.83 1212.62> 1139 175<933.807 1096.29> 1393 174<426.365 574.724>
VStem: 97 175<502.452 1141.7> 473 172<507.139 694.826 1049.62 1195.8> 912 174<506.148 715.639> 1144 174<1364.04 1537> 1262 170<1024.01 1131>
LayerCount: 2
Fore
SplineSet
1038 785 m 1,0,1
 1086 706 1086 706 1086 624 c 128,-1,2
 1086 542 1086 542 1062 486 c 128,-1,3
 1038 430 1038 430 996 388 c 0,4,5
 905 298 905 298 779 299 c 256,6,7
 652 299 652 299 562.5 388.5 c 128,-1,8
 473 478 473 478 473 605 c 0,9,10
 473 698 473 698 525 775 c 1,11,-1
 663 673 l 1,12,13
 645 643 645 643 645 610 c 128,-1,14
 645 577 645 577 655.5 553 c 128,-1,15
 666 529 666 529 684 511 c 0,16,17
 723 472 723 472 778 472 c 256,18,19
 834 472 834 472 873 511 c 128,-1,20
 912 550 912 550 912 597.5 c 128,-1,21
 912 645 912 645 894 677.5 c 128,-1,22
 876 710 876 710 847 737 c 128,-1,23
 818 764 818 764 782 786 c 2,24,-1
 713 828 l 1,25,26
 600 890 600 890 559 932 c 0,27,28
 477 1016 477 1016 477 1118 c 0,29,30
 477 1216 477 1216 548 1298 c 0,31,32
 575 1330 575 1330 575 1354 c 0,33,34
 575 1393 575 1393 527.5 1393 c 128,-1,35
 480 1393 480 1393 434.5 1355.5 c 128,-1,36
 389 1318 389 1318 353 1242 c 0,37,38
 272 1070 272 1070 272 776 c 256,39,40
 272 482 272 482 429 318 c 0,41,42
 568 173 568 173 781 173 c 0,43,44
 972 172 972 172 1117 314 c 0,45,46
 1228 422 1228 422 1299 607 c 1,47,-1
 1461 543 l 1,48,49
 1378 321 1378 321 1226 177 c 0,50,51
 1040 -1 1040 -1 781 -1 c 0,52,53
 500 0 500 0 310 186 c 0,54,55
 98 395 98 395 97 776 c 0,56,57
 97 1153 97 1153 234 1373 c 0,58,59
 295 1471 295 1471 371.5 1519 c 128,-1,60
 448 1567 448 1567 526 1567 c 0,61,62
 643 1567 643 1567 703 1491 c 1,63,-1
 805 1617 l 1,64,65
 869 1414 869 1414 950 1341 c 0,66,67
 980 1314 980 1314 1012 1314 c 128,-1,68
 1044 1314 1044 1314 1068 1330.5 c 0,69,70
 1092 1346 1092 1346 1109 1376 c 0,71,72
 1144 1437 1144 1437 1144 1537 c 1,73,-1
 1318 1537 l 1,74,75
 1318 1360 1318 1360 1238 1252 c 0,76,77
 1154 1139 1154 1139 1003 1139 c 128,-1,78
 852 1139 852 1139 754 1275 c 1,79,-1
 682 1187 l 2,80,81
 652 1149 652 1149 652 1123 c 128,-1,82
 652 1097 652 1097 664 1078.5 c 128,-1,83
 676 1060 676 1060 696.5 1043.5 c 0,84,85
 717 1028 717 1028 743 1012 c 2,86,-1
 850 951 l 2,87,88
 876 936 876 936 902 918 c 1,89,90
 938 995 938 995 974 1026 c 0,91,92
 1039 1081 1039 1081 1119 1081 c 0,93,94
 1194 1081 1194 1081 1262 1024 c 1,95,-1
 1262 1131 l 1,96,-1
 1432 1131 l 1,97,98
 1432 993 1432 993 1413.5 943 c 128,-1,99
 1395 893 1395 893 1364.5 868 c 128,-1,100
 1334 843 1334 843 1290.5 843 c 128,-1,101
 1247 843 1247 843 1228 853 c 0,102,103
 1210 863 1210 863 1196 875 c 2,104,-1
 1170 897 l 2,105,106
 1158 907 1158 907 1139 907 c 128,-1,107
 1120 907 1120 907 1104.5 896.5 c 128,-1,108
 1089 886 1089 886 1077 869 c 0,109,110
 1058 842 1058 842 1038 785 c 1,0,1
1021 1657 m 1,111,-1
 863 1710 l 1,112,-1
 981 1992 l 1,113,-1
 1158 1921 l 1,114,-1
 1021 1657 l 1,111,-1
716 1657 m 1,115,-1
 558 1710 l 1,116,-1
 677 1992 l 1,117,-1
 854 1921 l 1,118,-1
 716 1657 l 1,115,-1
EndSplineSet
EndChar

StartChar: Igrave
Encoding: 204 204 135
Width: 1643
Flags: W
HStem: -1 176<285.955 323 1073.49 1282.64> 315 174<294.934 586.143> 591 175<1153 1283.22> 800 174<358 536> 1051 238<1122.75 1374.45> 1393 174<362.457 617.25 1292.99 1368.5>
VStem: 96 174.5<185.987 288.048 1054 1301.06> 945 174<262.674 532.208> 1108 169<1297.73 1388.2> 1364 173<254.841 508.96> 1385 170<1297.39 1387.23>
LayerCount: 2
Fore
SplineSet
1312.5 1070 m 128,-1,1
 1245 1051 1245 1051 1163.5 1051 c 128,-1,2
 1082 1051 1082 1051 985 1092 c 1,3,-1
 828 968 l 1,4,5
 851 916 851 916 882 870 c 2,6,-1
 1009 686 l 1,7,8
 1119 521 1119 521 1119 356 c 0,9,10
 1119 258 1119 258 1072 180 c 1,11,12
 1085 176 1085 176 1105 175 c 2,13,-1
 1136 174 l 2,14,15
 1148 174 1148 174 1173 173.5 c 128,-1,16
 1198 173 1198 173 1236 189.5 c 128,-1,17
 1274 206 1274 206 1302 234 c 0,18,19
 1364 296 1364 296 1364 382 c 256,20,21
 1364 468 1364 468 1302 530 c 128,-1,22
 1240 592 1240 592 1153 591 c 1,23,-1
 1153 766 l 1,24,25
 1312 766 1312 766 1424.5 653.5 c 128,-1,26
 1537 541 1537 541 1537 382 c 0,27,28
 1536 222 1536 222 1424 111 c 0,29,30
 1311 -1 1311 -1 1153 -1 c 0,31,32
 958 -1 958 -1 756 157 c 0,33,34
 632 254 632 254 558 284.5 c 128,-1,35
 484 315 484 315 430 315 c 128,-1,36
 376 315 376 315 348.5 305 c 0,37,38
 322 294 322 294 304 280 c 0,39,40
 272 253 272 253 271.5 227 c 128,-1,41
 271 201 271 201 285.5 185.5 c 128,-1,42
 300 170 300 170 323 170 c 1,43,-1
 323 0 l 1,44,45
 230 0 230 0 166 66 c 0,46,47
 101 132 101 132 101 226 c 0,48,49
 100 330 100 330 176 404 c 0,50,51
 264 490 264 490 415 489 c 0,52,53
 621 488 621 488 812 340 c 1,54,-1
 917 261 l 1,55,56
 945 304 945 304 945 365.5 c 128,-1,57
 945 427 945 427 923 482.5 c 128,-1,58
 901 538 901 538 868 587 c 128,-1,59
 835 636 835 636 796 682 c 128,-1,60
 757 728 757 728 724 781 c 0,61,62
 647 905 647 905 647 1047 c 1,63,-1
 824 1187 l 1,64,65
 792 1210 792 1210 752.5 1245 c 0,66,67
 714 1280 714 1280 670 1313 c 0,68,69
 565 1393 565 1393 503 1393 c 128,-1,70
 441 1393 441 1393 400 1372.5 c 0,71,72
 358 1352 358 1352 330 1320 c 0,73,74
 270 1254 270 1254 270.5 1191 c 128,-1,75
 271 1128 271 1128 290.5 1090 c 128,-1,76
 310 1052 310 1052 346 1026 c 0,77,78
 417 974 417 974 536 974 c 1,79,-1
 536 800 l 1,80,81
 338 800 338 800 220 896 c 0,82,83
 96 997 96 997 96 1178 c 0,84,85
 96 1319 96 1319 204 1437 c 0,86,87
 322 1567 322 1567 492 1567 c 0,88,89
 656 1568 656 1568 836 1408 c 0,90,91
 950 1307 950 1307 1015.5 1270.5 c 128,-1,92
 1081 1234 1081 1234 1139 1227 c 1,93,94
 1108 1280 1108 1280 1108 1334.5 c 128,-1,95
 1108 1389 1108 1389 1125.5 1430 c 0,96,97
 1143 1472 1143 1472 1173 1502 c 0,98,99
 1237 1568 1237 1568 1331 1567 c 0,100,101
 1424 1567 1424 1567 1489.5 1501.5 c 128,-1,102
 1555 1436 1555 1436 1555 1354 c 128,-1,103
 1555 1272 1555 1272 1521.5 1218 c 128,-1,104
 1488 1164 1488 1164 1434 1126.5 c 128,-1,0
 1380 1089 1380 1089 1312.5 1070 c 128,-1,1
1292.5 1381 m 128,-1,106
 1277 1365 1277 1365 1277 1342.5 c 128,-1,107
 1277 1320 1277 1320 1292.5 1304.5 c 128,-1,108
 1308 1289 1308 1289 1330.5 1289 c 128,-1,109
 1353 1289 1353 1289 1369 1304.5 c 128,-1,110
 1385 1320 1385 1320 1385 1342.5 c 128,-1,111
 1385 1365 1385 1365 1369 1381 c 128,-1,112
 1353 1397 1353 1397 1330.5 1397 c 128,-1,105
 1308 1397 1308 1397 1292.5 1381 c 128,-1,106
547 1875 m 1,113,-1
 663 2033 l 1,114,-1
 1011 1779 l 1,115,-1
 920 1636 l 1,116,-1
 547 1875 l 1,113,-1
EndSplineSet
EndChar

StartChar: Iacute
Encoding: 205 205 136
Width: 1643
Flags: W
HStem: -1 176<285.955 323 1073.49 1282.64> 315 174<294.934 586.143> 591 175<1153 1283.22> 800 174<358 536> 1051 238<1122.75 1374.45> 1393 174<362.457 617.25 1292.99 1368.5>
VStem: 96 174.5<185.987 288.048 1054 1301.06> 945 174<262.674 532.208> 1108 169<1297.73 1388.2> 1364 173<254.841 508.96> 1385 170<1297.39 1387.23>
LayerCount: 2
Fore
SplineSet
1312.5 1070 m 128,-1,1
 1245 1051 1245 1051 1163.5 1051 c 128,-1,2
 1082 1051 1082 1051 985 1092 c 1,3,-1
 828 968 l 1,4,5
 851 916 851 916 882 870 c 2,6,-1
 1009 686 l 1,7,8
 1119 521 1119 521 1119 356 c 0,9,10
 1119 258 1119 258 1072 180 c 1,11,12
 1085 176 1085 176 1105 175 c 2,13,-1
 1136 174 l 2,14,15
 1148 174 1148 174 1173 173.5 c 128,-1,16
 1198 173 1198 173 1236 189.5 c 128,-1,17
 1274 206 1274 206 1302 234 c 0,18,19
 1364 296 1364 296 1364 382 c 256,20,21
 1364 468 1364 468 1302 530 c 128,-1,22
 1240 592 1240 592 1153 591 c 1,23,-1
 1153 766 l 1,24,25
 1312 766 1312 766 1424.5 653.5 c 128,-1,26
 1537 541 1537 541 1537 382 c 0,27,28
 1536 222 1536 222 1424 111 c 0,29,30
 1311 -1 1311 -1 1153 -1 c 0,31,32
 958 -1 958 -1 756 157 c 0,33,34
 632 254 632 254 558 284.5 c 128,-1,35
 484 315 484 315 430 315 c 128,-1,36
 376 315 376 315 348.5 305 c 0,37,38
 322 294 322 294 304 280 c 0,39,40
 272 253 272 253 271.5 227 c 128,-1,41
 271 201 271 201 285.5 185.5 c 128,-1,42
 300 170 300 170 323 170 c 1,43,-1
 323 0 l 1,44,45
 230 0 230 0 166 66 c 0,46,47
 101 132 101 132 101 226 c 0,48,49
 100 330 100 330 176 404 c 0,50,51
 264 490 264 490 415 489 c 0,52,53
 621 488 621 488 812 340 c 1,54,-1
 917 261 l 1,55,56
 945 304 945 304 945 365.5 c 128,-1,57
 945 427 945 427 923 482.5 c 128,-1,58
 901 538 901 538 868 587 c 128,-1,59
 835 636 835 636 796 682 c 128,-1,60
 757 728 757 728 724 781 c 0,61,62
 647 905 647 905 647 1047 c 1,63,-1
 824 1187 l 1,64,65
 792 1210 792 1210 752.5 1245 c 0,66,67
 714 1280 714 1280 670 1313 c 0,68,69
 565 1393 565 1393 503 1393 c 128,-1,70
 441 1393 441 1393 400 1372.5 c 0,71,72
 358 1352 358 1352 330 1320 c 0,73,74
 270 1254 270 1254 270.5 1191 c 128,-1,75
 271 1128 271 1128 290.5 1090 c 128,-1,76
 310 1052 310 1052 346 1026 c 0,77,78
 417 974 417 974 536 974 c 1,79,-1
 536 800 l 1,80,81
 338 800 338 800 220 896 c 0,82,83
 96 997 96 997 96 1178 c 0,84,85
 96 1319 96 1319 204 1437 c 0,86,87
 322 1567 322 1567 492 1567 c 0,88,89
 656 1568 656 1568 836 1408 c 0,90,91
 950 1307 950 1307 1015.5 1270.5 c 128,-1,92
 1081 1234 1081 1234 1139 1227 c 1,93,94
 1108 1280 1108 1280 1108 1334.5 c 128,-1,95
 1108 1389 1108 1389 1125.5 1430 c 0,96,97
 1143 1472 1143 1472 1173 1502 c 0,98,99
 1237 1568 1237 1568 1331 1567 c 0,100,101
 1424 1567 1424 1567 1489.5 1501.5 c 128,-1,102
 1555 1436 1555 1436 1555 1354 c 128,-1,103
 1555 1272 1555 1272 1521.5 1218 c 128,-1,104
 1488 1164 1488 1164 1434 1126.5 c 128,-1,0
 1380 1089 1380 1089 1312.5 1070 c 128,-1,1
1292.5 1381 m 128,-1,106
 1277 1365 1277 1365 1277 1342.5 c 128,-1,107
 1277 1320 1277 1320 1292.5 1304.5 c 128,-1,108
 1308 1289 1308 1289 1330.5 1289 c 128,-1,109
 1353 1289 1353 1289 1369 1304.5 c 128,-1,110
 1385 1320 1385 1320 1385 1342.5 c 128,-1,111
 1385 1365 1385 1365 1369 1381 c 128,-1,112
 1353 1397 1353 1397 1330.5 1397 c 128,-1,105
 1308 1397 1308 1397 1292.5 1381 c 128,-1,106
1060 1637 m 1,113,-1
 970 1779 l 1,114,-1
 1319 2033 l 1,115,-1
 1435 1875 l 1,116,-1
 1060 1637 l 1,113,-1
EndSplineSet
EndChar

StartChar: Icircumflex
Encoding: 206 206 137
Width: 1643
Flags: W
HStem: -1 176<285.955 323 1073.49 1282.64> 315 174<294.934 586.143> 591 175<1153 1283.22> 800 174<358 536> 1051 238<1122.75 1374.45> 1393 174<362.457 617.25 1292.99 1368.5>
VStem: 96 174.5<185.987 288.048 1054 1301.06> 945 174<262.674 532.208> 1108 169<1297.73 1388.2> 1364 173<254.841 508.96> 1385 170<1297.39 1387.23>
LayerCount: 2
Fore
SplineSet
1312.5 1070 m 128,-1,1
 1245 1051 1245 1051 1163.5 1051 c 128,-1,2
 1082 1051 1082 1051 985 1092 c 1,3,-1
 828 968 l 1,4,5
 851 916 851 916 882 870 c 2,6,-1
 1009 686 l 1,7,8
 1119 521 1119 521 1119 356 c 0,9,10
 1119 258 1119 258 1072 180 c 1,11,12
 1085 176 1085 176 1105 175 c 2,13,-1
 1136 174 l 2,14,15
 1148 174 1148 174 1173 173.5 c 128,-1,16
 1198 173 1198 173 1236 189.5 c 128,-1,17
 1274 206 1274 206 1302 234 c 0,18,19
 1364 296 1364 296 1364 382 c 256,20,21
 1364 468 1364 468 1302 530 c 128,-1,22
 1240 592 1240 592 1153 591 c 1,23,-1
 1153 766 l 1,24,25
 1312 766 1312 766 1424.5 653.5 c 128,-1,26
 1537 541 1537 541 1537 382 c 0,27,28
 1536 222 1536 222 1424 111 c 0,29,30
 1311 -1 1311 -1 1153 -1 c 0,31,32
 958 -1 958 -1 756 157 c 0,33,34
 632 254 632 254 558 284.5 c 128,-1,35
 484 315 484 315 430 315 c 128,-1,36
 376 315 376 315 348.5 305 c 0,37,38
 322 294 322 294 304 280 c 0,39,40
 272 253 272 253 271.5 227 c 128,-1,41
 271 201 271 201 285.5 185.5 c 128,-1,42
 300 170 300 170 323 170 c 1,43,-1
 323 0 l 1,44,45
 230 0 230 0 166 66 c 0,46,47
 101 132 101 132 101 226 c 0,48,49
 100 330 100 330 176 404 c 0,50,51
 264 490 264 490 415 489 c 0,52,53
 621 488 621 488 812 340 c 1,54,-1
 917 261 l 1,55,56
 945 304 945 304 945 365.5 c 128,-1,57
 945 427 945 427 923 482.5 c 128,-1,58
 901 538 901 538 868 587 c 128,-1,59
 835 636 835 636 796 682 c 128,-1,60
 757 728 757 728 724 781 c 0,61,62
 647 905 647 905 647 1047 c 1,63,-1
 824 1187 l 1,64,65
 792 1210 792 1210 752.5 1245 c 0,66,67
 714 1280 714 1280 670 1313 c 0,68,69
 565 1393 565 1393 503 1393 c 128,-1,70
 441 1393 441 1393 400 1372.5 c 0,71,72
 358 1352 358 1352 330 1320 c 0,73,74
 270 1254 270 1254 270.5 1191 c 128,-1,75
 271 1128 271 1128 290.5 1090 c 128,-1,76
 310 1052 310 1052 346 1026 c 0,77,78
 417 974 417 974 536 974 c 1,79,-1
 536 800 l 1,80,81
 338 800 338 800 220 896 c 0,82,83
 96 997 96 997 96 1178 c 0,84,85
 96 1319 96 1319 204 1437 c 0,86,87
 322 1567 322 1567 492 1567 c 0,88,89
 656 1568 656 1568 836 1408 c 0,90,91
 950 1307 950 1307 1015.5 1270.5 c 128,-1,92
 1081 1234 1081 1234 1139 1227 c 1,93,94
 1108 1280 1108 1280 1108 1334.5 c 128,-1,95
 1108 1389 1108 1389 1125.5 1430 c 0,96,97
 1143 1472 1143 1472 1173 1502 c 0,98,99
 1237 1568 1237 1568 1331 1567 c 0,100,101
 1424 1567 1424 1567 1489.5 1501.5 c 128,-1,102
 1555 1436 1555 1436 1555 1354 c 128,-1,103
 1555 1272 1555 1272 1521.5 1218 c 128,-1,104
 1488 1164 1488 1164 1434 1126.5 c 128,-1,0
 1380 1089 1380 1089 1312.5 1070 c 128,-1,1
1292.5 1381 m 128,-1,106
 1277 1365 1277 1365 1277 1342.5 c 128,-1,107
 1277 1320 1277 1320 1292.5 1304.5 c 128,-1,108
 1308 1289 1308 1289 1330.5 1289 c 128,-1,109
 1353 1289 1353 1289 1369 1304.5 c 128,-1,110
 1385 1320 1385 1320 1385 1342.5 c 128,-1,111
 1385 1365 1385 1365 1369 1381 c 128,-1,112
 1353 1397 1353 1397 1330.5 1397 c 128,-1,105
 1308 1397 1308 1397 1292.5 1381 c 128,-1,106
584 1783 m 1,113,-1
 945 2035 l 1,114,-1
 1293 1783 l 1,115,-1
 1190 1647 l 1,116,-1
 945 1828 l 1,117,118
 916 1804 916 1804 872 1774 c 2,119,-1
 687 1647 l 1,120,-1
 584 1783 l 1,113,-1
EndSplineSet
EndChar

